<ttFont>
<head>
    <!-- Most of this table will be recalculated by the compiler -->
    <tableVersion value="1.0"/>
    <fontRevision value="1.05199"/>
    <checkSumAdjustment value="0x427ec2f"/>
    <magicNumber value="0x5f0f3cf5"/>
    <flags value="00000000 00000011"/>
    <unitsPerEm value="1000"/>
    <created value="Sat Apr  9 14:31:12 2016"/>
    <modified value="Tue Jul 26 14:47:35 2016"/>
    <xMin value="-209"/>
    <yMin value="-338"/>
    <xMax value="1240"/>
    <yMax value="927"/>
    <macStyle value="00000000 00000000"/>
    <lowestRecPPEM value="7"/>
    <fontDirectionHint value="2"/>
    <indexToLocFormat value="0"/>
    <glyphDataFormat value="0"/>
  </head>
    <TTGlyph name=".notdef" xMin="50" yMin="0" xMax="450" yMax="660">
      <contour>
        <pt x="50" y="660" on="1"/>
        <pt x="450" y="660" on="1"/>
        <pt x="450" y="0" on="1"/>
        <pt x="50" y="0" on="1"/>
      </contour>
      <contour>
        <pt x="370" y="80" on="1"/>
        <pt x="370" y="580" on="1"/>
        <pt x="130" y="580" on="1"/>
        <pt x="130" y="80" on="1"/>
      </contour>
    </TTGlyph>
    <TTGlyph name="A" xMin="20" yMin="0" xMax="646" yMax="660">
      <contour>
        <pt x="471" y="173" on="1"/>
        <pt x="193" y="173" on="1"/>
        <pt x="130" y="0" on="1"/>
        <pt x="20" y="0" on="1"/>
        <pt x="269" y="660" on="1"/>
        <pt x="397" y="660" on="1"/>
        <pt x="646" y="0" on="1"/>
        <pt x="533" y="0" on="1"/>
      </contour>
      <contour>
        <pt x="439" y="260" on="1"/>
        <pt x="363" y="472" on="1"/>
        <pt x="333" y="567" on="1"/>
        <pt x="330" y="567" on="1"/>
        <pt x="302" y="474" on="1"/>
        <pt x="224" y="260" on="1"/>
      </contour>
    </TTGlyph>
    <TTGlyph name="A.swsh" xMin="0" yMin="-110" xMax="888" yMax="660">
      <contour>
        <pt x="713" y="173" on="1"/>
        <pt x="432" y="173" on="1"/>
        <pt x="388" y="53" on="1"/>
        <pt x="360" y="-29" on="0"/>
        <pt x="258" y="-110" on="0"/>
        <pt x="174" y="-110" on="1"/>
        <pt x="98" y="-110" on="0"/>
        <pt x="8" y="-47" on="0"/>
        <pt x="0" y="10" on="1"/>
        <pt x="57" y="73" on="1"/>
        <pt x="68" y="17" on="0"/>
        <pt x="121" y="-23" on="0"/>
        <pt x="170" y="-23" on="1"/>
        <pt x="204" y="-23" on="0"/>
        <pt x="247" y="1" on="0"/>
        <pt x="282" y="57" on="0"/>
        <pt x="303" y="110" on="1"/>
        <pt x="480" y="577" on="1"/>
        <pt x="349" y="577" on="1"/>
        <pt x="288" y="577" on="0"/>
        <pt x="218" y="523" on="0"/>
        <pt x="218" y="471" on="1"/>
        <pt x="218" y="430" on="0"/>
        <pt x="275" y="373" on="0"/>
        <pt x="322" y="365" on="1"/>
        <pt x="286" y="286" on="1"/>
        <pt x="213" y="295" on="0"/>
        <pt x="116" y="396" on="0"/>
        <pt x="116" y="473" on="1"/>
        <pt x="116" y="561" on="0"/>
        <pt x="233" y="660" on="0"/>
        <pt x="336" y="660" on="1"/>
        <pt x="639" y="660" on="1"/>
        <pt x="888" y="0" on="1"/>
        <pt x="775" y="0" on="1"/>
      </contour>
      <contour>
        <pt x="681" y="260" on="1"/>
        <pt x="605" y="472" on="1"/>
        <pt x="575" y="567" on="1"/>
        <pt x="573" y="567" on="1"/>
        <pt x="544" y="474" on="1"/>
        <pt x="465" y="260" on="1"/>
      </contour>
    </TTGlyph>
    <TTGlyph name="AE" xMin="3" yMin="0" xMax="899" yMax="660">
      <contour>
        <pt x="899" y="90" on="1"/>
        <pt x="899" y="0" on="1"/>
        <pt x="442" y="0" on="1"/>
        <pt x="442" y="208" on="1"/>
        <pt x="223" y="208" on="1"/>
        <pt x="115" y="0" on="1"/>
        <pt x="3" y="0" on="1"/>
        <pt x="358" y="660" on="1"/>
        <pt x="885" y="660" on="1"/>
        <pt x="885" y="570" on="1"/>
        <pt x="546" y="570" on="1"/>
        <pt x="546" y="378" on="1"/>
        <pt x="804" y="378" on="1"/>
        <pt x="804" y="289" on="1"/>
        <pt x="546" y="289" on="1"/>
        <pt x="546" y="90" on="1"/>
      </contour>
      <contour>
        <pt x="442" y="294" on="1"/>
        <pt x="442" y="571" on="1"/>
        <pt x="412" y="571" on="1"/>
        <pt x="268" y="294" on="1"/>
      </contour>
    </TTGlyph>
    <TTGlyph name="Aacute" xMin="20" yMin="0" xMax="646" yMax="897">
      <component glyphName="A" x="0" y="0" flags="0x0"/>
      <component glyphName="acutecomb.cap" x="333" y="0" flags="0x0"/>
    </TTGlyph>
    <TTGlyph name="Aacute.swsh" xMin="0" yMin="-110" xMax="888" yMax="897">
      <component glyphName="A.swsh" x="0" y="0" flags="0x0"/>
      <component glyphName="acutecomb.cap" x="575" y="0" flags="0x0"/>
    </TTGlyph>
    <TTGlyph name="Abreve" xMin="20" yMin="0" xMax="646" yMax="883">
      <component glyphName="A" x="0" y="0" flags="0x0"/>
      <component glyphName="breve" x="83" y="160" flags="0x4"/>
    </TTGlyph>
    <TTGlyph name="Abreve.swsh" xMin="0" yMin="-110" xMax="888" yMax="883">
      <component glyphName="A.swsh" x="0" y="0" flags="0x0"/>
      <component glyphName="breve" x="325" y="160" flags="0x4"/>
    </TTGlyph>
    <TTGlyph name="Acircumflex" xMin="20" yMin="0" xMax="646" yMax="894">
      <component glyphName="A" x="0" y="0" flags="0x0"/>
      <component glyphName="uni0302.cap" x="333" y="0" flags="0x0"/>
    </TTGlyph>
    <TTGlyph name="Acircumflex.swsh" xMin="0" yMin="-110" xMax="888" yMax="894">
      <component glyphName="A.swsh" x="0" y="0" flags="0x0"/>
      <component glyphName="uni0302.cap" x="575" y="0" flags="0x0"/>
    </TTGlyph>
    <TTGlyph name="Adieresis" xMin="20" yMin="0" xMax="646" yMax="860">
      <component glyphName="A" x="0" y="0" flags="0x0"/>
      <component glyphName="dieresis" x="81" y="160" flags="0x4"/>
    </TTGlyph>
    <TTGlyph name="Adieresis.swsh" xMin="0" yMin="-110" xMax="888" yMax="860">
      <component glyphName="A.swsh" x="0" y="0" flags="0x0"/>
      <component glyphName="dieresis" x="323" y="160" flags="0x4"/>
    </TTGlyph>
    <TTGlyph name="Adieresis.titl" xMin="19" yMin="0" xMax="645" yMax="662">
      <contour>
        <pt x="122" y="550" on="0"/>
        <pt x="92" y="581" on="0"/>
        <pt x="92" y="607" on="1"/>
        <pt x="92" y="632" on="0"/>
        <pt x="123" y="662" on="0"/>
        <pt x="148" y="662" on="1"/>
        <pt x="175" y="662" on="0"/>
        <pt x="207" y="632" on="0"/>
        <pt x="207" y="607" on="1"/>
        <pt x="207" y="581" on="0"/>
        <pt x="175" y="550" on="0"/>
        <pt x="148" y="550" on="1"/>
      </contour>
      <contour>
        <pt x="491" y="550" on="0"/>
        <pt x="460" y="581" on="0"/>
        <pt x="460" y="607" on="1"/>
        <pt x="460" y="632" on="0"/>
        <pt x="491" y="662" on="0"/>
        <pt x="517" y="662" on="1"/>
        <pt x="543" y="662" on="0"/>
        <pt x="575" y="632" on="0"/>
        <pt x="575" y="607" on="1"/>
        <pt x="575" y="581" on="0"/>
        <pt x="543" y="550" on="0"/>
        <pt x="517" y="550" on="1"/>
      </contour>
      <contour>
        <pt x="470" y="173" on="1"/>
        <pt x="193" y="173" on="1"/>
        <pt x="130" y="0" on="1"/>
        <pt x="19" y="0" on="1"/>
        <pt x="269" y="660" on="1"/>
        <pt x="397" y="660" on="1"/>
        <pt x="645" y="0" on="1"/>
        <pt x="533" y="0" on="1"/>
      </contour>
      <contour>
        <pt x="439" y="260" on="1"/>
        <pt x="362" y="472" on="1"/>
        <pt x="332" y="567" on="1"/>
        <pt x="330" y="567" on="1"/>
        <pt x="302" y="474" on="1"/>
        <pt x="224" y="260" on="1"/>
      </contour>
    </TTGlyph>
    <TTGlyph name="Agrave" xMin="20" yMin="0" xMax="646" yMax="897">
      <component glyphName="A" x="0" y="0" flags="0x0"/>
      <component glyphName="gravecomb.cap" x="328" y="0" flags="0x0"/>
    </TTGlyph>
    <TTGlyph name="Agrave.swsh" xMin="0" yMin="-110" xMax="888" yMax="897">
      <component glyphName="A.swsh" x="0" y="0" flags="0x0"/>
      <component glyphName="gravecomb.cap" x="567" y="0" flags="0x0"/>
    </TTGlyph>
    <TTGlyph name="Amacron" xMin="20" yMin="0" xMax="646" yMax="826">
      <component glyphName="A" x="0" y="0" flags="0x0"/>
      <component glyphName="macron" x="83" y="160" flags="0x4"/>
    </TTGlyph>
    <TTGlyph name="Amacron.swsh" xMin="0" yMin="-110" xMax="888" yMax="826">
      <component glyphName="A.swsh" x="0" y="0" flags="0x0"/>
      <component glyphName="macron" x="325" y="160" flags="0x4"/>
    </TTGlyph>
    <TTGlyph name="Aogonek" xMin="20" yMin="-215" xMax="657" yMax="660">
      <contour>
        <pt x="657" y="-195" on="1"/>
        <pt x="626" y="-215" on="0"/>
        <pt x="568" y="-215" on="1"/>
        <pt x="511" y="-215" on="0"/>
        <pt x="443" y="-159" on="0"/>
        <pt x="443" y="-108" on="1"/>
        <pt x="443" y="-32" on="0"/>
        <pt x="530" y="9" on="1"/>
        <pt x="471" y="173" on="1"/>
        <pt x="193" y="173" on="1"/>
        <pt x="130" y="0" on="1"/>
        <pt x="20" y="0" on="1"/>
        <pt x="269" y="660" on="1"/>
        <pt x="397" y="660" on="1"/>
        <pt x="646" y="0" on="1"/>
        <pt x="577" y="-20" on="0"/>
        <pt x="524" y="-67" on="0"/>
        <pt x="524" y="-97" on="1"/>
        <pt x="524" y="-120" on="0"/>
        <pt x="557" y="-146" on="0"/>
        <pt x="586" y="-146" on="1"/>
        <pt x="621" y="-146" on="0"/>
        <pt x="639" y="-134" on="1"/>
      </contour>
      <contour>
        <pt x="439" y="260" on="1"/>
        <pt x="363" y="472" on="1"/>
        <pt x="333" y="567" on="1"/>
        <pt x="330" y="567" on="1"/>
        <pt x="302" y="474" on="1"/>
        <pt x="224" y="260" on="1"/>
      </contour>
    </TTGlyph>
    <TTGlyph name="Aogonek.swsh" xMin="0" yMin="-215" xMax="899" yMax="660">
      <contour>
        <pt x="899" y="-195" on="1"/>
        <pt x="868" y="-215" on="0"/>
        <pt x="810" y="-215" on="1"/>
        <pt x="753" y="-215" on="0"/>
        <pt x="685" y="-159" on="0"/>
        <pt x="685" y="-108" on="1"/>
        <pt x="685" y="-32" on="0"/>
        <pt x="772" y="9" on="1"/>
        <pt x="713" y="173" on="1"/>
        <pt x="432" y="173" on="1"/>
        <pt x="388" y="53" on="1"/>
        <pt x="360" y="-29" on="0"/>
        <pt x="258" y="-110" on="0"/>
        <pt x="174" y="-110" on="1"/>
        <pt x="98" y="-110" on="0"/>
        <pt x="8" y="-47" on="0"/>
        <pt x="0" y="10" on="1"/>
        <pt x="57" y="73" on="1"/>
        <pt x="68" y="17" on="0"/>
        <pt x="121" y="-23" on="0"/>
        <pt x="170" y="-23" on="1"/>
        <pt x="204" y="-23" on="0"/>
        <pt x="247" y="1" on="0"/>
        <pt x="282" y="57" on="0"/>
        <pt x="303" y="110" on="1"/>
        <pt x="480" y="577" on="1"/>
        <pt x="349" y="577" on="1"/>
        <pt x="288" y="577" on="0"/>
        <pt x="218" y="523" on="0"/>
        <pt x="218" y="471" on="1"/>
        <pt x="218" y="430" on="0"/>
        <pt x="275" y="373" on="0"/>
        <pt x="322" y="365" on="1"/>
        <pt x="286" y="286" on="1"/>
        <pt x="213" y="295" on="0"/>
        <pt x="116" y="396" on="0"/>
        <pt x="116" y="473" on="1"/>
        <pt x="116" y="561" on="0"/>
        <pt x="233" y="660" on="0"/>
        <pt x="336" y="660" on="1"/>
        <pt x="639" y="660" on="1"/>
        <pt x="888" y="0" on="1"/>
        <pt x="819" y="-20" on="0"/>
        <pt x="766" y="-67" on="0"/>
        <pt x="766" y="-97" on="1"/>
        <pt x="766" y="-120" on="0"/>
        <pt x="799" y="-146" on="0"/>
        <pt x="828" y="-146" on="1"/>
        <pt x="863" y="-146" on="0"/>
        <pt x="881" y="-134" on="1"/>
      </contour>
      <contour>
        <pt x="681" y="260" on="1"/>
        <pt x="605" y="472" on="1"/>
        <pt x="575" y="567" on="1"/>
        <pt x="573" y="567" on="1"/>
        <pt x="544" y="474" on="1"/>
        <pt x="465" y="260" on="1"/>
      </contour>
    </TTGlyph>
    <TTGlyph name="Aring" xMin="20" yMin="0" xMax="646" yMax="855">
      <contour>
        <pt x="471" y="173" on="1"/>
        <pt x="193" y="173" on="1"/>
        <pt x="130" y="0" on="1"/>
        <pt x="20" y="0" on="1"/>
        <pt x="260" y="630" on="1"/>
        <pt x="231" y="645" on="0"/>
        <pt x="200" y="698" on="0"/>
        <pt x="200" y="733" on="1"/>
        <pt x="200" y="787" on="0"/>
        <pt x="274" y="855" on="0"/>
        <pt x="334" y="855" on="1"/>
        <pt x="394" y="855" on="0"/>
        <pt x="466" y="787" on="0"/>
        <pt x="466" y="733" on="1"/>
        <pt x="466" y="698" on="0"/>
        <pt x="435" y="645" on="0"/>
        <pt x="407" y="630" on="1"/>
        <pt x="646" y="0" on="1"/>
        <pt x="533" y="0" on="1"/>
      </contour>
      <contour>
        <pt x="303" y="797" on="0"/>
        <pt x="265" y="761" on="0"/>
        <pt x="265" y="732" on="1"/>
        <pt x="265" y="703" on="0"/>
        <pt x="303" y="667" on="0"/>
        <pt x="333" y="667" on="1"/>
        <pt x="362" y="667" on="0"/>
        <pt x="400" y="703" on="0"/>
        <pt x="400" y="732" on="1"/>
        <pt x="400" y="760" on="0"/>
        <pt x="362" y="797" on="0"/>
        <pt x="333" y="797" on="1"/>
      </contour>
      <contour>
        <pt x="439" y="260" on="1"/>
        <pt x="363" y="472" on="1"/>
        <pt x="333" y="567" on="1"/>
        <pt x="330" y="567" on="1"/>
        <pt x="302" y="474" on="1"/>
        <pt x="224" y="260" on="1"/>
      </contour>
    </TTGlyph>
    <TTGlyph name="Atilde" xMin="20" yMin="0" xMax="646" yMax="877">
      <component glyphName="A" x="0" y="0" flags="0x0"/>
      <component glyphName="tilde" x="82" y="160" flags="0x4"/>
    </TTGlyph>
    <TTGlyph name="Atilde.swsh" xMin="0" yMin="-110" xMax="888" yMax="877">
      <component glyphName="A.swsh" x="0" y="0" flags="0x0"/>
      <component glyphName="tilde" x="324" y="160" flags="0x4"/>
    </TTGlyph>
    <TTGlyph name="B" xMin="98" yMin="0" xMax="604" yMax="660">
      <contour>
        <pt x="98" y="660" on="1"/>
        <pt x="358" y="660" on="1"/>
        <pt x="474" y="660" on="0"/>
        <pt x="587" y="566" on="0"/>
        <pt x="587" y="479" on="1"/>
        <pt x="587" y="425" on="0"/>
        <pt x="525" y="345" on="0"/>
        <pt x="469" y="335" on="1"/>
        <pt x="469" y="334" on="1"/>
        <pt x="531" y="324" on="0"/>
        <pt x="604" y="240" on="0"/>
        <pt x="604" y="183" on="1"/>
        <pt x="604" y="97" on="0"/>
        <pt x="478" y="0" on="0"/>
        <pt x="362" y="0" on="1"/>
        <pt x="98" y="0" on="1"/>
      </contour>
      <contour>
        <pt x="350" y="376" on="1"/>
        <pt x="476" y="376" on="0"/>
        <pt x="476" y="473" on="1"/>
        <pt x="476" y="570" on="0"/>
        <pt x="350" y="570" on="1"/>
        <pt x="203" y="570" on="1"/>
        <pt x="203" y="376" on="1"/>
      </contour>
      <contour>
        <pt x="367" y="89" on="1"/>
        <pt x="429" y="89" on="0"/>
        <pt x="493" y="140" on="0"/>
        <pt x="493" y="188" on="1"/>
        <pt x="493" y="236" on="0"/>
        <pt x="429" y="287" on="0"/>
        <pt x="367" y="287" on="1"/>
        <pt x="203" y="287" on="1"/>
        <pt x="203" y="89" on="1"/>
      </contour>
    </TTGlyph>
    <TTGlyph name="C" xMin="61" yMin="-10" xMax="645" yMax="670">
      <contour>
        <pt x="615" y="86" on="0"/>
        <pt x="470" y="-10" on="0"/>
        <pt x="372" y="-10" on="1"/>
        <pt x="277" y="-10" on="0"/>
        <pt x="137" y="72" on="0"/>
        <pt x="61" y="226" on="0"/>
        <pt x="61" y="330" on="1"/>
        <pt x="61" y="434" on="0"/>
        <pt x="137" y="588" on="0"/>
        <pt x="277" y="670" on="0"/>
        <pt x="371" y="670" on="1"/>
        <pt x="470" y="670" on="0"/>
        <pt x="605" y="588" on="0"/>
        <pt x="635" y="508" on="1"/>
        <pt x="534" y="463" on="1"/>
        <pt x="514" y="522" on="0"/>
        <pt x="438" y="577" on="0"/>
        <pt x="377" y="577" on="1"/>
        <pt x="284" y="577" on="0"/>
        <pt x="173" y="446" on="0"/>
        <pt x="173" y="330" on="1"/>
        <pt x="173" y="213" on="0"/>
        <pt x="279" y="83" on="0"/>
        <pt x="373" y="83" on="1"/>
        <pt x="437" y="83" on="0"/>
        <pt x="524" y="147" on="0"/>
        <pt x="543" y="209" on="1"/>
        <pt x="645" y="175" on="1"/>
      </contour>
    </TTGlyph>
    <TTGlyph name="Cacute" xMin="61" yMin="-10" xMax="645" yMax="897">
      <component glyphName="C" x="0" y="0" flags="0x0"/>
      <component glyphName="acutecomb.cap" x="369" y="0" flags="0x0"/>
    </TTGlyph>
    <TTGlyph name="Ccaron" xMin="61" yMin="-10" xMax="645" yMax="897">
      <component glyphName="C" x="0" y="0" flags="0x0"/>
      <component glyphName="uni030C.cap" x="369" y="0" flags="0x0"/>
    </TTGlyph>
    <TTGlyph name="Ccedilla" xMin="61" yMin="-215" xMax="645" yMax="670">
      <contour>
        <pt x="620" y="100" on="0"/>
        <pt x="509" y="8" on="0"/>
        <pt x="432" y="-5" on="1"/>
        <pt x="460" y="-25" on="0"/>
        <pt x="489" y="-77" on="0"/>
        <pt x="489" y="-105" on="1"/>
        <pt x="489" y="-153" on="0"/>
        <pt x="421" y="-215" on="0"/>
        <pt x="365" y="-215" on="1"/>
        <pt x="326" y="-215" on="0"/>
        <pt x="271" y="-197" on="0"/>
        <pt x="250" y="-178" on="1"/>
        <pt x="283" y="-116" on="1"/>
        <pt x="296" y="-129" on="0"/>
        <pt x="332" y="-146" on="0"/>
        <pt x="353" y="-146" on="1"/>
        <pt x="377" y="-146" on="0"/>
        <pt x="409" y="-115" on="0"/>
        <pt x="409" y="-90" on="1"/>
        <pt x="409" y="-64" on="0"/>
        <pt x="377" y="-27" on="0"/>
        <pt x="335" y="-8" on="1"/>
        <pt x="251" y="-1" on="0"/>
        <pt x="127" y="86" on="0"/>
        <pt x="61" y="233" on="0"/>
        <pt x="61" y="330" on="1"/>
        <pt x="61" y="434" on="0"/>
        <pt x="137" y="588" on="0"/>
        <pt x="277" y="670" on="0"/>
        <pt x="371" y="670" on="1"/>
        <pt x="470" y="670" on="0"/>
        <pt x="605" y="588" on="0"/>
        <pt x="635" y="508" on="1"/>
        <pt x="534" y="463" on="1"/>
        <pt x="514" y="522" on="0"/>
        <pt x="438" y="577" on="0"/>
        <pt x="377" y="577" on="1"/>
        <pt x="284" y="577" on="0"/>
        <pt x="173" y="446" on="0"/>
        <pt x="173" y="330" on="1"/>
        <pt x="173" y="213" on="0"/>
        <pt x="279" y="83" on="0"/>
        <pt x="373" y="83" on="1"/>
        <pt x="437" y="83" on="0"/>
        <pt x="524" y="147" on="0"/>
        <pt x="543" y="209" on="1"/>
        <pt x="645" y="175" on="1"/>
      </contour>
    </TTGlyph>
    <TTGlyph name="D" xMin="98" yMin="0" xMax="659" yMax="660">
      <contour>
        <pt x="487" y="660" on="0"/>
        <pt x="659" y="488" on="0"/>
        <pt x="659" y="330" on="1"/>
        <pt x="659" y="172" on="0"/>
        <pt x="487" y="0" on="0"/>
        <pt x="331" y="0" on="1"/>
        <pt x="98" y="0" on="1"/>
        <pt x="98" y="660" on="1"/>
        <pt x="331" y="660" on="1"/>
      </contour>
      <contour>
        <pt x="435" y="91" on="0"/>
        <pt x="547" y="216" on="0"/>
        <pt x="547" y="330" on="1"/>
        <pt x="547" y="444" on="0"/>
        <pt x="435" y="569" on="0"/>
        <pt x="331" y="569" on="1"/>
        <pt x="205" y="569" on="1"/>
        <pt x="205" y="91" on="1"/>
        <pt x="331" y="91" on="1"/>
      </contour>
    </TTGlyph>
    <TTGlyph name="Dcaron" xMin="98" yMin="0" xMax="659" yMax="897">
      <component glyphName="D" x="0" y="0" flags="0x0"/>
      <component glyphName="uni030C.cap" x="326" y="0" flags="0x0"/>
    </TTGlyph>
    <TTGlyph name="Dcroat" xMin="22" yMin="0" xMax="677" yMax="660">
      <contour>
        <pt x="505" y="660" on="0"/>
        <pt x="677" y="488" on="0"/>
        <pt x="677" y="330" on="1"/>
        <pt x="677" y="172" on="0"/>
        <pt x="505" y="0" on="0"/>
        <pt x="349" y="0" on="1"/>
        <pt x="116" y="0" on="1"/>
        <pt x="116" y="294" on="1"/>
        <pt x="22" y="294" on="1"/>
        <pt x="22" y="370" on="1"/>
        <pt x="116" y="370" on="1"/>
        <pt x="116" y="660" on="1"/>
        <pt x="349" y="660" on="1"/>
      </contour>
      <contour>
        <pt x="453" y="91" on="0"/>
        <pt x="565" y="216" on="0"/>
        <pt x="565" y="330" on="1"/>
        <pt x="565" y="444" on="0"/>
        <pt x="453" y="569" on="0"/>
        <pt x="349" y="569" on="1"/>
        <pt x="223" y="569" on="1"/>
        <pt x="223" y="370" on="1"/>
        <pt x="400" y="370" on="1"/>
        <pt x="400" y="294" on="1"/>
        <pt x="223" y="294" on="1"/>
        <pt x="223" y="91" on="1"/>
        <pt x="349" y="91" on="1"/>
      </contour>
    </TTGlyph>
    <TTGlyph name="E" xMin="98" yMin="0" xMax="590" yMax="660">
      <contour>
        <pt x="590" y="92" on="1"/>
        <pt x="590" y="0" on="1"/>
        <pt x="98" y="0" on="1"/>
        <pt x="98" y="660" on="1"/>
        <pt x="576" y="660" on="1"/>
        <pt x="576" y="568" on="1"/>
        <pt x="205" y="568" on="1"/>
        <pt x="205" y="378" on="1"/>
        <pt x="495" y="378" on="1"/>
        <pt x="495" y="288" on="1"/>
        <pt x="205" y="288" on="1"/>
        <pt x="205" y="92" on="1"/>
      </contour>
    </TTGlyph>
    <TTGlyph name="E.swsh" xMin="10" yMin="0" xMax="822" yMax="660">
      <contour>
        <pt x="822" y="92" on="1"/>
        <pt x="822" y="0" on="1"/>
        <pt x="330" y="0" on="1"/>
        <pt x="330" y="577" on="1"/>
        <pt x="243" y="577" on="1"/>
        <pt x="182" y="577" on="0"/>
        <pt x="112" y="523" on="0"/>
        <pt x="112" y="471" on="1"/>
        <pt x="112" y="430" on="0"/>
        <pt x="169" y="373" on="0"/>
        <pt x="216" y="365" on="1"/>
        <pt x="180" y="286" on="1"/>
        <pt x="107" y="295" on="0"/>
        <pt x="10" y="396" on="0"/>
        <pt x="10" y="473" on="1"/>
        <pt x="10" y="561" on="0"/>
        <pt x="127" y="660" on="0"/>
        <pt x="230" y="660" on="1"/>
        <pt x="808" y="660" on="1"/>
        <pt x="808" y="568" on="1"/>
        <pt x="437" y="568" on="1"/>
        <pt x="437" y="378" on="1"/>
        <pt x="727" y="378" on="1"/>
        <pt x="727" y="288" on="1"/>
        <pt x="437" y="288" on="1"/>
        <pt x="437" y="92" on="1"/>
      </contour>
    </TTGlyph>
    <TTGlyph name="E.swsh.001" xMin="98" yMin="0" xMax="762" yMax="660">
      <contour>
        <pt x="686" y="345" on="0"/>
        <pt x="762" y="254" on="0"/>
        <pt x="762" y="181" on="1"/>
        <pt x="762" y="93" on="0"/>
        <pt x="649" y="0" on="0"/>
        <pt x="550" y="0" on="1"/>
        <pt x="98" y="0" on="1"/>
        <pt x="98" y="660" on="1"/>
        <pt x="604" y="660" on="1"/>
        <pt x="604" y="568" on="1"/>
        <pt x="205" y="568" on="1"/>
        <pt x="205" y="371" on="1"/>
        <pt x="419" y="371" on="1"/>
        <pt x="419" y="281" on="1"/>
        <pt x="205" y="281" on="1"/>
        <pt x="205" y="92" on="1"/>
        <pt x="531" y="92" on="1"/>
        <pt x="598" y="92" on="0"/>
        <pt x="662" y="136" on="0"/>
        <pt x="662" y="183" on="1"/>
        <pt x="662" y="225" on="0"/>
        <pt x="622" y="271" on="0"/>
        <pt x="587" y="273" on="1"/>
        <pt x="626" y="350" on="1"/>
      </contour>
    </TTGlyph>
    <TTGlyph name="Eacute" xMin="98" yMin="0" xMax="590" yMax="897">
      <component glyphName="E" x="0" y="0" flags="0x0"/>
      <component glyphName="acutecomb.cap" x="334" y="0" flags="0x0"/>
    </TTGlyph>
    <TTGlyph name="Eacute.swsh" xMin="10" yMin="0" xMax="822" yMax="897">
      <component glyphName="E.swsh" x="0" y="0" flags="0x0"/>
      <component glyphName="acutecomb.cap" x="566" y="0" flags="0x0"/>
    </TTGlyph>
    <TTGlyph name="Eacute.swsh.001" xMin="98" yMin="0" xMax="762" yMax="897">
      <component glyphName="E.swsh.001" x="0" y="0" flags="0x0"/>
      <component glyphName="acutecomb.cap" x="356" y="0" flags="0x0"/>
    </TTGlyph>
    <TTGlyph name="Ecaron" xMin="98" yMin="0" xMax="590" yMax="897">
      <component glyphName="E" x="0" y="0" flags="0x0"/>
      <component glyphName="uni030C.cap" x="334" y="0" flags="0x0"/>
    </TTGlyph>
    <TTGlyph name="Ecaron.swsh" xMin="10" yMin="0" xMax="822" yMax="897">
      <component glyphName="E.swsh" x="0" y="0" flags="0x0"/>
      <component glyphName="uni030C.cap" x="566" y="0" flags="0x0"/>
    </TTGlyph>
    <TTGlyph name="Ecaron.swsh.001" xMin="98" yMin="0" xMax="762" yMax="897">
      <component glyphName="E.swsh.001" x="0" y="0" flags="0x0"/>
      <component glyphName="uni030C.cap" x="356" y="0" flags="0x0"/>
    </TTGlyph>
    <TTGlyph name="Ecircumflex" xMin="98" yMin="0" xMax="590" yMax="894">
      <component glyphName="E" x="0" y="0" flags="0x0"/>
      <component glyphName="uni0302.cap" x="334" y="0" flags="0x0"/>
    </TTGlyph>
    <TTGlyph name="Ecircumflex.swsh" xMin="10" yMin="0" xMax="822" yMax="894">
      <component glyphName="E.swsh" x="0" y="0" flags="0x0"/>
      <component glyphName="uni0302.cap" x="566" y="0" flags="0x0"/>
    </TTGlyph>
    <TTGlyph name="Ecircumflex.swsh.001" xMin="98" yMin="0" xMax="762" yMax="894">
      <component glyphName="E.swsh.001" x="0" y="0" flags="0x0"/>
      <component glyphName="uni0302.cap" x="356" y="0" flags="0x0"/>
    </TTGlyph>
    <TTGlyph name="Edieresis" xMin="98" yMin="0" xMax="590" yMax="860">
      <component glyphName="E" x="0" y="0" flags="0x0"/>
      <component glyphName="dieresis" x="82" y="160" flags="0x4"/>
    </TTGlyph>
    <TTGlyph name="Edieresis.swsh" xMin="10" yMin="0" xMax="822" yMax="860">
      <component glyphName="E.swsh" x="0" y="0" flags="0x0"/>
      <component glyphName="dieresis" x="314" y="160" flags="0x4"/>
    </TTGlyph>
    <TTGlyph name="Edieresis.swsh.001" xMin="98" yMin="0" xMax="762" yMax="860">
      <component glyphName="E.swsh.001" x="0" y="0" flags="0x0"/>
      <component glyphName="dieresis" x="104" y="160" flags="0x4"/>
    </TTGlyph>
    <TTGlyph name="Edotaccent" xMin="98" yMin="0" xMax="590" yMax="878">
      <component glyphName="E" x="0" y="0" flags="0x0"/>
      <component glyphName="dotaccent" x="84" y="160" flags="0x4"/>
    </TTGlyph>
    <TTGlyph name="Edotaccent.swsh" xMin="10" yMin="0" xMax="822" yMax="878">
      <component glyphName="E.swsh" x="0" y="0" flags="0x0"/>
      <component glyphName="dotaccent" x="316" y="160" flags="0x4"/>
    </TTGlyph>
    <TTGlyph name="Edotaccent.swsh.001" xMin="98" yMin="0" xMax="762" yMax="878">
      <component glyphName="E.swsh.001" x="0" y="0" flags="0x0"/>
      <component glyphName="dotaccent" x="106" y="160" flags="0x4"/>
    </TTGlyph>
    <TTGlyph name="Egrave" xMin="98" yMin="0" xMax="590" yMax="897">
      <component glyphName="E" x="0" y="0" flags="0x0"/>
      <component glyphName="gravecomb.cap" x="338" y="0" flags="0x0"/>
    </TTGlyph>
    <TTGlyph name="Egrave.swsh" xMin="10" yMin="0" xMax="822" yMax="897">
      <component glyphName="E.swsh" x="0" y="0" flags="0x0"/>
      <component glyphName="gravecomb.cap" x="554" y="0" flags="0x0"/>
    </TTGlyph>
    <TTGlyph name="Egrave.swsh.001" xMin="98" yMin="0" xMax="762" yMax="897">
      <component glyphName="E.swsh.001" x="0" y="0" flags="0x0"/>
      <component glyphName="gravecomb.cap" x="356" y="0" flags="0x0"/>
    </TTGlyph>
    <TTGlyph name="Emacron" xMin="98" yMin="0" xMax="590" yMax="826">
      <component glyphName="E" x="0" y="0" flags="0x0"/>
      <component glyphName="macron" x="84" y="160" flags="0x4"/>
    </TTGlyph>
    <TTGlyph name="Emacron.swsh" xMin="10" yMin="0" xMax="822" yMax="826">
      <component glyphName="E.swsh" x="0" y="0" flags="0x0"/>
      <component glyphName="macron" x="316" y="160" flags="0x4"/>
    </TTGlyph>
    <TTGlyph name="Emacron.swsh.001" xMin="98" yMin="0" xMax="762" yMax="826">
      <component glyphName="E.swsh.001" x="0" y="0" flags="0x0"/>
      <component glyphName="macron" x="106" y="160" flags="0x4"/>
    </TTGlyph>
    <TTGlyph name="Eogonek" xMin="98" yMin="-215" xMax="601" yMax="660">
      <contour>
        <pt x="601" y="-195" on="1"/>
        <pt x="571" y="-215" on="0"/>
        <pt x="512" y="-215" on="1"/>
        <pt x="455" y="-215" on="0"/>
        <pt x="387" y="-161" on="0"/>
        <pt x="387" y="-113" on="1"/>
        <pt x="387" y="-74" on="0"/>
        <pt x="430" y="-19" on="0"/>
        <pt x="473" y="0" on="1"/>
        <pt x="98" y="0" on="1"/>
        <pt x="98" y="660" on="1"/>
        <pt x="576" y="660" on="1"/>
        <pt x="576" y="568" on="1"/>
        <pt x="205" y="568" on="1"/>
        <pt x="205" y="378" on="1"/>
        <pt x="495" y="378" on="1"/>
        <pt x="495" y="288" on="1"/>
        <pt x="205" y="288" on="1"/>
        <pt x="205" y="92" on="1"/>
        <pt x="590" y="92" on="1"/>
        <pt x="590" y="1" on="1"/>
        <pt x="591" y="0" on="1"/>
        <pt x="521" y="-20" on="0"/>
        <pt x="468" y="-67" on="0"/>
        <pt x="468" y="-97" on="1"/>
        <pt x="468" y="-120" on="0"/>
        <pt x="501" y="-146" on="0"/>
        <pt x="530" y="-146" on="1"/>
        <pt x="565" y="-146" on="0"/>
        <pt x="583" y="-134" on="1"/>
      </contour>
    </TTGlyph>
    <TTGlyph name="Eogonek.swsh" xMin="10" yMin="-215" xMax="833" yMax="660">
      <contour>
        <pt x="833" y="-195" on="1"/>
        <pt x="803" y="-215" on="0"/>
        <pt x="744" y="-215" on="1"/>
        <pt x="687" y="-215" on="0"/>
        <pt x="619" y="-161" on="0"/>
        <pt x="619" y="-113" on="1"/>
        <pt x="619" y="-74" on="0"/>
        <pt x="662" y="-19" on="0"/>
        <pt x="705" y="0" on="1"/>
        <pt x="330" y="0" on="1"/>
        <pt x="330" y="577" on="1"/>
        <pt x="243" y="577" on="1"/>
        <pt x="182" y="577" on="0"/>
        <pt x="112" y="523" on="0"/>
        <pt x="112" y="471" on="1"/>
        <pt x="112" y="430" on="0"/>
        <pt x="169" y="373" on="0"/>
        <pt x="216" y="365" on="1"/>
        <pt x="180" y="286" on="1"/>
        <pt x="107" y="295" on="0"/>
        <pt x="10" y="396" on="0"/>
        <pt x="10" y="473" on="1"/>
        <pt x="10" y="561" on="0"/>
        <pt x="127" y="660" on="0"/>
        <pt x="230" y="660" on="1"/>
        <pt x="808" y="660" on="1"/>
        <pt x="808" y="568" on="1"/>
        <pt x="437" y="568" on="1"/>
        <pt x="437" y="378" on="1"/>
        <pt x="727" y="378" on="1"/>
        <pt x="727" y="288" on="1"/>
        <pt x="437" y="288" on="1"/>
        <pt x="437" y="92" on="1"/>
        <pt x="822" y="92" on="1"/>
        <pt x="822" y="1" on="1"/>
        <pt x="823" y="0" on="1"/>
        <pt x="753" y="-20" on="0"/>
        <pt x="700" y="-67" on="0"/>
        <pt x="700" y="-97" on="1"/>
        <pt x="700" y="-120" on="0"/>
        <pt x="733" y="-146" on="0"/>
        <pt x="762" y="-146" on="1"/>
        <pt x="797" y="-146" on="0"/>
        <pt x="815" y="-134" on="1"/>
      </contour>
    </TTGlyph>
    <TTGlyph name="Eth" xMin="22" yMin="0" xMax="677" yMax="660">
      <component glyphName="Dcroat" x="0" y="0" flags="0x0"/>
    </TTGlyph>
    <TTGlyph name="Euro" xMin="51" yMin="-10" xMax="665" yMax="670">
      <contour>
        <pt x="665" y="171" on="1"/>
        <pt x="639" y="86" on="0"/>
        <pt x="503" y="-10" on="0"/>
        <pt x="414" y="-10" on="1"/>
        <pt x="306" y="-10" on="0"/>
        <pt x="165" y="107" on="0"/>
        <pt x="140" y="213" on="1"/>
        <pt x="51" y="213" on="1"/>
        <pt x="51" y="281" on="1"/>
        <pt x="129" y="281" on="1"/>
        <pt x="127" y="313" on="0"/>
        <pt x="127" y="330" on="1"/>
        <pt x="127" y="350" on="0"/>
        <pt x="128" y="360" on="1"/>
        <pt x="51" y="360" on="1"/>
        <pt x="51" y="429" on="1"/>
        <pt x="136" y="429" on="1"/>
        <pt x="158" y="543" on="0"/>
        <pt x="302" y="670" on="0"/>
        <pt x="412" y="670" on="1"/>
        <pt x="501" y="670" on="0"/>
        <pt x="630" y="589" on="0"/>
        <pt x="656" y="515" on="1"/>
        <pt x="567" y="474" on="1"/>
        <pt x="553" y="527" on="0"/>
        <pt x="473" y="585" on="0"/>
        <pt x="420" y="585" on="1"/>
        <pt x="353" y="585" on="0"/>
        <pt x="260" y="504" on="0"/>
        <pt x="241" y="429" on="1"/>
        <pt x="478" y="429" on="1"/>
        <pt x="456" y="360" on="1"/>
        <pt x="231" y="360" on="1"/>
        <pt x="230" y="350" on="0"/>
        <pt x="230" y="330" on="1"/>
        <pt x="230" y="313" on="0"/>
        <pt x="232" y="281" on="1"/>
        <pt x="438" y="281" on="1"/>
        <pt x="417" y="213" on="1"/>
        <pt x="245" y="213" on="1"/>
        <pt x="265" y="146" on="0"/>
        <pt x="352" y="75" on="0"/>
        <pt x="416" y="75" on="1"/>
        <pt x="471" y="75" on="0"/>
        <pt x="559" y="141" on="0"/>
        <pt x="575" y="201" on="1"/>
      </contour>
    </TTGlyph>
    <TTGlyph name="Euro.tf" xMin="17" yMin="-10" xMax="587" yMax="670">
      <contour>
        <pt x="587" y="169" on="1"/>
        <pt x="568" y="85" on="0"/>
        <pt x="444" y="-10" on="0"/>
        <pt x="353" y="-10" on="1"/>
        <pt x="255" y="-10" on="0"/>
        <pt x="127" y="107" on="0"/>
        <pt x="104" y="213" on="1"/>
        <pt x="17" y="213" on="1"/>
        <pt x="17" y="281" on="1"/>
        <pt x="94" y="281" on="1"/>
        <pt x="92" y="313" on="0"/>
        <pt x="92" y="330" on="1"/>
        <pt x="92" y="350" on="0"/>
        <pt x="93" y="360" on="1"/>
        <pt x="17" y="360" on="1"/>
        <pt x="17" y="429" on="1"/>
        <pt x="100" y="429" on="1"/>
        <pt x="121" y="543" on="0"/>
        <pt x="255" y="670" on="0"/>
        <pt x="357" y="670" on="1"/>
        <pt x="445" y="670" on="0"/>
        <pt x="557" y="592" on="0"/>
        <pt x="576" y="517" on="1"/>
        <pt x="488" y="476" on="1"/>
        <pt x="480" y="529" on="0"/>
        <pt x="414" y="585" on="0"/>
        <pt x="364" y="585" on="1"/>
        <pt x="305" y="585" on="0"/>
        <pt x="219" y="503" on="0"/>
        <pt x="202" y="429" on="1"/>
        <pt x="412" y="429" on="1"/>
        <pt x="392" y="360" on="1"/>
        <pt x="192" y="360" on="1"/>
        <pt x="191" y="350" on="0"/>
        <pt x="191" y="330" on="1"/>
        <pt x="191" y="313" on="0"/>
        <pt x="193" y="281" on="1"/>
        <pt x="374" y="281" on="1"/>
        <pt x="354" y="213" on="1"/>
        <pt x="205" y="213" on="1"/>
        <pt x="223" y="147" on="0"/>
        <pt x="301" y="75" on="0"/>
        <pt x="355" y="75" on="1"/>
        <pt x="414" y="75" on="0"/>
        <pt x="489" y="138" on="0"/>
        <pt x="498" y="199" on="1"/>
      </contour>
    </TTGlyph>
    <TTGlyph name="F" xMin="98" yMin="0" xMax="575" yMax="660">
      <contour>
        <pt x="205" y="568" on="1"/>
        <pt x="205" y="377" on="1"/>
        <pt x="495" y="377" on="1"/>
        <pt x="495" y="284" on="1"/>
        <pt x="205" y="284" on="1"/>
        <pt x="205" y="0" on="1"/>
        <pt x="98" y="0" on="1"/>
        <pt x="98" y="660" on="1"/>
        <pt x="575" y="660" on="1"/>
        <pt x="575" y="568" on="1"/>
      </contour>
    </TTGlyph>
    <TTGlyph name="F.swsh" xMin="10" yMin="0" xMax="803" yMax="660">
      <contour>
        <pt x="433" y="568" on="1"/>
        <pt x="433" y="377" on="1"/>
        <pt x="723" y="377" on="1"/>
        <pt x="723" y="284" on="1"/>
        <pt x="433" y="284" on="1"/>
        <pt x="433" y="0" on="1"/>
        <pt x="326" y="0" on="1"/>
        <pt x="326" y="577" on="1"/>
        <pt x="243" y="577" on="1"/>
        <pt x="182" y="577" on="0"/>
        <pt x="112" y="523" on="0"/>
        <pt x="112" y="471" on="1"/>
        <pt x="112" y="430" on="0"/>
        <pt x="169" y="373" on="0"/>
        <pt x="216" y="365" on="1"/>
        <pt x="180" y="286" on="1"/>
        <pt x="107" y="295" on="0"/>
        <pt x="10" y="396" on="0"/>
        <pt x="10" y="473" on="1"/>
        <pt x="10" y="561" on="0"/>
        <pt x="127" y="660" on="0"/>
        <pt x="230" y="660" on="1"/>
        <pt x="803" y="660" on="1"/>
        <pt x="803" y="568" on="1"/>
      </contour>
    </TTGlyph>
    <TTGlyph name="G" xMin="61" yMin="-10" xMax="651" yMax="670">
      <contour>
        <pt x="651" y="341" on="1"/>
        <pt x="651" y="0" on="1"/>
        <pt x="572" y="0" on="1"/>
        <pt x="568" y="84" on="1"/>
        <pt x="540" y="39" on="0"/>
        <pt x="438" y="-10" on="0"/>
        <pt x="367" y="-10" on="1"/>
        <pt x="275" y="-10" on="0"/>
        <pt x="137" y="72" on="0"/>
        <pt x="61" y="225" on="0"/>
        <pt x="61" y="330" on="1"/>
        <pt x="61" y="434" on="0"/>
        <pt x="139" y="587" on="0"/>
        <pt x="281" y="670" on="0"/>
        <pt x="375" y="670" on="1"/>
        <pt x="477" y="670" on="0"/>
        <pt x="609" y="594" on="0"/>
        <pt x="647" y="514" on="1"/>
        <pt x="549" y="467" on="1"/>
        <pt x="530" y="521" on="0"/>
        <pt x="440" y="577" on="0"/>
        <pt x="377" y="577" on="1"/>
        <pt x="283" y="577" on="0"/>
        <pt x="173" y="447" on="0"/>
        <pt x="173" y="330" on="1"/>
        <pt x="173" y="211" on="0"/>
        <pt x="278" y="82" on="0"/>
        <pt x="379" y="82" on="1"/>
        <pt x="458" y="82" on="0"/>
        <pt x="556" y="160" on="0"/>
        <pt x="556" y="234" on="1"/>
        <pt x="556" y="253" on="1"/>
        <pt x="354" y="253" on="1"/>
        <pt x="354" y="341" on="1"/>
      </contour>
    </TTGlyph>
    <TTGlyph name="G.ss04" xMin="61" yMin="-10" xMax="663" yMax="670">
      <contour>
        <pt x="663" y="340" on="1"/>
        <pt x="663" y="273" on="1"/>
        <pt x="663" y="140" on="0"/>
        <pt x="511" y="-10" on="0"/>
        <pt x="373" y="-10" on="1"/>
        <pt x="278" y="-10" on="0"/>
        <pt x="137" y="72" on="0"/>
        <pt x="61" y="225" on="0"/>
        <pt x="61" y="330" on="1"/>
        <pt x="61" y="434" on="0"/>
        <pt x="139" y="587" on="0"/>
        <pt x="281" y="670" on="0"/>
        <pt x="375" y="670" on="1"/>
        <pt x="477" y="670" on="0"/>
        <pt x="608" y="595" on="0"/>
        <pt x="647" y="514" on="1"/>
        <pt x="548" y="467" on="1"/>
        <pt x="529" y="521" on="0"/>
        <pt x="440" y="577" on="0"/>
        <pt x="375" y="577" on="1"/>
        <pt x="283" y="577" on="0"/>
        <pt x="173" y="446" on="0"/>
        <pt x="173" y="330" on="1"/>
        <pt x="173" y="210" on="0"/>
        <pt x="280" y="83" on="0"/>
        <pt x="382" y="83" on="1"/>
        <pt x="445" y="83" on="0"/>
        <pt x="528" y="132" on="0"/>
        <pt x="566" y="207" on="0"/>
        <pt x="566" y="248" on="1"/>
        <pt x="566" y="255" on="1"/>
        <pt x="364" y="255" on="1"/>
        <pt x="364" y="340" on="1"/>
      </contour>
    </TTGlyph>
    <TTGlyph name="Gbreve" xMin="61" yMin="-10" xMax="651" yMax="883">
      <component glyphName="G" x="0" y="0" flags="0x0"/>
      <component glyphName="breve" x="121" y="160" flags="0x4"/>
    </TTGlyph>
    <TTGlyph name="Gbreve.ss04" xMin="61" yMin="-10" xMax="663" yMax="883">
      <component glyphName="G.ss04" x="0" y="0" flags="0x0"/>
      <component glyphName="breve" x="121" y="160" flags="0x4"/>
    </TTGlyph>
    <TTGlyph name="Gcommaaccent.sc" xMin="54" yMin="-238" xMax="584" yMax="568">
      <component glyphName="g.sc" x="0" y="0" flags="0x0"/>
      <component glyphName="uni0326" x="442" y="0" flags="0x0"/>
    </TTGlyph>
    <TTGlyph name="Gcommaaccent.sc.ss04" xMin="55" yMin="-238" xMax="594" yMax="568">
      <component glyphName="g.sc.ss04" x="0" y="0" flags="0x0"/>
      <component glyphName="uni0326" x="454" y="0" flags="0x0"/>
    </TTGlyph>
    <TTGlyph name="Gcommaaccent.ss04" xMin="61" yMin="-238" xMax="663" yMax="670">
      <component glyphName="G.ss04" x="0" y="0" flags="0x0"/>
      <component glyphName="uni0326" x="490" y="0" flags="0x0"/>
    </TTGlyph>
    <TTGlyph name="H" xMin="98" yMin="0" xMax="639" yMax="660">
      <contour>
        <pt x="639" y="660" on="1"/>
        <pt x="639" y="0" on="1"/>
        <pt x="531" y="0" on="1"/>
        <pt x="531" y="288" on="1"/>
        <pt x="205" y="288" on="1"/>
        <pt x="205" y="0" on="1"/>
        <pt x="98" y="0" on="1"/>
        <pt x="98" y="660" on="1"/>
        <pt x="205" y="660" on="1"/>
        <pt x="205" y="380" on="1"/>
        <pt x="531" y="380" on="1"/>
        <pt x="531" y="660" on="1"/>
      </contour>
    </TTGlyph>
    <TTGlyph name="Hinferior" xMin="51" yMin="-189" xMax="416" yMax="208">
      <component glyphName="Hsuperior" x="0" y="-522" flags="0x4"/>
    </TTGlyph>
    <TTGlyph name="Hsuperior" xMin="51" yMin="333" xMax="416" yMax="730">
      <contour>
        <pt x="416" y="730" on="1"/>
        <pt x="416" y="333" on="1"/>
        <pt x="328" y="333" on="1"/>
        <pt x="328" y="500" on="1"/>
        <pt x="138" y="500" on="1"/>
        <pt x="138" y="333" on="1"/>
        <pt x="51" y="333" on="1"/>
        <pt x="51" y="730" on="1"/>
        <pt x="138" y="730" on="1"/>
        <pt x="138" y="568" on="1"/>
        <pt x="328" y="568" on="1"/>
        <pt x="328" y="730" on="1"/>
      </contour>
    </TTGlyph>
    <TTGlyph name="I" xMin="98" yMin="0" xMax="205" yMax="660">
      <contour>
        <pt x="205" y="0" on="1"/>
        <pt x="98" y="0" on="1"/>
        <pt x="98" y="660" on="1"/>
        <pt x="205" y="660" on="1"/>
      </contour>
    </TTGlyph>
    <TTGlyph name="IJ" xMin="98" yMin="-10" xMax="796" yMax="660">
      <component glyphName="I" x="0" y="0" flags="0x0"/>
      <component glyphName="J" x="303" y="0" flags="0x0"/>
    </TTGlyph>
    <TTGlyph name="IJ.ss05" xMin="98" yMin="-10" xMax="553" yMax="660">
      <contour>
        <pt x="553" y="234" on="1"/>
        <pt x="553" y="120" on="0"/>
        <pt x="426" y="-10" on="0"/>
        <pt x="318" y="-10" on="1"/>
        <pt x="213" y="-10" on="0"/>
        <pt x="99" y="82" on="0"/>
        <pt x="99" y="168" on="1"/>
        <pt x="99" y="179" on="0"/>
        <pt x="101" y="201" on="1"/>
        <pt x="206" y="201" on="1"/>
        <pt x="204" y="183" on="0"/>
        <pt x="204" y="175" on="1"/>
        <pt x="204" y="129" on="0"/>
        <pt x="264" y="83" on="0"/>
        <pt x="319" y="83" on="1"/>
        <pt x="380" y="83" on="0"/>
        <pt x="445" y="167" on="0"/>
        <pt x="445" y="249" on="1"/>
        <pt x="445" y="660" on="1"/>
        <pt x="553" y="660" on="1"/>
      </contour>
      <contour>
        <pt x="205" y="288" on="1"/>
        <pt x="98" y="288" on="1"/>
        <pt x="98" y="660" on="1"/>
        <pt x="205" y="660" on="1"/>
      </contour>
    </TTGlyph>
    <TTGlyph name="Iacute" xMin="98" yMin="0" xMax="276" yMax="897">
      <component glyphName="I" x="0" y="0" flags="0x0"/>
      <component glyphName="acutecomb.cap" x="159" y="0" flags="0x0"/>
    </TTGlyph>
    <TTGlyph name="Iacute_J.loclNLD" xMin="98" yMin="-10" xMax="867" yMax="897">
      <component glyphName="I" x="0" y="0" flags="0x0"/>
      <component glyphName="acutecomb.cap" x="159" y="0" flags="0x0"/>
      <component glyphName="J" x="303" y="0" flags="0x0"/>
      <component glyphName="acutecomb.cap" x="750" y="0" flags="0x0"/>
    </TTGlyph>
    <TTGlyph name="Iacute_J.loclNLD.ss05" xMin="90" yMin="-10" xMax="617" yMax="897">
      <component glyphName="acutecomb.cap" x="500" y="0" flags="0x0"/>
      <component glyphName="acutecomb.cap" x="143" y="0" flags="0x0"/>
      <component glyphName="IJ.ss05" x="-8" y="0" flags="0x0"/>
    </TTGlyph>
    <TTGlyph name="Icircumflex" xMin="-12" yMin="0" xMax="314" yMax="894">
      <component glyphName="I" x="0" y="0" flags="0x0"/>
      <component glyphName="uni0302.cap" x="151" y="0" flags="0x0"/>
    </TTGlyph>
    <TTGlyph name="Idieresis" xMin="-4" yMin="0" xMax="307" yMax="860">
      <contour>
        <pt x="90" y="860" on="0"/>
        <pt x="125" y="826" on="0"/>
        <pt x="125" y="797" on="1"/>
        <pt x="125" y="768" on="0"/>
        <pt x="90" y="734" on="0"/>
        <pt x="60" y="734" on="1"/>
        <pt x="31" y="734" on="0"/>
        <pt x="-4" y="768" on="0"/>
        <pt x="-4" y="797" on="1"/>
        <pt x="-4" y="826" on="0"/>
        <pt x="31" y="860" on="0"/>
        <pt x="60" y="860" on="1"/>
      </contour>
      <contour>
        <pt x="271" y="860" on="0"/>
        <pt x="307" y="826" on="0"/>
        <pt x="307" y="797" on="1"/>
        <pt x="307" y="769" on="0"/>
        <pt x="271" y="734" on="0"/>
        <pt x="242" y="734" on="1"/>
        <pt x="213" y="734" on="0"/>
        <pt x="177" y="769" on="0"/>
        <pt x="177" y="797" on="1"/>
        <pt x="177" y="826" on="0"/>
        <pt x="213" y="860" on="0"/>
        <pt x="242" y="860" on="1"/>
      </contour>
      <contour>
        <pt x="205" y="0" on="1"/>
        <pt x="98" y="0" on="1"/>
        <pt x="98" y="660" on="1"/>
        <pt x="205" y="660" on="1"/>
      </contour>
    </TTGlyph>
    <TTGlyph name="Idotaccent" xMin="82" yMin="0" xMax="221" yMax="878">
      <component glyphName="I" x="0" y="0" flags="0x0"/>
      <component glyphName="dotaccent" x="-99" y="160" flags="0x4"/>
    </TTGlyph>
    <TTGlyph name="Igrave" xMin="26" yMin="0" xMax="205" yMax="897">
      <component glyphName="I" x="0" y="0" flags="0x0"/>
      <component glyphName="gravecomb.cap" x="143" y="0" flags="0x0"/>
    </TTGlyph>
    <TTGlyph name="Imacron" xMin="33" yMin="0" xMax="269" yMax="826">
      <contour>
        <pt x="269" y="748" on="1"/>
        <pt x="33" y="748" on="1"/>
        <pt x="33" y="826" on="1"/>
        <pt x="269" y="826" on="1"/>
      </contour>
      <contour>
        <pt x="205" y="0" on="1"/>
        <pt x="98" y="0" on="1"/>
        <pt x="98" y="660" on="1"/>
        <pt x="205" y="660" on="1"/>
      </contour>
    </TTGlyph>
    <TTGlyph name="Iogonek" xMin="16" yMin="-215" xMax="230" yMax="660">
      <contour>
        <pt x="230" y="-192" on="1"/>
        <pt x="195" y="-215" on="0"/>
        <pt x="139" y="-215" on="1"/>
        <pt x="83" y="-215" on="0"/>
        <pt x="16" y="-161" on="0"/>
        <pt x="16" y="-113" on="1"/>
        <pt x="16" y="-76" on="0"/>
        <pt x="57" y="-17" on="0"/>
        <pt x="98" y="3" on="1"/>
        <pt x="98" y="660" on="1"/>
        <pt x="205" y="660" on="1"/>
        <pt x="205" y="0" on="1"/>
        <pt x="144" y="-24" on="0"/>
        <pt x="97" y="-70" on="0"/>
        <pt x="97" y="-95" on="1"/>
        <pt x="97" y="-146" on="0"/>
        <pt x="154" y="-146" on="1"/>
        <pt x="188" y="-146" on="0"/>
        <pt x="209" y="-132" on="1"/>
      </contour>
    </TTGlyph>
    <TTGlyph name="J" xMin="39" yMin="-10" xMax="493" yMax="660">
      <contour>
        <pt x="493" y="234" on="1"/>
        <pt x="493" y="119" on="0"/>
        <pt x="366" y="-10" on="0"/>
        <pt x="253" y="-10" on="1"/>
        <pt x="149" y="-10" on="0"/>
        <pt x="39" y="89" on="0"/>
        <pt x="39" y="175" on="1"/>
        <pt x="39" y="206" on="0"/>
        <pt x="44" y="231" on="1"/>
        <pt x="146" y="250" on="1"/>
        <pt x="142" y="212" on="0"/>
        <pt x="142" y="199" on="1"/>
        <pt x="142" y="139" on="0"/>
        <pt x="196" y="83" on="0"/>
        <pt x="253" y="83" on="1"/>
        <pt x="326" y="83" on="0"/>
        <pt x="386" y="166" on="0"/>
        <pt x="386" y="254" on="1"/>
        <pt x="386" y="660" on="1"/>
        <pt x="493" y="660" on="1"/>
      </contour>
    </TTGlyph>
    <TTGlyph name="K" xMin="98" yMin="0" xMax="645" yMax="660">
      <contour>
        <pt x="312" y="318" on="1"/>
        <pt x="205" y="203" on="1"/>
        <pt x="205" y="0" on="1"/>
        <pt x="98" y="0" on="1"/>
        <pt x="98" y="660" on="1"/>
        <pt x="205" y="660" on="1"/>
        <pt x="205" y="331" on="1"/>
        <pt x="508" y="660" on="1"/>
        <pt x="639" y="660" on="1"/>
        <pt x="389" y="390" on="1"/>
        <pt x="645" y="0" on="1"/>
        <pt x="519" y="0" on="1"/>
      </contour>
    </TTGlyph>
    <TTGlyph name="Kcommaaccent.sc" xMin="87" yMin="-238" xMax="591" yMax="560">
      <component glyphName="k.sc" x="0" y="0" flags="0x0"/>
      <component glyphName="uni0326" x="426" y="0" flags="0x0"/>
    </TTGlyph>
    <TTGlyph name="L" xMin="98" yMin="0" xMax="569" yMax="660">
      <contour>
        <pt x="569" y="92" on="1"/>
        <pt x="569" y="0" on="1"/>
        <pt x="98" y="0" on="1"/>
        <pt x="98" y="660" on="1"/>
        <pt x="205" y="660" on="1"/>
        <pt x="205" y="92" on="1"/>
      </contour>
    </TTGlyph>
    <TTGlyph name="L.swsh" xMin="98" yMin="0" xMax="645" yMax="660">
      <contour>
        <pt x="554" y="362" on="0"/>
        <pt x="645" y="265" on="0"/>
        <pt x="645" y="187" on="1"/>
        <pt x="645" y="95" on="0"/>
        <pt x="530" y="0" on="0"/>
        <pt x="426" y="0" on="1"/>
        <pt x="98" y="0" on="1"/>
        <pt x="98" y="660" on="1"/>
        <pt x="205" y="660" on="1"/>
        <pt x="205" y="92" on="1"/>
        <pt x="412" y="92" on="1"/>
        <pt x="477" y="92" on="0"/>
        <pt x="545" y="137" on="0"/>
        <pt x="545" y="189" on="1"/>
        <pt x="545" y="236" on="0"/>
        <pt x="490" y="285" on="0"/>
        <pt x="441" y="287" on="1"/>
        <pt x="478" y="364" on="1"/>
      </contour>
    </TTGlyph>
    <TTGlyph name="Lacute" xMin="98" yMin="0" xMax="569" yMax="897">
      <component glyphName="L" x="0" y="0" flags="0x0"/>
      <component glyphName="acutecomb.cap" x="151" y="0" flags="0x0"/>
    </TTGlyph>
    <TTGlyph name="Lacute.swsh" xMin="98" yMin="0" xMax="645" yMax="897">
      <component glyphName="L.swsh" x="0" y="0" flags="0x0"/>
      <component glyphName="acutecomb.cap" x="151" y="0" flags="0x0"/>
    </TTGlyph>
    <TTGlyph name="Lcaron" xMin="98" yMin="0" xMax="569" yMax="700">
      <contour>
        <pt x="366" y="490" on="1"/>
        <pt x="295" y="490" on="1"/>
        <pt x="316" y="700" on="1"/>
        <pt x="411" y="700" on="1"/>
      </contour>
      <contour>
        <pt x="569" y="92" on="1"/>
        <pt x="569" y="0" on="1"/>
        <pt x="98" y="0" on="1"/>
        <pt x="98" y="660" on="1"/>
        <pt x="205" y="660" on="1"/>
        <pt x="205" y="92" on="1"/>
      </contour>
    </TTGlyph>
    <TTGlyph name="Lcaron.swsh" xMin="98" yMin="0" xMax="645" yMax="700">
      <contour>
        <pt x="364" y="490" on="1"/>
        <pt x="296" y="490" on="1"/>
        <pt x="316" y="700" on="1"/>
        <pt x="408" y="700" on="1"/>
      </contour>
      <contour>
        <pt x="554" y="362" on="0"/>
        <pt x="645" y="265" on="0"/>
        <pt x="645" y="187" on="1"/>
        <pt x="645" y="95" on="0"/>
        <pt x="530" y="0" on="0"/>
        <pt x="426" y="0" on="1"/>
        <pt x="98" y="0" on="1"/>
        <pt x="98" y="660" on="1"/>
        <pt x="205" y="660" on="1"/>
        <pt x="205" y="92" on="1"/>
        <pt x="412" y="92" on="1"/>
        <pt x="477" y="92" on="0"/>
        <pt x="545" y="137" on="0"/>
        <pt x="545" y="189" on="1"/>
        <pt x="545" y="236" on="0"/>
        <pt x="490" y="285" on="0"/>
        <pt x="441" y="287" on="1"/>
        <pt x="478" y="364" on="1"/>
      </contour>
    </TTGlyph>
    <TTGlyph name="Lcommaaccent.sc" xMin="87" yMin="-238" xMax="515" yMax="560">
      <component glyphName="l.sc" x="0" y="0" flags="0x0"/>
      <component glyphName="uni0326" x="415" y="0" flags="0x0"/>
    </TTGlyph>
    <TTGlyph name="Lcommaaccent.swsh" xMin="98" yMin="-238" xMax="645" yMax="660">
      <component glyphName="L.swsh" x="0" y="0" flags="0x0"/>
      <component glyphName="uni0326" x="465" y="0" flags="0x0"/>
    </TTGlyph>
    <TTGlyph name="Ldot" xMin="98" yMin="0" xMax="604" yMax="660">
      <component glyphName="L" x="0" y="0" flags="0x0"/>
      <component glyphName="period" x="392" y="283" flags="0x4"/>
    </TTGlyph>
    <TTGlyph name="Lslash" xMin="25" yMin="0" xMax="603" yMax="660">
      <contour>
        <pt x="603" y="92" on="1"/>
        <pt x="603" y="0" on="1"/>
        <pt x="132" y="0" on="1"/>
        <pt x="132" y="244" on="1"/>
        <pt x="25" y="187" on="1"/>
        <pt x="25" y="283" on="1"/>
        <pt x="132" y="340" on="1"/>
        <pt x="132" y="660" on="1"/>
        <pt x="239" y="660" on="1"/>
        <pt x="239" y="396" on="1"/>
        <pt x="414" y="489" on="1"/>
        <pt x="414" y="393" on="1"/>
        <pt x="239" y="300" on="1"/>
        <pt x="239" y="92" on="1"/>
      </contour>
    </TTGlyph>
    <TTGlyph name="Lslash.swsh" xMin="25" yMin="0" xMax="679" yMax="660">
      <contour>
        <pt x="588" y="362" on="0"/>
        <pt x="679" y="265" on="0"/>
        <pt x="679" y="187" on="1"/>
        <pt x="679" y="95" on="0"/>
        <pt x="564" y="0" on="0"/>
        <pt x="460" y="0" on="1"/>
        <pt x="132" y="0" on="1"/>
        <pt x="132" y="244" on="1"/>
        <pt x="25" y="187" on="1"/>
        <pt x="25" y="283" on="1"/>
        <pt x="132" y="340" on="1"/>
        <pt x="132" y="660" on="1"/>
        <pt x="239" y="660" on="1"/>
        <pt x="239" y="396" on="1"/>
        <pt x="414" y="489" on="1"/>
        <pt x="414" y="393" on="1"/>
        <pt x="239" y="300" on="1"/>
        <pt x="239" y="92" on="1"/>
        <pt x="446" y="92" on="1"/>
        <pt x="511" y="92" on="0"/>
        <pt x="579" y="137" on="0"/>
        <pt x="579" y="189" on="1"/>
        <pt x="579" y="236" on="0"/>
        <pt x="524" y="285" on="0"/>
        <pt x="475" y="287" on="1"/>
        <pt x="512" y="364" on="1"/>
      </contour>
    </TTGlyph>
    <TTGlyph name="M" xMin="98" yMin="0" xMax="773" yMax="660">
      <contour>
        <pt x="773" y="0" on="1"/>
        <pt x="675" y="0" on="1"/>
        <pt x="675" y="382" on="1"/>
        <pt x="682" y="564" on="1"/>
        <pt x="681" y="564" on="1"/>
        <pt x="480" y="0" on="1"/>
        <pt x="391" y="0" on="1"/>
        <pt x="190" y="564" on="1"/>
        <pt x="189" y="564" on="1"/>
        <pt x="197" y="382" on="1"/>
        <pt x="197" y="0" on="1"/>
        <pt x="98" y="0" on="1"/>
        <pt x="98" y="660" on="1"/>
        <pt x="257" y="660" on="1"/>
        <pt x="390" y="278" on="1"/>
        <pt x="436" y="121" on="1"/>
        <pt x="438" y="121" on="1"/>
        <pt x="485" y="278" on="1"/>
        <pt x="617" y="660" on="1"/>
        <pt x="773" y="660" on="1"/>
      </contour>
    </TTGlyph>
    <TTGlyph name="M.swsh" xMin="10" yMin="-110" xMax="1001" yMax="660">
      <contour>
        <pt x="1001" y="660" on="1"/>
        <pt x="1001" y="0" on="1"/>
        <pt x="902" y="0" on="1"/>
        <pt x="902" y="382" on="1"/>
        <pt x="910" y="564" on="1"/>
        <pt x="909" y="564" on="1"/>
        <pt x="708" y="0" on="1"/>
        <pt x="618" y="0" on="1"/>
        <pt x="418" y="564" on="1"/>
        <pt x="416" y="564" on="1"/>
        <pt x="424" y="382" on="1"/>
        <pt x="424" y="79" on="1"/>
        <pt x="424" y="-5" on="0"/>
        <pt x="317" y="-110" on="0"/>
        <pt x="221" y="-110" on="1"/>
        <pt x="72" y="-110" on="0"/>
        <pt x="41" y="12" on="1"/>
        <pt x="102" y="74" on="1"/>
        <pt x="113" y="22" on="0"/>
        <pt x="165" y="-24" on="0"/>
        <pt x="215" y="-24" on="1"/>
        <pt x="267" y="-24" on="0"/>
        <pt x="325" y="42" on="0"/>
        <pt x="325" y="96" on="1"/>
        <pt x="325" y="577" on="1"/>
        <pt x="243" y="577" on="1"/>
        <pt x="182" y="577" on="0"/>
        <pt x="112" y="523" on="0"/>
        <pt x="112" y="471" on="1"/>
        <pt x="112" y="430" on="0"/>
        <pt x="169" y="373" on="0"/>
        <pt x="216" y="365" on="1"/>
        <pt x="179" y="286" on="1"/>
        <pt x="107" y="295" on="0"/>
        <pt x="10" y="396" on="0"/>
        <pt x="10" y="473" on="1"/>
        <pt x="10" y="561" on="0"/>
        <pt x="127" y="660" on="0"/>
        <pt x="229" y="660" on="1"/>
        <pt x="485" y="660" on="1"/>
        <pt x="617" y="278" on="1"/>
        <pt x="664" y="121" on="1"/>
        <pt x="666" y="121" on="1"/>
        <pt x="713" y="278" on="1"/>
        <pt x="844" y="660" on="1"/>
      </contour>
    </TTGlyph>
    <TTGlyph name="M.swsh.001" xMin="10" yMin="0" xMax="1001" yMax="660">
      <contour>
        <pt x="1001" y="660" on="1"/>
        <pt x="1001" y="0" on="1"/>
        <pt x="903" y="0" on="1"/>
        <pt x="903" y="382" on="1"/>
        <pt x="910" y="564" on="1"/>
        <pt x="909" y="564" on="1"/>
        <pt x="708" y="0" on="1"/>
        <pt x="619" y="0" on="1"/>
        <pt x="418" y="564" on="1"/>
        <pt x="417" y="564" on="1"/>
        <pt x="425" y="382" on="1"/>
        <pt x="425" y="0" on="1"/>
        <pt x="326" y="0" on="1"/>
        <pt x="326" y="577" on="1"/>
        <pt x="243" y="577" on="1"/>
        <pt x="182" y="577" on="0"/>
        <pt x="112" y="523" on="0"/>
        <pt x="112" y="471" on="1"/>
        <pt x="112" y="430" on="0"/>
        <pt x="169" y="373" on="0"/>
        <pt x="216" y="365" on="1"/>
        <pt x="179" y="286" on="1"/>
        <pt x="107" y="295" on="0"/>
        <pt x="10" y="396" on="0"/>
        <pt x="10" y="473" on="1"/>
        <pt x="10" y="561" on="0"/>
        <pt x="127" y="660" on="0"/>
        <pt x="229" y="660" on="1"/>
        <pt x="485" y="660" on="1"/>
        <pt x="618" y="278" on="1"/>
        <pt x="664" y="121" on="1"/>
        <pt x="666" y="121" on="1"/>
        <pt x="713" y="278" on="1"/>
        <pt x="845" y="660" on="1"/>
      </contour>
    </TTGlyph>
    <TTGlyph name="N" xMin="98" yMin="0" xMax="639" yMax="660">
      <contour>
        <pt x="639" y="0" on="1"/>
        <pt x="512" y="0" on="1"/>
        <pt x="257" y="416" on="1"/>
        <pt x="193" y="538" on="1"/>
        <pt x="192" y="538" on="1"/>
        <pt x="196" y="426" on="1"/>
        <pt x="196" y="0" on="1"/>
        <pt x="98" y="0" on="1"/>
        <pt x="98" y="660" on="1"/>
        <pt x="224" y="660" on="1"/>
        <pt x="478" y="245" on="1"/>
        <pt x="543" y="122" on="1"/>
        <pt x="544" y="122" on="1"/>
        <pt x="540" y="234" on="1"/>
        <pt x="540" y="660" on="1"/>
        <pt x="639" y="660" on="1"/>
      </contour>
    </TTGlyph>
    <TTGlyph name="N.swsh" xMin="98" yMin="0" xMax="923" yMax="732">
      <contour>
        <pt x="820" y="732" on="0"/>
        <pt x="908" y="669" on="0"/>
        <pt x="923" y="612" on="1"/>
        <pt x="862" y="551" on="1"/>
        <pt x="851" y="602" on="0"/>
        <pt x="800" y="646" on="0"/>
        <pt x="750" y="646" on="1"/>
        <pt x="698" y="646" on="0"/>
        <pt x="639" y="578" on="0"/>
        <pt x="639" y="521" on="1"/>
        <pt x="639" y="0" on="1"/>
        <pt x="512" y="0" on="1"/>
        <pt x="257" y="416" on="1"/>
        <pt x="193" y="538" on="1"/>
        <pt x="192" y="538" on="1"/>
        <pt x="196" y="426" on="1"/>
        <pt x="196" y="0" on="1"/>
        <pt x="98" y="0" on="1"/>
        <pt x="98" y="660" on="1"/>
        <pt x="224" y="660" on="1"/>
        <pt x="478" y="245" on="1"/>
        <pt x="543" y="122" on="1"/>
        <pt x="544" y="122" on="1"/>
        <pt x="540" y="234" on="1"/>
        <pt x="540" y="543" on="1"/>
        <pt x="540" y="627" on="0"/>
        <pt x="648" y="732" on="0"/>
        <pt x="744" y="732" on="1"/>
      </contour>
    </TTGlyph>
    <TTGlyph name="Nacute" xMin="98" yMin="0" xMax="639" yMax="897">
      <component glyphName="N" x="0" y="0" flags="0x0"/>
      <component glyphName="acutecomb.cap" x="371" y="0" flags="0x0"/>
    </TTGlyph>
    <TTGlyph name="Nacute.swsh" xMin="98" yMin="0" xMax="923" yMax="897">
      <component glyphName="N.swsh" x="0" y="0" flags="0x0"/>
      <component glyphName="acutecomb.cap" x="371" y="0" flags="0x0"/>
    </TTGlyph>
    <TTGlyph name="Ncaron" xMin="98" yMin="0" xMax="639" yMax="897">
      <component glyphName="N" x="0" y="0" flags="0x0"/>
      <component glyphName="uni030C.cap" x="371" y="0" flags="0x0"/>
    </TTGlyph>
    <TTGlyph name="Ncaron.swsh" xMin="98" yMin="0" xMax="923" yMax="897">
      <component glyphName="N.swsh" x="0" y="0" flags="0x0"/>
      <component glyphName="uni030C.cap" x="371" y="0" flags="0x0"/>
    </TTGlyph>
    <TTGlyph name="Ncommaaccent.sc" xMin="87" yMin="-238" xMax="583" yMax="560">
      <component glyphName="n.sc" x="0" y="0" flags="0x0"/>
      <component glyphName="uni0326" x="442" y="0" flags="0x0"/>
    </TTGlyph>
    <TTGlyph name="Ncommaaccent.swsh" xMin="98" yMin="-238" xMax="923" yMax="732">
      <component glyphName="N.swsh" x="0" y="0" flags="0x0"/>
      <component glyphName="uni0326" x="483" y="0" flags="0x0"/>
    </TTGlyph>
    <TTGlyph name="Ntilde" xMin="98" yMin="0" xMax="639" yMax="877">
      <component glyphName="N" x="0" y="0" flags="0x0"/>
      <component glyphName="tilde" x="120" y="160" flags="0x4"/>
    </TTGlyph>
    <TTGlyph name="Ntilde.swsh" xMin="98" yMin="0" xMax="923" yMax="877">
      <component glyphName="N.swsh" x="0" y="0" flags="0x0"/>
      <component glyphName="tilde" x="120" y="160" flags="0x4"/>
    </TTGlyph>
    <TTGlyph name="O" xMin="61" yMin="-10" xMax="684" yMax="670">
      <contour>
        <pt x="467" y="670" on="0"/>
        <pt x="608" y="588" on="0"/>
        <pt x="684" y="434" on="0"/>
        <pt x="684" y="330" on="1"/>
        <pt x="684" y="226" on="0"/>
        <pt x="608" y="72" on="0"/>
        <pt x="467" y="-10" on="0"/>
        <pt x="372" y="-10" on="1"/>
        <pt x="277" y="-10" on="0"/>
        <pt x="137" y="72" on="0"/>
        <pt x="61" y="226" on="0"/>
        <pt x="61" y="330" on="1"/>
        <pt x="61" y="434" on="0"/>
        <pt x="137" y="588" on="0"/>
        <pt x="277" y="670" on="0"/>
        <pt x="372" y="670" on="1"/>
      </contour>
      <contour>
        <pt x="279" y="577" on="0"/>
        <pt x="173" y="447" on="0"/>
        <pt x="173" y="330" on="1"/>
        <pt x="173" y="213" on="0"/>
        <pt x="279" y="83" on="0"/>
        <pt x="372" y="83" on="1"/>
        <pt x="466" y="83" on="0"/>
        <pt x="572" y="213" on="0"/>
        <pt x="572" y="330" on="1"/>
        <pt x="572" y="447" on="0"/>
        <pt x="466" y="577" on="0"/>
        <pt x="372" y="577" on="1"/>
      </contour>
    </TTGlyph>
    <TTGlyph name="OE" xMin="61" yMin="-10" xMax="1025" yMax="670">
      <contour>
        <pt x="1025" y="92" on="1"/>
        <pt x="1025" y="0" on="1"/>
        <pt x="578" y="0" on="1"/>
        <pt x="578" y="91" on="1"/>
        <pt x="541" y="42" on="0"/>
        <pt x="433" y="-10" on="0"/>
        <pt x="367" y="-10" on="1"/>
        <pt x="273" y="-10" on="0"/>
        <pt x="135" y="72" on="0"/>
        <pt x="61" y="226" on="0"/>
        <pt x="61" y="330" on="1"/>
        <pt x="61" y="434" on="0"/>
        <pt x="135" y="588" on="0"/>
        <pt x="274" y="670" on="0"/>
        <pt x="370" y="670" on="1"/>
        <pt x="435" y="670" on="0"/>
        <pt x="542" y="619" on="0"/>
        <pt x="578" y="571" on="1"/>
        <pt x="578" y="660" on="1"/>
        <pt x="1010" y="660" on="1"/>
        <pt x="1010" y="568" on="1"/>
        <pt x="664" y="568" on="1"/>
        <pt x="664" y="378" on="1"/>
        <pt x="930" y="378" on="1"/>
        <pt x="930" y="288" on="1"/>
        <pt x="664" y="288" on="1"/>
        <pt x="664" y="92" on="1"/>
      </contour>
      <contour>
        <pt x="459" y="83" on="0"/>
        <pt x="562" y="214" on="0"/>
        <pt x="562" y="330" on="1"/>
        <pt x="562" y="446" on="0"/>
        <pt x="459" y="577" on="0"/>
        <pt x="372" y="577" on="1"/>
        <pt x="276" y="577" on="0"/>
        <pt x="172" y="448" on="0"/>
        <pt x="172" y="330" on="1"/>
        <pt x="172" y="212" on="0"/>
        <pt x="276" y="83" on="0"/>
        <pt x="372" y="83" on="1"/>
      </contour>
    </TTGlyph>
    <TTGlyph name="Oacute" xMin="61" yMin="-10" xMax="684" yMax="897">
      <component glyphName="O" x="0" y="0" flags="0x0"/>
      <component glyphName="acutecomb.cap" x="372" y="0" flags="0x0"/>
    </TTGlyph>
    <TTGlyph name="Ocircumflex" xMin="61" yMin="-10" xMax="684" yMax="894">
      <component glyphName="O" x="0" y="0" flags="0x0"/>
      <component glyphName="uni0302.cap" x="372" y="0" flags="0x0"/>
    </TTGlyph>
    <TTGlyph name="Odieresis" xMin="61" yMin="-10" xMax="684" yMax="860">
      <component glyphName="O" x="0" y="0" flags="0x0"/>
      <component glyphName="dieresis" x="120" y="160" flags="0x4"/>
    </TTGlyph>
    <TTGlyph name="Odieresis.titl" xMin="26" yMin="-10" xMax="719" yMax="670">
      <contour>
        <pt x="467" y="670" on="0"/>
        <pt x="608" y="588" on="0"/>
        <pt x="683" y="434" on="0"/>
        <pt x="683" y="330" on="1"/>
        <pt x="683" y="226" on="0"/>
        <pt x="608" y="72" on="0"/>
        <pt x="467" y="-10" on="0"/>
        <pt x="372" y="-10" on="1"/>
        <pt x="277" y="-10" on="0"/>
        <pt x="136" y="72" on="0"/>
        <pt x="61" y="226" on="0"/>
        <pt x="61" y="330" on="1"/>
        <pt x="61" y="434" on="0"/>
        <pt x="136" y="588" on="0"/>
        <pt x="277" y="670" on="0"/>
        <pt x="372" y="670" on="1"/>
      </contour>
      <contour>
        <pt x="109" y="662" on="0"/>
        <pt x="141" y="631" on="0"/>
        <pt x="141" y="606" on="1"/>
        <pt x="141" y="581" on="0"/>
        <pt x="109" y="550" on="0"/>
        <pt x="83" y="550" on="1"/>
        <pt x="58" y="550" on="0"/>
        <pt x="26" y="581" on="0"/>
        <pt x="26" y="606" on="1"/>
        <pt x="26" y="631" on="0"/>
        <pt x="57" y="662" on="0"/>
        <pt x="83" y="662" on="1"/>
      </contour>
      <contour>
        <pt x="688" y="662" on="0"/>
        <pt x="719" y="632" on="0"/>
        <pt x="719" y="607" on="1"/>
        <pt x="719" y="581" on="0"/>
        <pt x="688" y="550" on="0"/>
        <pt x="662" y="550" on="1"/>
        <pt x="636" y="550" on="0"/>
        <pt x="604" y="581" on="0"/>
        <pt x="604" y="607" on="1"/>
        <pt x="604" y="632" on="0"/>
        <pt x="636" y="662" on="0"/>
        <pt x="662" y="662" on="1"/>
      </contour>
      <contour>
        <pt x="279" y="577" on="0"/>
        <pt x="173" y="447" on="0"/>
        <pt x="173" y="330" on="1"/>
        <pt x="173" y="213" on="0"/>
        <pt x="279" y="83" on="0"/>
        <pt x="373" y="83" on="1"/>
        <pt x="466" y="83" on="0"/>
        <pt x="572" y="213" on="0"/>
        <pt x="572" y="330" on="1"/>
        <pt x="572" y="447" on="0"/>
        <pt x="466" y="577" on="0"/>
        <pt x="373" y="577" on="1"/>
      </contour>
    </TTGlyph>
    <TTGlyph name="Ograve" xMin="61" yMin="-10" xMax="684" yMax="897">
      <component glyphName="O" x="0" y="0" flags="0x0"/>
      <component glyphName="gravecomb.cap" x="364" y="0" flags="0x0"/>
    </TTGlyph>
    <TTGlyph name="Ohungarumlaut" xMin="61" yMin="-10" xMax="684" yMax="897">
      <component glyphName="O" x="0" y="0" flags="0x0"/>
      <component glyphName="acutecomb.cap" x="477" y="0" flags="0x0"/>
      <component glyphName="acutecomb.cap" x="286" y="0" flags="0x0"/>
    </TTGlyph>
    <TTGlyph name="Oinferior" xMin="32" yMin="-195" xMax="432" yMax="213">
      <component glyphName="Osuperior" x="0" y="-522" flags="0x4"/>
    </TTGlyph>
    <TTGlyph name="Omacron" xMin="61" yMin="-10" xMax="684" yMax="826">
      <component glyphName="O" x="0" y="0" flags="0x0"/>
      <component glyphName="macron" x="122" y="160" flags="0x4"/>
    </TTGlyph>
    <TTGlyph name="Oslash" xMin="61" yMin="-34" xMax="684" yMax="682">
      <contour>
        <pt x="638" y="540" on="0"/>
        <pt x="684" y="410" on="0"/>
        <pt x="684" y="330" on="1"/>
        <pt x="684" y="226" on="0"/>
        <pt x="608" y="72" on="0"/>
        <pt x="467" y="-10" on="0"/>
        <pt x="372" y="-10" on="1"/>
        <pt x="275" y="-10" on="0"/>
        <pt x="204" y="33" on="1"/>
        <pt x="156" y="-34" on="1"/>
        <pt x="81" y="-34" on="1"/>
        <pt x="155" y="71" on="1"/>
        <pt x="110" y="116" on="0"/>
        <pt x="61" y="248" on="0"/>
        <pt x="61" y="330" on="1"/>
        <pt x="61" y="434" on="0"/>
        <pt x="137" y="588" on="0"/>
        <pt x="277" y="670" on="0"/>
        <pt x="372" y="670" on="1"/>
        <pt x="474" y="670" on="0"/>
        <pt x="547" y="623" on="1"/>
        <pt x="589" y="682" on="1"/>
        <pt x="664" y="682" on="1"/>
        <pt x="595" y="584" on="1"/>
      </contour>
      <contour>
        <pt x="279" y="577" on="0"/>
        <pt x="173" y="447" on="0"/>
        <pt x="173" y="330" on="1"/>
        <pt x="173" y="221" on="0"/>
        <pt x="219" y="157" on="1"/>
        <pt x="488" y="542" on="1"/>
        <pt x="441" y="577" on="0"/>
        <pt x="372" y="577" on="1"/>
      </contour>
      <contour>
        <pt x="466" y="83" on="0"/>
        <pt x="572" y="213" on="0"/>
        <pt x="572" y="330" on="1"/>
        <pt x="572" y="432" on="0"/>
        <pt x="531" y="496" on="1"/>
        <pt x="264" y="113" on="1"/>
        <pt x="309" y="83" on="0"/>
        <pt x="372" y="83" on="1"/>
      </contour>
    </TTGlyph>
    <TTGlyph name="Osuperior" xMin="32" yMin="327" xMax="432" yMax="735">
      <contour>
        <pt x="326" y="735" on="0"/>
        <pt x="432" y="627" on="0"/>
        <pt x="432" y="531" on="1"/>
        <pt x="432" y="435" on="0"/>
        <pt x="326" y="327" on="0"/>
        <pt x="232" y="327" on="1"/>
        <pt x="139" y="327" on="0"/>
        <pt x="32" y="435" on="0"/>
        <pt x="32" y="531" on="1"/>
        <pt x="32" y="627" on="0"/>
        <pt x="139" y="735" on="0"/>
        <pt x="232" y="735" on="1"/>
      </contour>
      <contour>
        <pt x="178" y="669" on="0"/>
        <pt x="119" y="597" on="0"/>
        <pt x="119" y="531" on="1"/>
        <pt x="119" y="465" on="0"/>
        <pt x="178" y="393" on="0"/>
        <pt x="232" y="393" on="1"/>
        <pt x="286" y="393" on="0"/>
        <pt x="346" y="465" on="0"/>
        <pt x="346" y="531" on="1"/>
        <pt x="346" y="597" on="0"/>
        <pt x="286" y="669" on="0"/>
        <pt x="232" y="669" on="1"/>
      </contour>
    </TTGlyph>
    <TTGlyph name="Otilde" xMin="61" yMin="-10" xMax="684" yMax="877">
      <component glyphName="O" x="0" y="0" flags="0x0"/>
      <component glyphName="tilde" x="121" y="160" flags="0x4"/>
    </TTGlyph>
    <TTGlyph name="P" xMin="98" yMin="0" xMax="584" yMax="660">
      <contour>
        <pt x="459" y="660" on="0"/>
        <pt x="584" y="550" on="0"/>
        <pt x="584" y="454" on="1"/>
        <pt x="584" y="358" on="0"/>
        <pt x="459" y="249" on="0"/>
        <pt x="352" y="249" on="1"/>
        <pt x="205" y="249" on="1"/>
        <pt x="205" y="0" on="1"/>
        <pt x="98" y="0" on="1"/>
        <pt x="98" y="660" on="1"/>
        <pt x="352" y="660" on="1"/>
      </contour>
      <contour>
        <pt x="405" y="340" on="0"/>
        <pt x="473" y="397" on="0"/>
        <pt x="473" y="454" on="1"/>
        <pt x="473" y="569" on="0"/>
        <pt x="335" y="569" on="1"/>
        <pt x="205" y="569" on="1"/>
        <pt x="205" y="340" on="1"/>
        <pt x="335" y="340" on="1"/>
      </contour>
    </TTGlyph>
    <TTGlyph name="Q" xMin="61" yMin="-198" xMax="684" yMax="670">
      <contour>
        <pt x="570" y="-101" on="0"/>
        <pt x="632" y="-81" on="0"/>
        <pt x="651" y="-63" on="1"/>
        <pt x="682" y="-153" on="1"/>
        <pt x="658" y="-174" on="0"/>
        <pt x="573" y="-198" on="0"/>
        <pt x="529" y="-198" on="1"/>
        <pt x="441" y="-198" on="0"/>
        <pt x="332" y="-105" on="0"/>
        <pt x="330" y="-8" on="1"/>
        <pt x="204" y="6" on="0"/>
        <pt x="61" y="185" on="0"/>
        <pt x="61" y="330" on="1"/>
        <pt x="61" y="434" on="0"/>
        <pt x="137" y="588" on="0"/>
        <pt x="277" y="670" on="0"/>
        <pt x="372" y="670" on="1"/>
        <pt x="467" y="670" on="0"/>
        <pt x="608" y="588" on="0"/>
        <pt x="684" y="434" on="0"/>
        <pt x="684" y="330" on="1"/>
        <pt x="684" y="184" on="0"/>
        <pt x="539" y="5" on="0"/>
        <pt x="413" y="-8" on="1"/>
        <pt x="418" y="-61" on="0"/>
        <pt x="479" y="-101" on="0"/>
        <pt x="532" y="-101" on="1"/>
      </contour>
      <contour>
        <pt x="173" y="213" on="0"/>
        <pt x="279" y="83" on="0"/>
        <pt x="372" y="83" on="1"/>
        <pt x="466" y="83" on="0"/>
        <pt x="572" y="213" on="0"/>
        <pt x="572" y="330" on="1"/>
        <pt x="572" y="447" on="0"/>
        <pt x="466" y="577" on="0"/>
        <pt x="372" y="577" on="1"/>
        <pt x="279" y="577" on="0"/>
        <pt x="173" y="447" on="0"/>
        <pt x="173" y="330" on="1"/>
      </contour>
    </TTGlyph>
    <TTGlyph name="R" xMin="98" yMin="0" xMax="637" yMax="660">
      <contour>
        <pt x="346" y="264" on="1"/>
        <pt x="204" y="264" on="1"/>
        <pt x="204" y="0" on="1"/>
        <pt x="98" y="0" on="1"/>
        <pt x="98" y="660" on="1"/>
        <pt x="367" y="660" on="1"/>
        <pt x="474" y="660" on="0"/>
        <pt x="598" y="555" on="0"/>
        <pt x="598" y="462" on="1"/>
        <pt x="598" y="391" on="0"/>
        <pt x="525" y="295" on="0"/>
        <pt x="458" y="276" on="1"/>
        <pt x="637" y="0" on="1"/>
        <pt x="514" y="0" on="1"/>
      </contour>
      <contour>
        <pt x="204" y="353" on="1"/>
        <pt x="358" y="353" on="1"/>
        <pt x="423" y="353" on="0"/>
        <pt x="487" y="406" on="0"/>
        <pt x="487" y="461" on="1"/>
        <pt x="487" y="516" on="0"/>
        <pt x="423" y="569" on="0"/>
        <pt x="358" y="569" on="1"/>
        <pt x="204" y="569" on="1"/>
      </contour>
    </TTGlyph>
    <TTGlyph name="R.ss03" xMin="98" yMin="0" xMax="608" yMax="660">
      <contour>
        <pt x="98" y="660" on="1"/>
        <pt x="367" y="660" on="1"/>
        <pt x="474" y="660" on="0"/>
        <pt x="598" y="555" on="0"/>
        <pt x="598" y="464" on="1"/>
        <pt x="598" y="398" on="0"/>
        <pt x="528" y="313" on="0"/>
        <pt x="462" y="296" on="1"/>
        <pt x="462" y="294" on="1"/>
        <pt x="569" y="274" on="0"/>
        <pt x="575" y="166" on="1"/>
        <pt x="581" y="89" on="0"/>
        <pt x="595" y="24" on="0"/>
        <pt x="608" y="3" on="1"/>
        <pt x="608" y="0" on="1"/>
        <pt x="494" y="0" on="1"/>
        <pt x="485" y="20" on="0"/>
        <pt x="474" y="88" on="0"/>
        <pt x="469" y="155" on="1"/>
        <pt x="465" y="210" on="0"/>
        <pt x="398" y="264" on="0"/>
        <pt x="328" y="264" on="1"/>
        <pt x="204" y="264" on="1"/>
        <pt x="204" y="0" on="1"/>
        <pt x="98" y="0" on="1"/>
      </contour>
      <contour>
        <pt x="358" y="353" on="1"/>
        <pt x="423" y="353" on="0"/>
        <pt x="487" y="406" on="0"/>
        <pt x="487" y="461" on="1"/>
        <pt x="487" y="516" on="0"/>
        <pt x="423" y="569" on="0"/>
        <pt x="358" y="569" on="1"/>
        <pt x="204" y="569" on="1"/>
        <pt x="204" y="353" on="1"/>
      </contour>
    </TTGlyph>
    <TTGlyph name="R.swsh" xMin="10" yMin="-110" xMax="865" yMax="660">
      <contour>
        <pt x="574" y="264" on="1"/>
        <pt x="432" y="264" on="1"/>
        <pt x="432" y="81" on="1"/>
        <pt x="432" y="-4" on="0"/>
        <pt x="321" y="-110" on="0"/>
        <pt x="223" y="-110" on="1"/>
        <pt x="146" y="-110" on="0"/>
        <pt x="56" y="-46" on="0"/>
        <pt x="42" y="14" on="1"/>
        <pt x="104" y="74" on="1"/>
        <pt x="115" y="22" on="0"/>
        <pt x="167" y="-24" on="0"/>
        <pt x="217" y="-24" on="1"/>
        <pt x="267" y="-24" on="0"/>
        <pt x="325" y="43" on="0"/>
        <pt x="325" y="98" on="1"/>
        <pt x="325" y="577" on="1"/>
        <pt x="243" y="577" on="1"/>
        <pt x="182" y="577" on="0"/>
        <pt x="112" y="523" on="0"/>
        <pt x="112" y="471" on="1"/>
        <pt x="112" y="430" on="0"/>
        <pt x="169" y="373" on="0"/>
        <pt x="216" y="365" on="1"/>
        <pt x="180" y="286" on="1"/>
        <pt x="107" y="295" on="0"/>
        <pt x="10" y="396" on="0"/>
        <pt x="10" y="473" on="1"/>
        <pt x="10" y="561" on="0"/>
        <pt x="127" y="660" on="0"/>
        <pt x="230" y="660" on="1"/>
        <pt x="595" y="660" on="1"/>
        <pt x="701" y="660" on="0"/>
        <pt x="826" y="554" on="0"/>
        <pt x="826" y="462" on="1"/>
        <pt x="826" y="391" on="0"/>
        <pt x="752" y="295" on="0"/>
        <pt x="685" y="276" on="1"/>
        <pt x="865" y="0" on="1"/>
        <pt x="742" y="0" on="1"/>
      </contour>
      <contour>
        <pt x="432" y="353" on="1"/>
        <pt x="585" y="353" on="1"/>
        <pt x="651" y="353" on="0"/>
        <pt x="715" y="406" on="0"/>
        <pt x="715" y="461" on="1"/>
        <pt x="715" y="516" on="0"/>
        <pt x="651" y="569" on="0"/>
        <pt x="585" y="569" on="1"/>
        <pt x="432" y="569" on="1"/>
      </contour>
    </TTGlyph>
    <TTGlyph name="R.swsh.001" xMin="98" yMin="-89" xMax="702" yMax="660">
      <contour>
        <pt x="578" y="60" on="0"/>
        <pt x="666" y="-10" on="0"/>
        <pt x="702" y="-21" on="1"/>
        <pt x="644" y="-89" on="1"/>
        <pt x="570" y="-57" on="0"/>
        <pt x="497" y="6" on="0"/>
        <pt x="463" y="55" on="1"/>
        <pt x="317" y="264" on="1"/>
        <pt x="204" y="264" on="1"/>
        <pt x="204" y="0" on="1"/>
        <pt x="98" y="0" on="1"/>
        <pt x="98" y="660" on="1"/>
        <pt x="367" y="660" on="1"/>
        <pt x="474" y="660" on="0"/>
        <pt x="598" y="555" on="0"/>
        <pt x="598" y="462" on="1"/>
        <pt x="598" y="383" on="0"/>
        <pt x="508" y="283" on="0"/>
        <pt x="427" y="269" on="1"/>
        <pt x="550" y="98" on="1"/>
      </contour>
      <contour>
        <pt x="204" y="353" on="1"/>
        <pt x="358" y="353" on="1"/>
        <pt x="423" y="353" on="0"/>
        <pt x="487" y="406" on="0"/>
        <pt x="487" y="461" on="1"/>
        <pt x="487" y="516" on="0"/>
        <pt x="423" y="569" on="0"/>
        <pt x="358" y="569" on="1"/>
        <pt x="204" y="569" on="1"/>
      </contour>
    </TTGlyph>
    <TTGlyph name="Racute" xMin="98" yMin="0" xMax="637" yMax="897">
      <component glyphName="R" x="0" y="0" flags="0x0"/>
      <component glyphName="acutecomb.cap" x="324" y="0" flags="0x0"/>
    </TTGlyph>
    <TTGlyph name="Racute.ss03" xMin="98" yMin="0" xMax="608" yMax="897">
      <component glyphName="R.ss03" x="0" y="0" flags="0x0"/>
      <component glyphName="acutecomb.cap" x="324" y="0" flags="0x0"/>
    </TTGlyph>
    <TTGlyph name="Racute.swsh" xMin="10" yMin="-110" xMax="865" yMax="897">
      <component glyphName="R.swsh" x="0" y="0" flags="0x0"/>
      <component glyphName="acutecomb.cap" x="552" y="0" flags="0x0"/>
    </TTGlyph>
    <TTGlyph name="Racute.swsh.001" xMin="98" yMin="-89" xMax="702" yMax="897">
      <component glyphName="R.swsh.001" x="0" y="0" flags="0x0"/>
      <component glyphName="acutecomb.cap" x="324" y="0" flags="0x0"/>
    </TTGlyph>
    <TTGlyph name="Rcaron" xMin="98" yMin="0" xMax="637" yMax="897">
      <component glyphName="R" x="0" y="0" flags="0x0"/>
      <component glyphName="uni030C.cap" x="324" y="0" flags="0x0"/>
    </TTGlyph>
    <TTGlyph name="Rcaron.ss03" xMin="98" yMin="0" xMax="608" yMax="897">
      <component glyphName="R.ss03" x="0" y="0" flags="0x0"/>
      <component glyphName="uni030C.cap" x="324" y="0" flags="0x0"/>
    </TTGlyph>
    <TTGlyph name="Rcaron.swsh" xMin="10" yMin="-110" xMax="865" yMax="897">
      <component glyphName="R.swsh" x="0" y="0" flags="0x0"/>
      <component glyphName="uni030C.cap" x="552" y="0" flags="0x0"/>
    </TTGlyph>
    <TTGlyph name="Rcaron.swsh.001" xMin="98" yMin="-89" xMax="702" yMax="897">
      <component glyphName="R.swsh.001" x="0" y="0" flags="0x0"/>
      <component glyphName="uni030C.cap" x="324" y="0" flags="0x0"/>
    </TTGlyph>
    <TTGlyph name="Rcommaaccent.sc" xMin="87" yMin="-238" xMax="577" yMax="560">
      <component glyphName="r.sc" x="0" y="0" flags="0x0"/>
      <component glyphName="uni0326" x="420" y="0" flags="0x0"/>
    </TTGlyph>
    <TTGlyph name="Rcommaaccent.sc.ss03" xMin="87" yMin="-238" xMax="554" yMax="560">
      <component glyphName="r.sc.ss03" x="0" y="0" flags="0x0"/>
      <component glyphName="uni0326" x="418" y="0" flags="0x0"/>
    </TTGlyph>
    <TTGlyph name="Rcommaaccent.ss03" xMin="98" yMin="-238" xMax="608" yMax="660">
      <component glyphName="R.ss03" x="0" y="0" flags="0x0"/>
      <component glyphName="uni0326" x="454" y="0" flags="0x0"/>
    </TTGlyph>
    <TTGlyph name="Rcommaaccent.swsh" xMin="10" yMin="-238" xMax="865" yMax="660">
      <component glyphName="R.swsh" x="0" y="0" flags="0x0"/>
      <component glyphName="uni0326" x="682" y="0" flags="0x0"/>
    </TTGlyph>
    <TTGlyph name="Rcommaaccent.swsh.001" xMin="98" yMin="-238" xMax="702" yMax="660">
      <component glyphName="R.swsh.001" x="0" y="0" flags="0x0"/>
      <component glyphName="uni0326" x="454" y="0" flags="0x0"/>
    </TTGlyph>
    <TTGlyph name="S" xMin="43" yMin="-10" xMax="590" yMax="670">
      <contour>
        <pt x="414" y="670" on="0"/>
        <pt x="543" y="604" on="0"/>
        <pt x="587" y="536" on="1"/>
        <pt x="506" y="463" on="1"/>
        <pt x="478" y="523" on="0"/>
        <pt x="394" y="577" on="0"/>
        <pt x="324" y="577" on="1"/>
        <pt x="255" y="577" on="0"/>
        <pt x="179" y="522" on="0"/>
        <pt x="179" y="479" on="1"/>
        <pt x="179" y="439" on="0"/>
        <pt x="253" y="392" on="0"/>
        <pt x="348" y="375" on="1"/>
        <pt x="437" y="359" on="0"/>
        <pt x="542" y="310" on="0"/>
        <pt x="590" y="237" on="0"/>
        <pt x="590" y="183" on="1"/>
        <pt x="590" y="125" on="0"/>
        <pt x="524" y="37" on="0"/>
        <pt x="405" y="-10" on="0"/>
        <pt x="327" y="-10" on="1"/>
        <pt x="126" y="-10" on="0"/>
        <pt x="43" y="124" on="1"/>
        <pt x="118" y="199" on="1"/>
        <pt x="150" y="139" on="0"/>
        <pt x="251" y="83" on="0"/>
        <pt x="326" y="83" on="1"/>
        <pt x="397" y="83" on="0"/>
        <pt x="478" y="132" on="0"/>
        <pt x="478" y="177" on="1"/>
        <pt x="478" y="213" on="0"/>
        <pt x="405" y="257" on="0"/>
        <pt x="314" y="274" on="1"/>
        <pt x="223" y="291" on="0"/>
        <pt x="115" y="341" on="0"/>
        <pt x="66" y="415" on="0"/>
        <pt x="66" y="468" on="1"/>
        <pt x="66" y="524" on="0"/>
        <pt x="128" y="616" on="0"/>
        <pt x="245" y="670" on="0"/>
        <pt x="323" y="670" on="1"/>
      </contour>
    </TTGlyph>
    <TTGlyph name="S.swsh" xMin="58" yMin="-110" xMax="593" yMax="670">
      <contour>
        <pt x="196" y="-110" on="0"/>
        <pt x="58" y="-14" on="0"/>
        <pt x="58" y="73" on="1"/>
        <pt x="58" y="96" on="0"/>
        <pt x="61" y="115" on="1"/>
        <pt x="159" y="143" on="1"/>
        <pt x="155" y="113" on="0"/>
        <pt x="155" y="103" on="1"/>
        <pt x="155" y="42" on="0"/>
        <pt x="240" y="-17" on="0"/>
        <pt x="328" y="-17" on="1"/>
        <pt x="406" y="-17" on="0"/>
        <pt x="486" y="46" on="0"/>
        <pt x="486" y="106" on="1"/>
        <pt x="486" y="151" on="0"/>
        <pt x="410" y="208" on="0"/>
        <pt x="312" y="232" on="1"/>
        <pt x="181" y="263" on="0"/>
        <pt x="70" y="363" on="0"/>
        <pt x="70" y="447" on="1"/>
        <pt x="70" y="514" on="0"/>
        <pt x="133" y="615" on="0"/>
        <pt x="252" y="670" on="0"/>
        <pt x="331" y="670" on="1"/>
        <pt x="446" y="670" on="0"/>
        <pt x="572" y="574" on="0"/>
        <pt x="580" y="479" on="1"/>
        <pt x="479" y="439" on="1"/>
        <pt x="477" y="511" on="0"/>
        <pt x="407" y="577" on="0"/>
        <pt x="331" y="577" on="1"/>
        <pt x="260" y="577" on="0"/>
        <pt x="182" y="513" on="0"/>
        <pt x="182" y="454" on="1"/>
        <pt x="182" y="421" on="0"/>
        <pt x="215" y="374" on="0"/>
        <pt x="293" y="337" on="0"/>
        <pt x="361" y="319" on="1"/>
        <pt x="448" y="297" on="0"/>
        <pt x="548" y="242" on="0"/>
        <pt x="593" y="166" on="0"/>
        <pt x="593" y="111" on="1"/>
        <pt x="593" y="44" on="0"/>
        <pt x="526" y="-56" on="0"/>
        <pt x="403" y="-110" on="0"/>
        <pt x="322" y="-110" on="1"/>
      </contour>
    </TTGlyph>
    <TTGlyph name="Sacute" xMin="43" yMin="-10" xMax="590" yMax="897">
      <component glyphName="S" x="0" y="0" flags="0x0"/>
      <component glyphName="acutecomb.cap" x="327" y="0" flags="0x0"/>
    </TTGlyph>
    <TTGlyph name="Sacute.swsh" xMin="58" yMin="-110" xMax="593" yMax="897">
      <component glyphName="S.swsh" x="0" y="0" flags="0x0"/>
      <component glyphName="acutecomb.cap" x="327" y="0" flags="0x0"/>
    </TTGlyph>
    <TTGlyph name="Scaron" xMin="43" yMin="-10" xMax="590" yMax="897">
      <component glyphName="S" x="0" y="0" flags="0x0"/>
      <component glyphName="uni030C.cap" x="327" y="0" flags="0x0"/>
    </TTGlyph>
    <TTGlyph name="Scaron.swsh" xMin="58" yMin="-110" xMax="593" yMax="897">
      <component glyphName="S.swsh" x="0" y="0" flags="0x0"/>
      <component glyphName="uni030C.cap" x="327" y="0" flags="0x0"/>
    </TTGlyph>
    <TTGlyph name="Scedilla.sc" xMin="35" yMin="-215" xMax="530" yMax="568">
      <contour>
        <pt x="530" y="94" on="0"/>
        <pt x="435" y="8" on="0"/>
        <pt x="353" y="-4" on="1"/>
        <pt x="381" y="-24" on="0"/>
        <pt x="411" y="-77" on="0"/>
        <pt x="411" y="-105" on="1"/>
        <pt x="411" y="-153" on="0"/>
        <pt x="343" y="-215" on="0"/>
        <pt x="287" y="-215" on="1"/>
        <pt x="248" y="-215" on="0"/>
        <pt x="193" y="-197" on="0"/>
        <pt x="172" y="-178" on="1"/>
        <pt x="205" y="-116" on="1"/>
        <pt x="218" y="-129" on="0"/>
        <pt x="254" y="-146" on="0"/>
        <pt x="275" y="-146" on="1"/>
        <pt x="299" y="-146" on="0"/>
        <pt x="331" y="-115" on="0"/>
        <pt x="331" y="-90" on="1"/>
        <pt x="331" y="-63" on="0"/>
        <pt x="298" y="-26" on="0"/>
        <pt x="254" y="-7" on="1"/>
        <pt x="106" y="4" on="0"/>
        <pt x="35" y="101" on="1"/>
        <pt x="100" y="177" on="1"/>
        <pt x="128" y="127" on="0"/>
        <pt x="221" y="79" on="0"/>
        <pt x="290" y="79" on="1"/>
        <pt x="351" y="79" on="0"/>
        <pt x="421" y="116" on="0"/>
        <pt x="421" y="152" on="1"/>
        <pt x="421" y="186" on="0"/>
        <pt x="352" y="216" on="0"/>
        <pt x="279" y="228" on="1"/>
        <pt x="208" y="240" on="0"/>
        <pt x="118" y="269" on="0"/>
        <pt x="53" y="336" on="0"/>
        <pt x="53" y="395" on="1"/>
        <pt x="53" y="444" on="0"/>
        <pt x="110" y="523" on="0"/>
        <pt x="217" y="568" on="0"/>
        <pt x="288" y="568" on="1"/>
        <pt x="372" y="568" on="0"/>
        <pt x="486" y="515" on="0"/>
        <pt x="527" y="460" on="1"/>
        <pt x="460" y="387" on="1"/>
        <pt x="431" y="438" on="0"/>
        <pt x="353" y="481" on="0"/>
        <pt x="290" y="481" on="1"/>
        <pt x="230" y="481" on="0"/>
        <pt x="162" y="438" on="0"/>
        <pt x="162" y="404" on="1"/>
        <pt x="162" y="380" on="0"/>
        <pt x="199" y="350" on="0"/>
        <pt x="256" y="335" on="0"/>
        <pt x="306" y="326" on="1"/>
        <pt x="377" y="313" on="0"/>
        <pt x="466" y="284" on="0"/>
        <pt x="530" y="217" on="0"/>
        <pt x="530" y="159" on="1"/>
      </contour>
    </TTGlyph>
    <TTGlyph name="Scedilla.swsh" xMin="58" yMin="-315" xMax="593" yMax="670">
      <contour>
        <pt x="593" y="20" on="0"/>
        <pt x="472" y="-96" on="0"/>
        <pt x="369" y="-108" on="1"/>
        <pt x="395" y="-127" on="0"/>
        <pt x="422" y="-178" on="0"/>
        <pt x="422" y="-205" on="1"/>
        <pt x="422" y="-253" on="0"/>
        <pt x="354" y="-315" on="0"/>
        <pt x="298" y="-315" on="1"/>
        <pt x="259" y="-315" on="0"/>
        <pt x="204" y="-297" on="0"/>
        <pt x="183" y="-278" on="1"/>
        <pt x="216" y="-216" on="1"/>
        <pt x="229" y="-229" on="0"/>
        <pt x="265" y="-246" on="0"/>
        <pt x="286" y="-246" on="1"/>
        <pt x="310" y="-246" on="0"/>
        <pt x="342" y="-215" on="0"/>
        <pt x="342" y="-190" on="1"/>
        <pt x="342" y="-163" on="0"/>
        <pt x="309" y="-126" on="0"/>
        <pt x="266" y="-107" on="1"/>
        <pt x="166" y="-97" on="0"/>
        <pt x="58" y="-4" on="0"/>
        <pt x="58" y="73" on="1"/>
        <pt x="58" y="96" on="0"/>
        <pt x="61" y="115" on="1"/>
        <pt x="159" y="143" on="1"/>
        <pt x="155" y="113" on="0"/>
        <pt x="155" y="103" on="1"/>
        <pt x="155" y="42" on="0"/>
        <pt x="240" y="-17" on="0"/>
        <pt x="328" y="-17" on="1"/>
        <pt x="406" y="-17" on="0"/>
        <pt x="486" y="46" on="0"/>
        <pt x="486" y="106" on="1"/>
        <pt x="486" y="151" on="0"/>
        <pt x="410" y="208" on="0"/>
        <pt x="312" y="232" on="1"/>
        <pt x="181" y="263" on="0"/>
        <pt x="70" y="363" on="0"/>
        <pt x="70" y="447" on="1"/>
        <pt x="70" y="514" on="0"/>
        <pt x="133" y="615" on="0"/>
        <pt x="252" y="670" on="0"/>
        <pt x="331" y="670" on="1"/>
        <pt x="446" y="670" on="0"/>
        <pt x="572" y="574" on="0"/>
        <pt x="580" y="479" on="1"/>
        <pt x="479" y="439" on="1"/>
        <pt x="477" y="511" on="0"/>
        <pt x="407" y="577" on="0"/>
        <pt x="331" y="577" on="1"/>
        <pt x="260" y="577" on="0"/>
        <pt x="182" y="513" on="0"/>
        <pt x="182" y="454" on="1"/>
        <pt x="182" y="421" on="0"/>
        <pt x="215" y="374" on="0"/>
        <pt x="293" y="337" on="0"/>
        <pt x="361" y="319" on="1"/>
        <pt x="448" y="297" on="0"/>
        <pt x="548" y="242" on="0"/>
        <pt x="593" y="166" on="0"/>
        <pt x="593" y="111" on="1"/>
      </contour>
    </TTGlyph>
    <TTGlyph name="Scommaaccent.sc" xMin="35" yMin="-238" xMax="530" yMax="568">
      <component glyphName="s.sc" x="0" y="0" flags="0x0"/>
      <component glyphName="uni0326" x="404" y="0" flags="0x0"/>
    </TTGlyph>
    <TTGlyph name="Scommaaccent.swsh" xMin="58" yMin="-338" xMax="593" yMax="670">
      <component glyphName="S.swsh" x="0" y="0" flags="0x0"/>
      <component glyphName="uni0326" x="420" y="-100" flags="0x4"/>
    </TTGlyph>
    <TTGlyph name="T" xMin="30" yMin="0" xMax="589" yMax="660">
      <contour>
        <pt x="589" y="568" on="1"/>
        <pt x="363" y="568" on="1"/>
        <pt x="363" y="0" on="1"/>
        <pt x="256" y="0" on="1"/>
        <pt x="256" y="568" on="1"/>
        <pt x="30" y="568" on="1"/>
        <pt x="30" y="660" on="1"/>
        <pt x="589" y="660" on="1"/>
      </contour>
    </TTGlyph>
    <TTGlyph name="T.swsh" xMin="10" yMin="0" xMax="704" yMax="660">
      <contour>
        <pt x="704" y="568" on="1"/>
        <pt x="478" y="568" on="1"/>
        <pt x="478" y="0" on="1"/>
        <pt x="370" y="0" on="1"/>
        <pt x="370" y="568" on="1"/>
        <pt x="245" y="568" on="1"/>
        <pt x="112" y="568" on="0"/>
        <pt x="112" y="471" on="1"/>
        <pt x="112" y="429" on="0"/>
        <pt x="168" y="373" on="0"/>
        <pt x="216" y="365" on="1"/>
        <pt x="179" y="286" on="1"/>
        <pt x="107" y="295" on="0"/>
        <pt x="10" y="397" on="0"/>
        <pt x="10" y="473" on="1"/>
        <pt x="10" y="561" on="0"/>
        <pt x="127" y="660" on="0"/>
        <pt x="229" y="660" on="1"/>
        <pt x="704" y="660" on="1"/>
      </contour>
    </TTGlyph>
    <TTGlyph name="Tcaron" xMin="30" yMin="0" xMax="589" yMax="897">
      <component glyphName="T" x="0" y="0" flags="0x0"/>
      <component glyphName="uni030C.cap" x="309" y="0" flags="0x0"/>
    </TTGlyph>
    <TTGlyph name="Tcaron.swsh" xMin="10" yMin="0" xMax="704" yMax="897">
      <component glyphName="T.swsh" x="0" y="0" flags="0x0"/>
      <component glyphName="uni030C.cap" x="424" y="0" flags="0x0"/>
    </TTGlyph>
    <TTGlyph name="Thorn" xMin="98" yMin="0" xMax="589" yMax="660">
      <contour>
        <pt x="462" y="547" on="0"/>
        <pt x="589" y="439" on="0"/>
        <pt x="589" y="337" on="1"/>
        <pt x="589" y="235" on="0"/>
        <pt x="462" y="127" on="0"/>
        <pt x="339" y="127" on="1"/>
        <pt x="205" y="127" on="1"/>
        <pt x="205" y="0" on="1"/>
        <pt x="98" y="0" on="1"/>
        <pt x="98" y="660" on="1"/>
        <pt x="205" y="660" on="1"/>
        <pt x="205" y="547" on="1"/>
        <pt x="339" y="547" on="1"/>
      </contour>
      <contour>
        <pt x="409" y="218" on="0"/>
        <pt x="479" y="277" on="0"/>
        <pt x="478" y="337" on="1"/>
        <pt x="479" y="397" on="0"/>
        <pt x="409" y="456" on="0"/>
        <pt x="338" y="456" on="1"/>
        <pt x="205" y="456" on="1"/>
        <pt x="205" y="218" on="1"/>
        <pt x="338" y="218" on="1"/>
      </contour>
    </TTGlyph>
    <TTGlyph name="U" xMin="89" yMin="-10" xMax="629" yMax="660">
      <contour>
        <pt x="629" y="253" on="1"/>
        <pt x="629" y="123" on="0"/>
        <pt x="491" y="-10" on="0"/>
        <pt x="359" y="-10" on="1"/>
        <pt x="227" y="-10" on="0"/>
        <pt x="89" y="123" on="0"/>
        <pt x="89" y="253" on="1"/>
        <pt x="89" y="660" on="1"/>
        <pt x="197" y="660" on="1"/>
        <pt x="197" y="266" on="1"/>
        <pt x="197" y="172" on="0"/>
        <pt x="276" y="83" on="0"/>
        <pt x="359" y="83" on="1"/>
        <pt x="442" y="83" on="0"/>
        <pt x="521" y="172" on="0"/>
        <pt x="521" y="266" on="1"/>
        <pt x="521" y="660" on="1"/>
        <pt x="629" y="660" on="1"/>
      </contour>
    </TTGlyph>
    <TTGlyph name="Uacute" xMin="89" yMin="-10" xMax="629" yMax="897">
      <component glyphName="U" x="0" y="0" flags="0x0"/>
      <component glyphName="acutecomb.cap" x="359" y="0" flags="0x0"/>
    </TTGlyph>
    <TTGlyph name="Ucircumflex" xMin="89" yMin="-10" xMax="629" yMax="894">
      <component glyphName="U" x="0" y="0" flags="0x0"/>
      <component glyphName="uni0302.cap" x="359" y="0" flags="0x0"/>
    </TTGlyph>
    <TTGlyph name="Udieresis" xMin="89" yMin="-10" xMax="629" yMax="860">
      <component glyphName="U" x="0" y="0" flags="0x0"/>
      <component glyphName="dieresis" x="107" y="160" flags="0x4"/>
    </TTGlyph>
    <TTGlyph name="Udieresis.titl" xMin="89" yMin="-10" xMax="629" yMax="662">
      <contour>
        <pt x="259" y="550" on="0"/>
        <pt x="227" y="582" on="0"/>
        <pt x="227" y="607" on="1"/>
        <pt x="227" y="632" on="0"/>
        <pt x="258" y="662" on="0"/>
        <pt x="284" y="662" on="1"/>
        <pt x="310" y="662" on="0"/>
        <pt x="342" y="632" on="0"/>
        <pt x="342" y="607" on="1"/>
        <pt x="342" y="581" on="0"/>
        <pt x="310" y="550" on="0"/>
        <pt x="284" y="550" on="1"/>
      </contour>
      <contour>
        <pt x="409" y="550" on="0"/>
        <pt x="377" y="582" on="0"/>
        <pt x="377" y="607" on="1"/>
        <pt x="377" y="632" on="0"/>
        <pt x="408" y="662" on="0"/>
        <pt x="434" y="662" on="1"/>
        <pt x="460" y="662" on="0"/>
        <pt x="492" y="632" on="0"/>
        <pt x="492" y="607" on="1"/>
        <pt x="492" y="581" on="0"/>
        <pt x="460" y="550" on="0"/>
        <pt x="434" y="550" on="1"/>
      </contour>
      <contour>
        <pt x="629" y="253" on="1"/>
        <pt x="629" y="123" on="0"/>
        <pt x="491" y="-10" on="0"/>
        <pt x="359" y="-10" on="1"/>
        <pt x="227" y="-10" on="0"/>
        <pt x="89" y="123" on="0"/>
        <pt x="89" y="253" on="1"/>
        <pt x="89" y="660" on="1"/>
        <pt x="197" y="660" on="1"/>
        <pt x="197" y="266" on="1"/>
        <pt x="197" y="172" on="0"/>
        <pt x="276" y="83" on="0"/>
        <pt x="359" y="83" on="1"/>
        <pt x="442" y="83" on="0"/>
        <pt x="521" y="172" on="0"/>
        <pt x="521" y="266" on="1"/>
        <pt x="521" y="660" on="1"/>
        <pt x="629" y="660" on="1"/>
      </contour>
    </TTGlyph>
    <TTGlyph name="Ugrave" xMin="89" yMin="-10" xMax="629" yMax="897">
      <component glyphName="U" x="0" y="0" flags="0x0"/>
      <component glyphName="gravecomb.cap" x="371" y="0" flags="0x0"/>
    </TTGlyph>
    <TTGlyph name="Uhungarumlaut" xMin="89" yMin="-10" xMax="629" yMax="897">
      <component glyphName="U" x="0" y="0" flags="0x0"/>
      <component glyphName="acutecomb.cap" x="461" y="0" flags="0x0"/>
      <component glyphName="acutecomb.cap" x="270" y="0" flags="0x0"/>
    </TTGlyph>
    <TTGlyph name="Umacron" xMin="89" yMin="-10" xMax="629" yMax="826">
      <component glyphName="U" x="0" y="0" flags="0x0"/>
      <component glyphName="macron" x="109" y="160" flags="0x4"/>
    </TTGlyph>
    <TTGlyph name="Uogonek" xMin="89" yMin="-215" xMax="629" yMax="660">
      <contour>
        <pt x="629" y="660" on="1"/>
        <pt x="629" y="253" on="1"/>
        <pt x="629" y="146" on="0"/>
        <pt x="536" y="18" on="0"/>
        <pt x="445" y="-2" on="1"/>
        <pt x="354" y="-45" on="0"/>
        <pt x="354" y="-96" on="1"/>
        <pt x="354" y="-120" on="0"/>
        <pt x="387" y="-146" on="0"/>
        <pt x="415" y="-146" on="1"/>
        <pt x="450" y="-146" on="0"/>
        <pt x="468" y="-135" on="1"/>
        <pt x="486" y="-196" on="1"/>
        <pt x="454" y="-215" on="0"/>
        <pt x="398" y="-215" on="1"/>
        <pt x="342" y="-215" on="0"/>
        <pt x="273" y="-159" on="0"/>
        <pt x="273" y="-112" on="1"/>
        <pt x="273" y="-49" on="0"/>
        <pt x="329" y="-9" on="1"/>
        <pt x="211" y="-2" on="0"/>
        <pt x="89" y="130" on="0"/>
        <pt x="89" y="253" on="1"/>
        <pt x="89" y="660" on="1"/>
        <pt x="197" y="660" on="1"/>
        <pt x="197" y="266" on="1"/>
        <pt x="197" y="172" on="0"/>
        <pt x="276" y="83" on="0"/>
        <pt x="359" y="83" on="1"/>
        <pt x="442" y="83" on="0"/>
        <pt x="521" y="172" on="0"/>
        <pt x="521" y="266" on="1"/>
        <pt x="521" y="660" on="1"/>
      </contour>
    </TTGlyph>
    <TTGlyph name="Uring" xMin="89" yMin="-10" xMax="629" yMax="894">
      <component glyphName="U" x="0" y="0" flags="0x0"/>
      <component glyphName="ring" x="109" y="88" flags="0x4"/>
    </TTGlyph>
    <TTGlyph name="V" xMin="22" yMin="0" xMax="637" yMax="660">
      <contour>
        <pt x="392" y="0" on="1"/>
        <pt x="267" y="0" on="1"/>
        <pt x="22" y="660" on="1"/>
        <pt x="136" y="660" on="1"/>
        <pt x="290" y="221" on="1"/>
        <pt x="330" y="90" on="1"/>
        <pt x="370" y="220" on="1"/>
        <pt x="524" y="660" on="1"/>
        <pt x="637" y="660" on="1"/>
      </contour>
    </TTGlyph>
    <TTGlyph name="W" xMin="28" yMin="0" xMax="944" yMax="660">
      <contour>
        <pt x="349" y="0" on="1"/>
        <pt x="222" y="0" on="1"/>
        <pt x="28" y="660" on="1"/>
        <pt x="144" y="660" on="1"/>
        <pt x="288" y="85" on="1"/>
        <pt x="433" y="660" on="1"/>
        <pt x="543" y="660" on="1"/>
        <pt x="689" y="84" on="1"/>
        <pt x="834" y="660" on="1"/>
        <pt x="944" y="660" on="1"/>
        <pt x="751" y="0" on="1"/>
        <pt x="625" y="0" on="1"/>
        <pt x="520" y="396" on="1"/>
        <pt x="487" y="548" on="1"/>
        <pt x="486" y="548" on="1"/>
        <pt x="453" y="396" on="1"/>
      </contour>
    </TTGlyph>
    <TTGlyph name="W.swsh" xMin="10" yMin="0" xMax="1211" yMax="660">
      <contour>
        <pt x="1211" y="660" on="1"/>
        <pt x="1018" y="0" on="1"/>
        <pt x="892" y="0" on="1"/>
        <pt x="787" y="396" on="1"/>
        <pt x="754" y="548" on="1"/>
        <pt x="753" y="548" on="1"/>
        <pt x="720" y="396" on="1"/>
        <pt x="616" y="0" on="1"/>
        <pt x="489" y="0" on="1"/>
        <pt x="319" y="577" on="1"/>
        <pt x="244" y="577" on="1"/>
        <pt x="182" y="577" on="0"/>
        <pt x="112" y="523" on="0"/>
        <pt x="112" y="471" on="1"/>
        <pt x="112" y="429" on="0"/>
        <pt x="169" y="373" on="0"/>
        <pt x="217" y="365" on="1"/>
        <pt x="179" y="286" on="1"/>
        <pt x="133" y="291" on="0"/>
        <pt x="55" y="340" on="0"/>
        <pt x="10" y="422" on="0"/>
        <pt x="10" y="473" on="1"/>
        <pt x="10" y="561" on="0"/>
        <pt x="127" y="660" on="0"/>
        <pt x="229" y="660" on="1"/>
        <pt x="411" y="660" on="1"/>
        <pt x="555" y="85" on="1"/>
        <pt x="700" y="660" on="1"/>
        <pt x="810" y="660" on="1"/>
        <pt x="956" y="84" on="1"/>
        <pt x="1101" y="660" on="1"/>
      </contour>
    </TTGlyph>
    <TTGlyph name="X" xMin="21" yMin="0" xMax="595" yMax="660">
      <contour>
        <pt x="468" y="0" on="1"/>
        <pt x="306" y="257" on="1"/>
        <pt x="144" y="0" on="1"/>
        <pt x="21" y="0" on="1"/>
        <pt x="250" y="335" on="1"/>
        <pt x="39" y="660" on="1"/>
        <pt x="166" y="660" on="1"/>
        <pt x="318" y="414" on="1"/>
        <pt x="470" y="660" on="1"/>
        <pt x="586" y="660" on="1"/>
        <pt x="373" y="339" on="1"/>
        <pt x="595" y="0" on="1"/>
      </contour>
    </TTGlyph>
    <TTGlyph name="Y" xMin="10" yMin="0" xMax="588" yMax="660">
      <contour>
        <pt x="352" y="253" on="1"/>
        <pt x="352" y="0" on="1"/>
        <pt x="245" y="0" on="1"/>
        <pt x="245" y="253" on="1"/>
        <pt x="10" y="660" on="1"/>
        <pt x="129" y="660" on="1"/>
        <pt x="247" y="448" on="1"/>
        <pt x="299" y="349" on="1"/>
        <pt x="351" y="448" on="1"/>
        <pt x="468" y="660" on="1"/>
        <pt x="588" y="660" on="1"/>
      </contour>
    </TTGlyph>
    <TTGlyph name="Yacute" xMin="10" yMin="0" xMax="588" yMax="897">
      <component glyphName="Y" x="0" y="0" flags="0x0"/>
      <component glyphName="acutecomb.cap" x="299" y="0" flags="0x0"/>
    </TTGlyph>
    <TTGlyph name="Ydieresis" xMin="10" yMin="0" xMax="588" yMax="860">
      <component glyphName="Y" x="0" y="0" flags="0x0"/>
      <component glyphName="dieresis" x="47" y="160" flags="0x4"/>
    </TTGlyph>
    <TTGlyph name="Z" xMin="50" yMin="0" xMax="583" yMax="660">
      <contour>
        <pt x="583" y="91" on="1"/>
        <pt x="583" y="0" on="1"/>
        <pt x="50" y="0" on="1"/>
        <pt x="50" y="87" on="1"/>
        <pt x="449" y="569" on="1"/>
        <pt x="59" y="569" on="1"/>
        <pt x="59" y="660" on="1"/>
        <pt x="571" y="660" on="1"/>
        <pt x="571" y="573" on="1"/>
        <pt x="172" y="91" on="1"/>
      </contour>
    </TTGlyph>
    <TTGlyph name="Zacute" xMin="50" yMin="0" xMax="583" yMax="897">
      <component glyphName="Z" x="0" y="0" flags="0x0"/>
      <component glyphName="acutecomb.cap" x="310" y="0" flags="0x0"/>
    </TTGlyph>
    <TTGlyph name="Zcaron" xMin="50" yMin="0" xMax="583" yMax="897">
      <component glyphName="Z" x="0" y="0" flags="0x0"/>
      <component glyphName="uni030C.cap" x="310" y="0" flags="0x0"/>
    </TTGlyph>
    <TTGlyph name="Zdotaccent" xMin="50" yMin="0" xMax="583" yMax="878">
      <component glyphName="Z" x="0" y="0" flags="0x0"/>
      <component glyphName="dotaccent" x="60" y="160" flags="0x4"/>
    </TTGlyph>
    <TTGlyph name="a" xMin="49" yMin="-10" xMax="552" yMax="510">
      <contour>
        <pt x="537" y="70" on="0"/>
        <pt x="552" y="74" on="1"/>
        <pt x="545" y="2" on="1"/>
        <pt x="518" y="-10" on="0"/>
        <pt x="483" y="-10" on="1"/>
        <pt x="441" y="-10" on="0"/>
        <pt x="389" y="25" on="0"/>
        <pt x="381" y="65" on="1"/>
        <pt x="358" y="29" on="0"/>
        <pt x="268" y="-10" on="0"/>
        <pt x="212" y="-10" on="1"/>
        <pt x="139" y="-10" on="0"/>
        <pt x="49" y="58" on="0"/>
        <pt x="49" y="121" on="1"/>
        <pt x="49" y="180" on="0"/>
        <pt x="147" y="261" on="0"/>
        <pt x="244" y="278" on="1"/>
        <pt x="371" y="301" on="1"/>
        <pt x="371" y="327" on="1"/>
        <pt x="371" y="373" on="0"/>
        <pt x="317" y="426" on="0"/>
        <pt x="269" y="426" on="1"/>
        <pt x="170" y="426" on="0"/>
        <pt x="140" y="336" on="1"/>
        <pt x="57" y="380" on="1"/>
        <pt x="75" y="440" on="0"/>
        <pt x="186" y="510" on="0"/>
        <pt x="267" y="510" on="1"/>
        <pt x="364" y="510" on="0"/>
        <pt x="478" y="420" on="0"/>
        <pt x="478" y="333" on="1"/>
        <pt x="478" y="107" on="1"/>
        <pt x="478" y="88" on="0"/>
        <pt x="495" y="70" on="0"/>
        <pt x="515" y="70" on="1"/>
      </contour>
      <contour>
        <pt x="289" y="71" on="0"/>
        <pt x="371" y="123" on="0"/>
        <pt x="371" y="166" on="1"/>
        <pt x="371" y="226" on="1"/>
        <pt x="262" y="204" on="1"/>
        <pt x="210" y="194" on="0"/>
        <pt x="160" y="158" on="0"/>
        <pt x="160" y="128" on="1"/>
        <pt x="160" y="100" on="0"/>
        <pt x="199" y="71" on="0"/>
        <pt x="235" y="71" on="1"/>
      </contour>
    </TTGlyph>
    <TTGlyph name="a.sc" xMin="18" yMin="0" xMax="587" yMax="560">
      <contour>
        <pt x="423" y="142" on="1"/>
        <pt x="180" y="142" on="1"/>
        <pt x="125" y="0" on="1"/>
        <pt x="18" y="0" on="1"/>
        <pt x="239" y="560" on="1"/>
        <pt x="366" y="560" on="1"/>
        <pt x="587" y="0" on="1"/>
        <pt x="478" y="0" on="1"/>
      </contour>
      <contour>
        <pt x="391" y="224" on="1"/>
        <pt x="335" y="370" on="1"/>
        <pt x="303" y="473" on="1"/>
        <pt x="301" y="473" on="1"/>
        <pt x="268" y="370" on="1"/>
        <pt x="212" y="224" on="1"/>
      </contour>
    </TTGlyph>
    <TTGlyph name="aacute" xMin="49" yMin="-10" xMax="552" yMax="746">
      <component glyphName="a" x="0" y="0" flags="0x0"/>
      <component glyphName="acute" x="18" y="0" flags="0x0"/>
    </TTGlyph>
    <TTGlyph name="aacute.sc" xMin="18" yMin="0" xMax="587" yMax="797">
      <component glyphName="a.sc" x="0" y="0" flags="0x0"/>
      <component glyphName="acutecomb.cap" x="302" y="-100" flags="0x4"/>
    </TTGlyph>
    <TTGlyph name="abreve" xMin="49" yMin="-10" xMax="552" yMax="723">
      <component glyphName="a" x="0" y="0" flags="0x0"/>
      <component glyphName="breve" x="26" y="0" flags="0x0"/>
    </TTGlyph>
    <TTGlyph name="abreve.sc" xMin="18" yMin="0" xMax="587" yMax="783">
      <component glyphName="a.sc" x="0" y="0" flags="0x0"/>
      <component glyphName="breve" x="52" y="60" flags="0x4"/>
    </TTGlyph>
    <TTGlyph name="acircumflex" xMin="49" yMin="-10" xMax="552" yMax="739">
      <component glyphName="a" x="0" y="0" flags="0x0"/>
      <component glyphName="circumflex" x="26" y="0" flags="0x0"/>
    </TTGlyph>
    <TTGlyph name="acircumflex.sc" xMin="18" yMin="0" xMax="587" yMax="794">
      <component glyphName="a.sc" x="0" y="0" flags="0x0"/>
      <component glyphName="uni0302.cap" x="302" y="-100" flags="0x4"/>
    </TTGlyph>
    <TTGlyph name="acute" xMin="201" yMin="578" xMax="382" yMax="746">
      <contour>
        <pt x="382" y="746" on="1"/>
        <pt x="283" y="578" on="1"/>
        <pt x="201" y="578" on="1"/>
        <pt x="274" y="746" on="1"/>
      </contour>
    </TTGlyph>
    <TTGlyph name="acutecmb" xMin="-57" yMin="578" xMax="124" yMax="746">
      <component glyphName="acute" x="-258" y="0" flags="0x0"/>
    </TTGlyph>
    <TTGlyph name="acutecomb.asc" xMin="-32" yMin="790" xMax="124" yMax="927">
      <contour>
        <pt x="124" y="927" on="1"/>
        <pt x="48" y="790" on="1"/>
        <pt x="-32" y="790" on="1"/>
        <pt x="21" y="927" on="1"/>
      </contour>
    </TTGlyph>
    <TTGlyph name="acutecomb.cap" xMin="-52" yMin="737" xMax="117" yMax="897">
      <contour>
        <pt x="117" y="897" on="1"/>
        <pt x="30" y="737" on="1"/>
        <pt x="-52" y="737" on="1"/>
        <pt x="13" y="897" on="1"/>
      </contour>
    </TTGlyph>
    <TTGlyph name="adieresis" xMin="49" yMin="-10" xMax="552" yMax="700">
      <component glyphName="a" x="0" y="0" flags="0x0"/>
      <component glyphName="dieresis" x="24" y="0" flags="0x0"/>
    </TTGlyph>
    <TTGlyph name="adieresis.sc" xMin="18" yMin="0" xMax="587" yMax="760">
      <component glyphName="a.sc" x="0" y="0" flags="0x0"/>
      <component glyphName="dieresis" x="50" y="60" flags="0x4"/>
    </TTGlyph>
    <TTGlyph name="ae" xMin="49" yMin="-10" xMax="830" yMax="510">
      <contour>
        <pt x="830" y="244" on="0"/>
        <pt x="826" y="214" on="1"/>
        <pt x="480" y="214" on="1"/>
        <pt x="488" y="147" on="0"/>
        <pt x="561" y="75" on="0"/>
        <pt x="616" y="75" on="1"/>
        <pt x="664" y="75" on="0"/>
        <pt x="720" y="109" on="0"/>
        <pt x="732" y="143" on="1"/>
        <pt x="820" y="106" on="1"/>
        <pt x="793" y="48" on="0"/>
        <pt x="695" y="-10" on="0"/>
        <pt x="614" y="-10" on="1"/>
        <pt x="548" y="-10" on="0"/>
        <pt x="451" y="44" on="0"/>
        <pt x="425" y="99" on="1"/>
        <pt x="402" y="45" on="0"/>
        <pt x="291" y="-10" on="0"/>
        <pt x="212" y="-10" on="1"/>
        <pt x="137" y="-10" on="0"/>
        <pt x="49" y="61" on="0"/>
        <pt x="49" y="121" on="1"/>
        <pt x="49" y="180" on="0"/>
        <pt x="143" y="258" on="0"/>
        <pt x="235" y="273" on="1"/>
        <pt x="377" y="295" on="1"/>
        <pt x="377" y="327" on="1"/>
        <pt x="377" y="373" on="0"/>
        <pt x="320" y="426" on="0"/>
        <pt x="268" y="426" on="1"/>
        <pt x="222" y="426" on="0"/>
        <pt x="157" y="381" on="0"/>
        <pt x="141" y="337" on="1"/>
        <pt x="58" y="378" on="1"/>
        <pt x="77" y="440" on="0"/>
        <pt x="189" y="510" on="0"/>
        <pt x="272" y="510" on="1"/>
        <pt x="331" y="510" on="0"/>
        <pt x="416" y="464" on="0"/>
        <pt x="440" y="419" on="1"/>
        <pt x="468" y="463" on="0"/>
        <pt x="554" y="510" on="0"/>
        <pt x="609" y="510" on="1"/>
        <pt x="716" y="510" on="0"/>
        <pt x="830" y="378" on="0"/>
        <pt x="830" y="274" on="1"/>
      </contour>
      <contour>
        <pt x="557" y="425" on="0"/>
        <pt x="489" y="355" on="0"/>
        <pt x="481" y="291" on="1"/>
        <pt x="731" y="291" on="1"/>
        <pt x="718" y="425" on="0"/>
        <pt x="611" y="425" on="1"/>
      </contour>
      <contour>
        <pt x="295" y="71" on="0"/>
        <pt x="377" y="136" on="0"/>
        <pt x="377" y="191" on="1"/>
        <pt x="377" y="225" on="1"/>
        <pt x="266" y="204" on="1"/>
        <pt x="209" y="193" on="0"/>
        <pt x="160" y="159" on="0"/>
        <pt x="160" y="128" on="1"/>
        <pt x="160" y="71" on="0"/>
        <pt x="239" y="71" on="1"/>
      </contour>
    </TTGlyph>
    <TTGlyph name="ae.sc" xMin="-9" yMin="0" xMax="784" yMax="560">
      <contour>
        <pt x="784" y="83" on="1"/>
        <pt x="784" y="0" on="1"/>
        <pt x="367" y="0" on="1"/>
        <pt x="367" y="174" on="1"/>
        <pt x="183" y="174" on="1"/>
        <pt x="96" y="0" on="1"/>
        <pt x="-9" y="0" on="1"/>
        <pt x="281" y="560" on="1"/>
        <pt x="772" y="560" on="1"/>
        <pt x="772" y="477" on="1"/>
        <pt x="468" y="477" on="1"/>
        <pt x="468" y="324" on="1"/>
        <pt x="700" y="324" on="1"/>
        <pt x="700" y="241" on="1"/>
        <pt x="468" y="241" on="1"/>
        <pt x="468" y="83" on="1"/>
      </contour>
      <contour>
        <pt x="367" y="256" on="1"/>
        <pt x="367" y="478" on="1"/>
        <pt x="335" y="478" on="1"/>
        <pt x="224" y="256" on="1"/>
      </contour>
    </TTGlyph>
    <TTGlyph name="agrave" xMin="49" yMin="-10" xMax="552" yMax="746">
      <component glyphName="a" x="0" y="0" flags="0x0"/>
      <component glyphName="grave" x="26" y="0" flags="0x0"/>
    </TTGlyph>
    <TTGlyph name="agrave.sc" xMin="18" yMin="0" xMax="587" yMax="797">
      <component glyphName="a.sc" x="0" y="0" flags="0x0"/>
      <component glyphName="gravecomb.cap" x="294" y="-100" flags="0x4"/>
    </TTGlyph>
    <TTGlyph name="amacron" xMin="49" yMin="-10" xMax="552" yMax="666">
      <component glyphName="a" x="0" y="0" flags="0x0"/>
      <component glyphName="macron" x="26" y="0" flags="0x0"/>
    </TTGlyph>
    <TTGlyph name="amacron.sc" xMin="18" yMin="0" xMax="587" yMax="726">
      <component glyphName="a.sc" x="0" y="0" flags="0x0"/>
      <component glyphName="macron" x="52" y="60" flags="0x4"/>
    </TTGlyph>
    <TTGlyph name="ampersand" xMin="41" yMin="-10" xMax="632" yMax="670">
      <contour>
        <pt x="613" y="-10" on="1"/>
        <pt x="568" y="-10" on="0"/>
        <pt x="500" y="19" on="0"/>
        <pt x="453" y="62" on="1"/>
        <pt x="416" y="28" on="0"/>
        <pt x="317" y="-10" on="0"/>
        <pt x="258" y="-10" on="1"/>
        <pt x="195" y="-10" on="0"/>
        <pt x="96" y="34" on="0"/>
        <pt x="41" y="113" on="0"/>
        <pt x="41" y="164" on="1"/>
        <pt x="41" y="223" on="0"/>
        <pt x="112" y="321" on="0"/>
        <pt x="193" y="359" on="1"/>
        <pt x="151" y="412" on="0"/>
        <pt x="119" y="480" on="0"/>
        <pt x="119" y="517" on="1"/>
        <pt x="119" y="556" on="0"/>
        <pt x="158" y="627" on="0"/>
        <pt x="234" y="670" on="0"/>
        <pt x="288" y="670" on="1"/>
        <pt x="362" y="670" on="0"/>
        <pt x="454" y="597" on="0"/>
        <pt x="454" y="528" on="1"/>
        <pt x="454" y="471" on="0"/>
        <pt x="396" y="384" on="0"/>
        <pt x="319" y="344" on="1"/>
        <pt x="381" y="270" on="1"/>
        <pt x="436" y="204" on="0"/>
        <pt x="458" y="179" on="1"/>
        <pt x="494" y="246" on="0"/>
        <pt x="494" y="327" on="1"/>
        <pt x="493" y="350" on="1"/>
        <pt x="572" y="344" on="1"/>
        <pt x="574" y="283" on="0"/>
        <pt x="542" y="170" on="0"/>
        <pt x="508" y="124" on="1"/>
        <pt x="544" y="89" on="0"/>
        <pt x="596" y="66" on="0"/>
        <pt x="632" y="68" on="1"/>
      </contour>
      <contour>
        <pt x="253" y="589" on="0"/>
        <pt x="215" y="548" on="0"/>
        <pt x="215" y="516" on="1"/>
        <pt x="215" y="491" on="0"/>
        <pt x="238" y="445" on="0"/>
        <pt x="276" y="398" on="1"/>
        <pt x="330" y="430" on="0"/>
        <pt x="364" y="487" on="0"/>
        <pt x="364" y="524" on="1"/>
        <pt x="364" y="556" on="0"/>
        <pt x="325" y="589" on="0"/>
        <pt x="288" y="589" on="1"/>
      </contour>
      <contour>
        <pt x="137" y="127" on="0"/>
        <pt x="209" y="69" on="0"/>
        <pt x="261" y="69" on="1"/>
        <pt x="341" y="69" on="0"/>
        <pt x="402" y="115" on="1"/>
        <pt x="356" y="164" on="0"/>
        <pt x="318" y="210" on="1"/>
        <pt x="303" y="227" on="1"/>
        <pt x="240" y="302" on="1"/>
        <pt x="180" y="265" on="0"/>
        <pt x="137" y="207" on="0"/>
        <pt x="137" y="171" on="1"/>
      </contour>
    </TTGlyph>
    <TTGlyph name="ampersand.sc" xMin="37" yMin="-8" xMax="569" yMax="568">
      <contour>
        <pt x="552" y="-8" on="1"/>
        <pt x="512" y="-8" on="0"/>
        <pt x="453" y="16" on="0"/>
        <pt x="412" y="52" on="1"/>
        <pt x="343" y="-8" on="0"/>
        <pt x="234" y="-8" on="1"/>
        <pt x="144" y="-8" on="0"/>
        <pt x="37" y="70" on="0"/>
        <pt x="37" y="135" on="1"/>
        <pt x="37" y="187" on="0"/>
        <pt x="98" y="266" on="0"/>
        <pt x="172" y="300" on="1"/>
        <pt x="134" y="343" on="0"/>
        <pt x="105" y="403" on="0"/>
        <pt x="105" y="436" on="1"/>
        <pt x="105" y="470" on="0"/>
        <pt x="140" y="531" on="0"/>
        <pt x="211" y="568" on="0"/>
        <pt x="261" y="568" on="1"/>
        <pt x="329" y="568" on="0"/>
        <pt x="412" y="504" on="0"/>
        <pt x="412" y="445" on="1"/>
        <pt x="412" y="395" on="0"/>
        <pt x="360" y="323" on="0"/>
        <pt x="291" y="287" on="1"/>
        <pt x="343" y="229" on="1"/>
        <pt x="414" y="152" on="1"/>
        <pt x="449" y="208" on="0"/>
        <pt x="446" y="303" on="1"/>
        <pt x="516" y="290" on="1"/>
        <pt x="519" y="183" on="0"/>
        <pt x="461" y="106" on="1"/>
        <pt x="491" y="79" on="0"/>
        <pt x="538" y="61" on="0"/>
        <pt x="569" y="63" on="1"/>
      </contour>
      <contour>
        <pt x="231" y="494" on="0"/>
        <pt x="198" y="460" on="0"/>
        <pt x="198" y="433" on="1"/>
        <pt x="198" y="411" on="0"/>
        <pt x="217" y="373" on="0"/>
        <pt x="249" y="335" on="1"/>
        <pt x="297" y="361" on="0"/>
        <pt x="327" y="407" on="0"/>
        <pt x="327" y="438" on="1"/>
        <pt x="327" y="494" on="0"/>
        <pt x="262" y="494" on="1"/>
      </contour>
      <contour>
        <pt x="309" y="63" on="0"/>
        <pt x="362" y="99" on="1"/>
        <pt x="291" y="172" on="1"/>
        <pt x="217" y="249" on="1"/>
        <pt x="167" y="221" on="0"/>
        <pt x="129" y="175" on="0"/>
        <pt x="129" y="146" on="1"/>
        <pt x="129" y="109" on="0"/>
        <pt x="193" y="63" on="0"/>
        <pt x="238" y="63" on="1"/>
      </contour>
    </TTGlyph>
    <TTGlyph name="aogonek" xMin="49" yMin="-215" xMax="552" yMax="510">
      <contour>
        <pt x="516" y="-147" on="0"/>
        <pt x="534" y="-135" on="1"/>
        <pt x="552" y="-196" on="1"/>
        <pt x="520" y="-215" on="0"/>
        <pt x="467" y="-215" on="1"/>
        <pt x="411" y="-215" on="0"/>
        <pt x="344" y="-161" on="0"/>
        <pt x="344" y="-114" on="1"/>
        <pt x="344" y="-36" on="0"/>
        <pt x="437" y="7" on="1"/>
        <pt x="397" y="25" on="0"/>
        <pt x="385" y="72" on="1"/>
        <pt x="363" y="33" on="0"/>
        <pt x="271" y="-10" on="0"/>
        <pt x="212" y="-10" on="1"/>
        <pt x="139" y="-10" on="0"/>
        <pt x="49" y="58" on="0"/>
        <pt x="49" y="121" on="1"/>
        <pt x="49" y="180" on="0"/>
        <pt x="147" y="261" on="0"/>
        <pt x="244" y="278" on="1"/>
        <pt x="371" y="301" on="1"/>
        <pt x="371" y="327" on="1"/>
        <pt x="371" y="373" on="0"/>
        <pt x="317" y="426" on="0"/>
        <pt x="269" y="426" on="1"/>
        <pt x="170" y="426" on="0"/>
        <pt x="140" y="336" on="1"/>
        <pt x="57" y="380" on="1"/>
        <pt x="75" y="440" on="0"/>
        <pt x="186" y="510" on="0"/>
        <pt x="267" y="510" on="1"/>
        <pt x="364" y="510" on="0"/>
        <pt x="478" y="420" on="0"/>
        <pt x="478" y="333" on="1"/>
        <pt x="478" y="107" on="1"/>
        <pt x="478" y="88" on="0"/>
        <pt x="495" y="70" on="0"/>
        <pt x="515" y="70" on="1"/>
        <pt x="537" y="70" on="0"/>
        <pt x="552" y="74" on="1"/>
        <pt x="545" y="2" on="1"/>
        <pt x="479" y="-17" on="0"/>
        <pt x="425" y="-64" on="0"/>
        <pt x="425" y="-96" on="1"/>
        <pt x="425" y="-120" on="0"/>
        <pt x="454" y="-147" on="0"/>
        <pt x="481" y="-147" on="1"/>
      </contour>
      <contour>
        <pt x="289" y="71" on="0"/>
        <pt x="371" y="123" on="0"/>
        <pt x="371" y="166" on="1"/>
        <pt x="371" y="226" on="1"/>
        <pt x="262" y="204" on="1"/>
        <pt x="210" y="193" on="0"/>
        <pt x="160" y="157" on="0"/>
        <pt x="160" y="128" on="1"/>
        <pt x="160" y="100" on="0"/>
        <pt x="199" y="71" on="0"/>
        <pt x="235" y="71" on="1"/>
      </contour>
    </TTGlyph>
    <TTGlyph name="aogonek.sc" xMin="18" yMin="-215" xMax="598" yMax="560">
      <contour>
        <pt x="598" y="-195" on="1"/>
        <pt x="567" y="-215" on="0"/>
        <pt x="509" y="-215" on="1"/>
        <pt x="452" y="-215" on="0"/>
        <pt x="384" y="-159" on="0"/>
        <pt x="384" y="-108" on="1"/>
        <pt x="384" y="-30" on="0"/>
        <pt x="474" y="11" on="1"/>
        <pt x="423" y="142" on="1"/>
        <pt x="180" y="142" on="1"/>
        <pt x="125" y="0" on="1"/>
        <pt x="18" y="0" on="1"/>
        <pt x="239" y="560" on="1"/>
        <pt x="366" y="560" on="1"/>
        <pt x="587" y="0" on="1"/>
        <pt x="518" y="-20" on="0"/>
        <pt x="465" y="-67" on="0"/>
        <pt x="465" y="-97" on="1"/>
        <pt x="465" y="-120" on="0"/>
        <pt x="498" y="-146" on="0"/>
        <pt x="527" y="-146" on="1"/>
        <pt x="562" y="-146" on="0"/>
        <pt x="580" y="-134" on="1"/>
      </contour>
      <contour>
        <pt x="391" y="224" on="1"/>
        <pt x="335" y="370" on="1"/>
        <pt x="303" y="473" on="1"/>
        <pt x="301" y="473" on="1"/>
        <pt x="268" y="370" on="1"/>
        <pt x="212" y="224" on="1"/>
      </contour>
    </TTGlyph>
    <TTGlyph name="approxequal" xMin="59" yMin="140" xMax="545" yMax="506">
      <contour>
        <pt x="221" y="506" on="0"/>
        <pt x="277" y="487" on="0"/>
        <pt x="314" y="470" on="1"/>
        <pt x="348" y="454" on="0"/>
        <pt x="393" y="439" on="0"/>
        <pt x="416" y="439" on="1"/>
        <pt x="452" y="439" on="0"/>
        <pt x="512" y="462" on="0"/>
        <pt x="545" y="493" on="1"/>
        <pt x="545" y="404" on="1"/>
        <pt x="515" y="376" on="0"/>
        <pt x="453" y="350" on="0"/>
        <pt x="417" y="350" on="1"/>
        <pt x="389" y="350" on="0"/>
        <pt x="338" y="367" on="0"/>
        <pt x="300" y="385" on="1"/>
        <pt x="266" y="401" on="0"/>
        <pt x="216" y="418" on="0"/>
        <pt x="190" y="418" on="1"/>
        <pt x="148" y="418" on="0"/>
        <pt x="90" y="393" on="0"/>
        <pt x="59" y="363" on="1"/>
        <pt x="59" y="452" on="1"/>
        <pt x="92" y="482" on="0"/>
        <pt x="149" y="506" on="0"/>
        <pt x="190" y="506" on="1"/>
      </contour>
      <contour>
        <pt x="221" y="296" on="0"/>
        <pt x="277" y="277" on="0"/>
        <pt x="314" y="260" on="1"/>
        <pt x="348" y="244" on="0"/>
        <pt x="393" y="229" on="0"/>
        <pt x="416" y="229" on="1"/>
        <pt x="453" y="229" on="0"/>
        <pt x="512" y="252" on="0"/>
        <pt x="545" y="283" on="1"/>
        <pt x="545" y="194" on="1"/>
        <pt x="515" y="166" on="0"/>
        <pt x="453" y="140" on="0"/>
        <pt x="417" y="140" on="1"/>
        <pt x="389" y="140" on="0"/>
        <pt x="338" y="157" on="0"/>
        <pt x="300" y="175" on="1"/>
        <pt x="266" y="191" on="0"/>
        <pt x="216" y="208" on="0"/>
        <pt x="190" y="208" on="1"/>
        <pt x="148" y="208" on="0"/>
        <pt x="90" y="183" on="0"/>
        <pt x="59" y="153" on="1"/>
        <pt x="59" y="242" on="1"/>
        <pt x="92" y="272" on="0"/>
        <pt x="149" y="296" on="0"/>
        <pt x="190" y="296" on="1"/>
      </contour>
    </TTGlyph>
    <TTGlyph name="aring" xMin="49" yMin="-10" xMax="552" yMax="806">
      <component glyphName="a" x="0" y="0" flags="0x0"/>
      <component glyphName="ring" x="24" y="0" flags="0x0"/>
    </TTGlyph>
    <TTGlyph name="aring.sc" xMin="18" yMin="0" xMax="587" yMax="755">
      <contour>
        <pt x="423" y="142" on="1"/>
        <pt x="181" y="142" on="1"/>
        <pt x="126" y="0" on="1"/>
        <pt x="18" y="0" on="1"/>
        <pt x="228" y="530" on="1"/>
        <pt x="200" y="545" on="0"/>
        <pt x="170" y="598" on="0"/>
        <pt x="170" y="633" on="1"/>
        <pt x="170" y="687" on="0"/>
        <pt x="243" y="755" on="0"/>
        <pt x="303" y="755" on="1"/>
        <pt x="363" y="755" on="0"/>
        <pt x="435" y="688" on="0"/>
        <pt x="435" y="633" on="1"/>
        <pt x="435" y="598" on="0"/>
        <pt x="404" y="545" on="0"/>
        <pt x="377" y="530" on="1"/>
        <pt x="587" y="0" on="1"/>
        <pt x="478" y="0" on="1"/>
      </contour>
      <contour>
        <pt x="273" y="697" on="0"/>
        <pt x="235" y="660" on="0"/>
        <pt x="235" y="632" on="1"/>
        <pt x="235" y="603" on="0"/>
        <pt x="273" y="567" on="0"/>
        <pt x="302" y="567" on="1"/>
        <pt x="332" y="567" on="0"/>
        <pt x="369" y="603" on="0"/>
        <pt x="369" y="632" on="1"/>
        <pt x="369" y="661" on="0"/>
        <pt x="332" y="697" on="0"/>
        <pt x="302" y="697" on="1"/>
      </contour>
      <contour>
        <pt x="391" y="224" on="1"/>
        <pt x="335" y="370" on="1"/>
        <pt x="303" y="471" on="1"/>
        <pt x="301" y="471" on="1"/>
        <pt x="269" y="370" on="1"/>
        <pt x="213" y="224" on="1"/>
      </contour>
    </TTGlyph>
    <TTGlyph name="arrowboth" xMin="33" yMin="13" xMax="1039" yMax="685">
      <contour>
        <pt x="814" y="569" on="0"/>
        <pt x="953" y="414" on="0"/>
        <pt x="1039" y="352" on="1"/>
        <pt x="1039" y="346" on="1"/>
        <pt x="952" y="283" on="0"/>
        <pt x="814" y="129" on="0"/>
        <pt x="744" y="13" on="1"/>
        <pt x="656" y="68" on="1"/>
        <pt x="760" y="226" on="0"/>
        <pt x="871" y="306" on="1"/>
        <pt x="801" y="296" on="0"/>
        <pt x="725" y="296" on="1"/>
        <pt x="347" y="296" on="1"/>
        <pt x="271" y="296" on="0"/>
        <pt x="201" y="306" on="1"/>
        <pt x="312" y="226" on="0"/>
        <pt x="416" y="68" on="1"/>
        <pt x="328" y="13" on="1"/>
        <pt x="258" y="129" on="0"/>
        <pt x="120" y="283" on="0"/>
        <pt x="33" y="346" on="1"/>
        <pt x="33" y="352" on="1"/>
        <pt x="119" y="414" on="0"/>
        <pt x="258" y="569" on="0"/>
        <pt x="328" y="685" on="1"/>
        <pt x="416" y="631" on="1"/>
        <pt x="311" y="473" on="0"/>
        <pt x="200" y="393" on="1"/>
        <pt x="272" y="403" on="0"/>
        <pt x="347" y="403" on="1"/>
        <pt x="725" y="403" on="1"/>
        <pt x="800" y="403" on="0"/>
        <pt x="872" y="393" on="1"/>
        <pt x="761" y="473" on="0"/>
        <pt x="656" y="631" on="1"/>
        <pt x="744" y="685" on="1"/>
      </contour>
    </TTGlyph>
    <TTGlyph name="arrowdown" xMin="40" yMin="-6" xMax="712" yMax="660">
      <contour>
        <pt x="712" y="289" on="1"/>
        <pt x="596" y="219" on="0"/>
        <pt x="442" y="81" on="0"/>
        <pt x="379" y="-6" on="1"/>
        <pt x="373" y="-6" on="1"/>
        <pt x="311" y="80" on="0"/>
        <pt x="156" y="219" on="0"/>
        <pt x="40" y="289" on="1"/>
        <pt x="103" y="371" on="1"/>
        <pt x="253" y="271" on="0"/>
        <pt x="334" y="160" on="1"/>
        <pt x="322" y="247" on="0"/>
        <pt x="322" y="341" on="1"/>
        <pt x="322" y="660" on="1"/>
        <pt x="429" y="660" on="1"/>
        <pt x="429" y="341" on="1"/>
        <pt x="429" y="240" on="0"/>
        <pt x="418" y="160" on="1"/>
        <pt x="499" y="271" on="0"/>
        <pt x="649" y="371" on="1"/>
      </contour>
    </TTGlyph>
    <TTGlyph name="arrowleft" xMin="33" yMin="-5" xMax="699" yMax="667">
      <contour>
        <pt x="380" y="277" on="1"/>
        <pt x="286" y="277" on="0"/>
        <pt x="199" y="289" on="1"/>
        <pt x="310" y="208" on="0"/>
        <pt x="410" y="58" on="1"/>
        <pt x="328" y="-5" on="1"/>
        <pt x="258" y="111" on="0"/>
        <pt x="119" y="266" on="0"/>
        <pt x="33" y="328" on="1"/>
        <pt x="33" y="334" on="1"/>
        <pt x="120" y="397" on="0"/>
        <pt x="258" y="551" on="0"/>
        <pt x="328" y="667" on="1"/>
        <pt x="410" y="604" on="1"/>
        <pt x="310" y="454" on="0"/>
        <pt x="199" y="373" on="1"/>
        <pt x="279" y="384" on="0"/>
        <pt x="380" y="384" on="1"/>
        <pt x="699" y="384" on="1"/>
        <pt x="699" y="277" on="1"/>
      </contour>
    </TTGlyph>
    <TTGlyph name="arrowright" xMin="51" yMin="-5" xMax="717" yMax="667">
      <contour>
        <pt x="492" y="551" on="0"/>
        <pt x="630" y="397" on="0"/>
        <pt x="717" y="334" on="1"/>
        <pt x="717" y="328" on="1"/>
        <pt x="631" y="266" on="0"/>
        <pt x="492" y="111" on="0"/>
        <pt x="422" y="-5" on="1"/>
        <pt x="340" y="58" on="1"/>
        <pt x="440" y="208" on="0"/>
        <pt x="551" y="289" on="1"/>
        <pt x="464" y="277" on="0"/>
        <pt x="370" y="277" on="1"/>
        <pt x="51" y="277" on="1"/>
        <pt x="51" y="384" on="1"/>
        <pt x="370" y="384" on="1"/>
        <pt x="471" y="384" on="0"/>
        <pt x="551" y="373" on="1"/>
        <pt x="440" y="454" on="0"/>
        <pt x="340" y="604" on="1"/>
        <pt x="422" y="667" on="1"/>
      </contour>
    </TTGlyph>
    <TTGlyph name="arrowup" xMin="38" yMin="0" xMax="710" yMax="666">
      <contour>
        <pt x="439" y="580" on="0"/>
        <pt x="594" y="441" on="0"/>
        <pt x="710" y="371" on="1"/>
        <pt x="647" y="289" on="1"/>
        <pt x="497" y="389" on="0"/>
        <pt x="416" y="500" on="1"/>
        <pt x="428" y="413" on="0"/>
        <pt x="428" y="319" on="1"/>
        <pt x="428" y="0" on="1"/>
        <pt x="321" y="0" on="1"/>
        <pt x="321" y="319" on="1"/>
        <pt x="321" y="420" on="0"/>
        <pt x="332" y="500" on="1"/>
        <pt x="251" y="389" on="0"/>
        <pt x="101" y="289" on="1"/>
        <pt x="38" y="371" on="1"/>
        <pt x="154" y="441" on="0"/>
        <pt x="308" y="579" on="0"/>
        <pt x="371" y="666" on="1"/>
        <pt x="377" y="666" on="1"/>
      </contour>
    </TTGlyph>
    <TTGlyph name="arrowupdn" xMin="38" yMin="-173" xMax="710" yMax="833">
      <contour>
        <pt x="498" y="105" on="0"/>
        <pt x="656" y="210" on="1"/>
        <pt x="710" y="122" on="1"/>
        <pt x="594" y="52" on="0"/>
        <pt x="439" y="-87" on="0"/>
        <pt x="377" y="-173" on="1"/>
        <pt x="371" y="-173" on="1"/>
        <pt x="308" y="-86" on="0"/>
        <pt x="154" y="52" on="0"/>
        <pt x="38" y="122" on="1"/>
        <pt x="93" y="210" on="1"/>
        <pt x="251" y="106" on="0"/>
        <pt x="331" y="-5" on="1"/>
        <pt x="321" y="65" on="0"/>
        <pt x="321" y="141" on="1"/>
        <pt x="321" y="519" on="1"/>
        <pt x="321" y="595" on="0"/>
        <pt x="331" y="665" on="1"/>
        <pt x="251" y="554" on="0"/>
        <pt x="93" y="450" on="1"/>
        <pt x="38" y="538" on="1"/>
        <pt x="154" y="608" on="0"/>
        <pt x="308" y="746" on="0"/>
        <pt x="371" y="833" on="1"/>
        <pt x="377" y="833" on="1"/>
        <pt x="439" y="747" on="0"/>
        <pt x="594" y="608" on="0"/>
        <pt x="710" y="538" on="1"/>
        <pt x="656" y="450" on="1"/>
        <pt x="498" y="555" on="0"/>
        <pt x="418" y="666" on="1"/>
        <pt x="428" y="594" on="0"/>
        <pt x="428" y="519" on="1"/>
        <pt x="428" y="141" on="1"/>
        <pt x="428" y="66" on="0"/>
        <pt x="418" y="-6" on="1"/>
      </contour>
    </TTGlyph>
    <TTGlyph name="asciicircum" xMin="26" yMin="355" xMax="549" yMax="728">
      <contour>
        <pt x="448" y="355" on="1"/>
        <pt x="288" y="649" on="1"/>
        <pt x="128" y="355" on="1"/>
        <pt x="26" y="355" on="1"/>
        <pt x="240" y="728" on="1"/>
        <pt x="336" y="728" on="1"/>
        <pt x="549" y="355" on="1"/>
      </contour>
    </TTGlyph>
    <TTGlyph name="asciitilde" xMin="43" yMin="234" xMax="514" yMax="398">
      <contour>
        <pt x="509" y="316" on="0"/>
        <pt x="439" y="234" on="0"/>
        <pt x="375" y="234" on="1"/>
        <pt x="341" y="234" on="0"/>
        <pt x="291" y="256" on="0"/>
        <pt x="263" y="276" on="1"/>
        <pt x="239" y="291" on="0"/>
        <pt x="211" y="305" on="0"/>
        <pt x="194" y="305" on="1"/>
        <pt x="147" y="305" on="0"/>
        <pt x="136" y="235" on="1"/>
        <pt x="43" y="235" on="1"/>
        <pt x="54" y="398" on="0"/>
        <pt x="183" y="398" on="1"/>
        <pt x="216" y="398" on="0"/>
        <pt x="263" y="377" on="0"/>
        <pt x="294" y="357" on="1"/>
        <pt x="316" y="342" on="0"/>
        <pt x="346" y="327" on="0"/>
        <pt x="364" y="327" on="1"/>
        <pt x="410" y="327" on="0"/>
        <pt x="421" y="396" on="1"/>
        <pt x="514" y="396" on="1"/>
      </contour>
    </TTGlyph>
    <TTGlyph name="asterisk" xMin="49" yMin="273" xMax="528" yMax="730">
      <contour>
        <pt x="388" y="423" on="1"/>
        <pt x="462" y="321" on="1"/>
        <pt x="396" y="273" on="1"/>
        <pt x="322" y="375" on="1"/>
        <pt x="288" y="440" on="1"/>
        <pt x="254" y="375" on="1"/>
        <pt x="181" y="273" on="1"/>
        <pt x="115" y="321" on="1"/>
        <pt x="189" y="423" on="1"/>
        <pt x="240" y="475" on="1"/>
        <pt x="168" y="488" on="1"/>
        <pt x="49" y="526" on="1"/>
        <pt x="73" y="603" on="1"/>
        <pt x="193" y="564" on="1"/>
        <pt x="258" y="532" on="1"/>
        <pt x="248" y="604" on="1"/>
        <pt x="247" y="730" on="1"/>
        <pt x="330" y="730" on="1"/>
        <pt x="329" y="604" on="1"/>
        <pt x="318" y="531" on="1"/>
        <pt x="384" y="564" on="1"/>
        <pt x="504" y="603" on="1"/>
        <pt x="528" y="526" on="1"/>
        <pt x="409" y="488" on="1"/>
        <pt x="336" y="475" on="1"/>
      </contour>
    </TTGlyph>
    <TTGlyph name="at" xMin="61" yMin="-192" xMax="909" yMax="660">
      <contour>
        <pt x="635" y="660" on="0"/>
        <pt x="817" y="557" on="0"/>
        <pt x="909" y="377" on="0"/>
        <pt x="909" y="260" on="1"/>
        <pt x="909" y="178" on="0"/>
        <pt x="860" y="59" on="0"/>
        <pt x="773" y="-3" on="0"/>
        <pt x="717" y="-3" on="1"/>
        <pt x="666" y="-3" on="0"/>
        <pt x="606" y="47" on="0"/>
        <pt x="594" y="86" on="1"/>
        <pt x="567" y="45" on="0"/>
        <pt x="481" y="1" on="0"/>
        <pt x="424" y="1" on="1"/>
        <pt x="376" y="1" on="0"/>
        <pt x="300" y="50" on="0"/>
        <pt x="256" y="139" on="0"/>
        <pt x="256" y="199" on="1"/>
        <pt x="256" y="282" on="0"/>
        <pt x="321" y="403" on="0"/>
        <pt x="426" y="466" on="0"/>
        <pt x="487" y="466" on="1"/>
        <pt x="594" y="466" on="0"/>
        <pt x="626" y="382" on="1"/>
        <pt x="646" y="459" on="1"/>
        <pt x="719" y="459" on="1"/>
        <pt x="678" y="155" on="1"/>
        <pt x="676" y="137" on="0"/>
        <pt x="676" y="129" on="1"/>
        <pt x="676" y="61" on="0"/>
        <pt x="737" y="61" on="1"/>
        <pt x="787" y="61" on="0"/>
        <pt x="842" y="162" on="0"/>
        <pt x="842" y="260" on="1"/>
        <pt x="842" y="362" on="0"/>
        <pt x="764" y="513" on="0"/>
        <pt x="612" y="596" on="0"/>
        <pt x="503" y="596" on="1"/>
        <pt x="390" y="596" on="0"/>
        <pt x="223" y="505" on="0"/>
        <pt x="133" y="337" on="0"/>
        <pt x="133" y="223" on="1"/>
        <pt x="133" y="116" on="0"/>
        <pt x="224" y="-44" on="0"/>
        <pt x="380" y="-128" on="0"/>
        <pt x="476" y="-128" on="1"/>
        <pt x="553" y="-128" on="0"/>
        <pt x="646" y="-96" on="0"/>
        <pt x="688" y="-66" on="1"/>
        <pt x="725" y="-116" on="1"/>
        <pt x="672" y="-153" on="0"/>
        <pt x="563" y="-192" on="0"/>
        <pt x="475" y="-192" on="1"/>
        <pt x="353" y="-192" on="0"/>
        <pt x="165" y="-90" on="0"/>
        <pt x="61" y="98" on="0"/>
        <pt x="61" y="223" on="1"/>
        <pt x="61" y="352" on="0"/>
        <pt x="171" y="550" on="0"/>
        <pt x="372" y="660" on="0"/>
        <pt x="503" y="660" on="1"/>
      </contour>
      <contour>
        <pt x="431" y="391" on="0"/>
        <pt x="350" y="294" on="0"/>
        <pt x="350" y="208" on="1"/>
        <pt x="350" y="146" on="0"/>
        <pt x="406" y="77" on="0"/>
        <pt x="457" y="77" on="1"/>
        <pt x="508" y="77" on="0"/>
        <pt x="586" y="142" on="0"/>
        <pt x="593" y="202" on="1"/>
        <pt x="601" y="261" on="1"/>
        <pt x="603" y="279" on="0"/>
        <pt x="603" y="288" on="1"/>
        <pt x="603" y="336" on="0"/>
        <pt x="552" y="391" on="0"/>
        <pt x="498" y="391" on="1"/>
      </contour>
    </TTGlyph>
    <TTGlyph name="at.case" xMin="61" yMin="-96" xMax="909" yMax="756">
      <component glyphName="at" x="0" y="96" flags="0x4"/>
    </TTGlyph>
    <TTGlyph name="atilde" xMin="49" yMin="-10" xMax="552" yMax="717">
      <component glyphName="a" x="0" y="0" flags="0x0"/>
      <component glyphName="tilde" x="25" y="0" flags="0x0"/>
    </TTGlyph>
    <TTGlyph name="atilde.sc" xMin="18" yMin="0" xMax="587" yMax="777">
      <component glyphName="a.sc" x="0" y="0" flags="0x0"/>
      <component glyphName="tilde" x="51" y="60" flags="0x4"/>
    </TTGlyph>
    <TTGlyph name="b" xMin="83" yMin="-10" xMax="573" yMax="725">
      <contour>
        <pt x="454" y="510" on="0"/>
        <pt x="573" y="371" on="0"/>
        <pt x="573" y="249" on="1"/>
        <pt x="573" y="127" on="0"/>
        <pt x="455" y="-10" on="0"/>
        <pt x="352" y="-10" on="1"/>
        <pt x="293" y="-10" on="0"/>
        <pt x="204" y="45" on="0"/>
        <pt x="182" y="92" on="1"/>
        <pt x="177" y="0" on="1"/>
        <pt x="83" y="0" on="1"/>
        <pt x="83" y="725" on="1"/>
        <pt x="190" y="725" on="1"/>
        <pt x="190" y="419" on="1"/>
        <pt x="213" y="461" on="0"/>
        <pt x="297" y="510" on="0"/>
        <pt x="351" y="510" on="1"/>
      </contour>
      <contour>
        <pt x="393" y="76" on="0"/>
        <pt x="466" y="168" on="0"/>
        <pt x="466" y="250" on="1"/>
        <pt x="466" y="332" on="0"/>
        <pt x="393" y="423" on="0"/>
        <pt x="328" y="423" on="1"/>
        <pt x="265" y="423" on="0"/>
        <pt x="190" y="334" on="0"/>
        <pt x="190" y="256" on="1"/>
        <pt x="190" y="244" on="1"/>
        <pt x="190" y="166" on="0"/>
        <pt x="265" y="76" on="0"/>
        <pt x="328" y="76" on="1"/>
      </contour>
    </TTGlyph>
    <TTGlyph name="b.sc" xMin="87" yMin="0" xMax="552" yMax="560">
      <contour>
        <pt x="87" y="560" on="1"/>
        <pt x="334" y="560" on="1"/>
        <pt x="436" y="560" on="0"/>
        <pt x="536" y="482" on="0"/>
        <pt x="536" y="408" on="1"/>
        <pt x="536" y="361" on="0"/>
        <pt x="481" y="294" on="0"/>
        <pt x="431" y="283" on="1"/>
        <pt x="431" y="282" on="1"/>
        <pt x="489" y="276" on="0"/>
        <pt x="552" y="204" on="0"/>
        <pt x="552" y="153" on="1"/>
        <pt x="552" y="80" on="0"/>
        <pt x="442" y="0" on="0"/>
        <pt x="339" y="0" on="1"/>
        <pt x="87" y="0" on="1"/>
      </contour>
      <contour>
        <pt x="327" y="321" on="1"/>
        <pt x="430" y="321" on="0"/>
        <pt x="430" y="400" on="1"/>
        <pt x="430" y="479" on="0"/>
        <pt x="327" y="479" on="1"/>
        <pt x="191" y="479" on="1"/>
        <pt x="191" y="321" on="1"/>
      </contour>
      <contour>
        <pt x="337" y="81" on="1"/>
        <pt x="445" y="81" on="0"/>
        <pt x="445" y="161" on="1"/>
        <pt x="445" y="242" on="0"/>
        <pt x="337" y="242" on="1"/>
        <pt x="191" y="242" on="1"/>
        <pt x="191" y="81" on="1"/>
      </contour>
    </TTGlyph>
    <TTGlyph name="backslash" xMin="25" yMin="-70" xMax="423" yMax="725">
      <contour>
        <pt x="125" y="725" on="1"/>
        <pt x="423" y="-70" on="1"/>
        <pt x="323" y="-70" on="1"/>
        <pt x="25" y="725" on="1"/>
      </contour>
    </TTGlyph>
    <TTGlyph name="bar" xMin="86" yMin="-168" xMax="180" yMax="725">
      <contour>
        <pt x="180" y="-168" on="1"/>
        <pt x="86" y="-168" on="1"/>
        <pt x="86" y="725" on="1"/>
        <pt x="180" y="725" on="1"/>
      </contour>
    </TTGlyph>
    <TTGlyph name="bar.case" xMin="86" yMin="-97" xMax="180" yMax="752">
      <contour>
        <pt x="180" y="-97" on="1"/>
        <pt x="86" y="-97" on="1"/>
        <pt x="86" y="752" on="1"/>
        <pt x="180" y="752" on="1"/>
      </contour>
    </TTGlyph>
    <TTGlyph name="braceleft" xMin="32" yMin="-190" xMax="336" yMax="747">
      <contour>
        <pt x="237" y="-82" on="0"/>
        <pt x="284" y="-112" on="0"/>
        <pt x="336" y="-112" on="1"/>
        <pt x="325" y="-190" on="1"/>
        <pt x="228" y="-190" on="0"/>
        <pt x="144" y="-123" on="0"/>
        <pt x="144" y="-52" on="1"/>
        <pt x="144" y="133" on="1"/>
        <pt x="144" y="189" on="0"/>
        <pt x="93" y="237" on="0"/>
        <pt x="32" y="237" on="1"/>
        <pt x="32" y="319" on="1"/>
        <pt x="93" y="319" on="0"/>
        <pt x="144" y="367" on="0"/>
        <pt x="144" y="423" on="1"/>
        <pt x="144" y="609" on="1"/>
        <pt x="144" y="680" on="0"/>
        <pt x="228" y="747" on="0"/>
        <pt x="325" y="747" on="1"/>
        <pt x="336" y="669" on="1"/>
        <pt x="284" y="669" on="0"/>
        <pt x="237" y="639" on="0"/>
        <pt x="237" y="607" on="1"/>
        <pt x="237" y="408" on="1"/>
        <pt x="237" y="306" on="0"/>
        <pt x="126" y="278" on="1"/>
        <pt x="237" y="252" on="0"/>
        <pt x="237" y="149" on="1"/>
        <pt x="237" y="-50" on="1"/>
      </contour>
    </TTGlyph>
    <TTGlyph name="braceleft.case" xMin="32" yMin="-118" xMax="336" yMax="774">
      <contour>
        <pt x="237" y="-11" on="0"/>
        <pt x="284" y="-40" on="0"/>
        <pt x="336" y="-40" on="1"/>
        <pt x="325" y="-118" on="1"/>
        <pt x="228" y="-118" on="0"/>
        <pt x="144" y="-51" on="0"/>
        <pt x="144" y="20" on="1"/>
        <pt x="144" y="183" on="1"/>
        <pt x="144" y="239" on="0"/>
        <pt x="93" y="287" on="0"/>
        <pt x="32" y="287" on="1"/>
        <pt x="32" y="369" on="1"/>
        <pt x="93" y="369" on="0"/>
        <pt x="144" y="417" on="0"/>
        <pt x="144" y="473" on="1"/>
        <pt x="144" y="636" on="1"/>
        <pt x="144" y="707" on="0"/>
        <pt x="228" y="774" on="0"/>
        <pt x="325" y="774" on="1"/>
        <pt x="336" y="696" on="1"/>
        <pt x="284" y="696" on="0"/>
        <pt x="237" y="667" on="0"/>
        <pt x="237" y="635" on="1"/>
        <pt x="237" y="458" on="1"/>
        <pt x="237" y="356" on="0"/>
        <pt x="126" y="328" on="1"/>
        <pt x="237" y="302" on="0"/>
        <pt x="237" y="199" on="1"/>
        <pt x="237" y="21" on="1"/>
      </contour>
    </TTGlyph>
    <TTGlyph name="braceright" xMin="36" yMin="-190" xMax="340" yMax="747">
      <contour>
        <pt x="228" y="367" on="0"/>
        <pt x="279" y="319" on="0"/>
        <pt x="340" y="319" on="1"/>
        <pt x="340" y="237" on="1"/>
        <pt x="279" y="237" on="0"/>
        <pt x="228" y="189" on="0"/>
        <pt x="228" y="133" on="1"/>
        <pt x="228" y="-52" on="1"/>
        <pt x="228" y="-123" on="0"/>
        <pt x="144" y="-190" on="0"/>
        <pt x="47" y="-190" on="1"/>
        <pt x="36" y="-112" on="1"/>
        <pt x="88" y="-112" on="0"/>
        <pt x="135" y="-82" on="0"/>
        <pt x="135" y="-50" on="1"/>
        <pt x="135" y="149" on="1"/>
        <pt x="135" y="252" on="0"/>
        <pt x="246" y="278" on="1"/>
        <pt x="135" y="306" on="0"/>
        <pt x="135" y="408" on="1"/>
        <pt x="135" y="607" on="1"/>
        <pt x="135" y="639" on="0"/>
        <pt x="88" y="669" on="0"/>
        <pt x="36" y="669" on="1"/>
        <pt x="47" y="747" on="1"/>
        <pt x="144" y="747" on="0"/>
        <pt x="228" y="680" on="0"/>
        <pt x="228" y="609" on="1"/>
        <pt x="228" y="423" on="1"/>
      </contour>
    </TTGlyph>
    <TTGlyph name="braceright.case" xMin="36" yMin="-118" xMax="340" yMax="774">
      <contour>
        <pt x="228" y="417" on="0"/>
        <pt x="279" y="369" on="0"/>
        <pt x="340" y="369" on="1"/>
        <pt x="340" y="287" on="1"/>
        <pt x="279" y="287" on="0"/>
        <pt x="228" y="239" on="0"/>
        <pt x="228" y="183" on="1"/>
        <pt x="228" y="20" on="1"/>
        <pt x="228" y="-51" on="0"/>
        <pt x="144" y="-118" on="0"/>
        <pt x="47" y="-118" on="1"/>
        <pt x="36" y="-40" on="1"/>
        <pt x="88" y="-40" on="0"/>
        <pt x="135" y="-11" on="0"/>
        <pt x="135" y="21" on="1"/>
        <pt x="135" y="199" on="1"/>
        <pt x="135" y="302" on="0"/>
        <pt x="246" y="328" on="1"/>
        <pt x="135" y="356" on="0"/>
        <pt x="135" y="458" on="1"/>
        <pt x="135" y="635" on="1"/>
        <pt x="135" y="667" on="0"/>
        <pt x="88" y="696" on="0"/>
        <pt x="36" y="696" on="1"/>
        <pt x="47" y="774" on="1"/>
        <pt x="144" y="774" on="0"/>
        <pt x="228" y="707" on="0"/>
        <pt x="228" y="636" on="1"/>
        <pt x="228" y="473" on="1"/>
      </contour>
    </TTGlyph>
    <TTGlyph name="bracketleft" xMin="86" yMin="-168" xMax="330" yMax="725">
      <contour>
        <pt x="183" y="640" on="1"/>
        <pt x="183" y="-83" on="1"/>
        <pt x="330" y="-83" on="1"/>
        <pt x="330" y="-168" on="1"/>
        <pt x="86" y="-168" on="1"/>
        <pt x="86" y="725" on="1"/>
        <pt x="330" y="725" on="1"/>
        <pt x="330" y="640" on="1"/>
      </contour>
    </TTGlyph>
    <TTGlyph name="bracketleft.case" xMin="86" yMin="-97" xMax="330" yMax="752">
      <contour>
        <pt x="183" y="667" on="1"/>
        <pt x="183" y="-12" on="1"/>
        <pt x="330" y="-12" on="1"/>
        <pt x="330" y="-97" on="1"/>
        <pt x="86" y="-97" on="1"/>
        <pt x="86" y="752" on="1"/>
        <pt x="330" y="752" on="1"/>
        <pt x="330" y="667" on="1"/>
      </contour>
    </TTGlyph>
    <TTGlyph name="bracketleftinferior" xMin="61" yMin="-269" xMax="212" yMax="288">
      <component glyphName="bracketleftsuperior" x="0" y="-522" flags="0x4"/>
    </TTGlyph>
    <TTGlyph name="bracketleftsuperior" xMin="61" yMin="253" xMax="212" yMax="810">
      <contour>
        <pt x="134" y="748" on="1"/>
        <pt x="134" y="315" on="1"/>
        <pt x="212" y="315" on="1"/>
        <pt x="212" y="253" on="1"/>
        <pt x="61" y="253" on="1"/>
        <pt x="61" y="810" on="1"/>
        <pt x="212" y="810" on="1"/>
        <pt x="212" y="748" on="1"/>
      </contour>
    </TTGlyph>
    <TTGlyph name="bracketright" xMin="31" yMin="-168" xMax="275" yMax="725">
      <contour>
        <pt x="275" y="-168" on="1"/>
        <pt x="31" y="-168" on="1"/>
        <pt x="31" y="-83" on="1"/>
        <pt x="178" y="-83" on="1"/>
        <pt x="178" y="640" on="1"/>
        <pt x="31" y="640" on="1"/>
        <pt x="31" y="725" on="1"/>
        <pt x="275" y="725" on="1"/>
      </contour>
    </TTGlyph>
    <TTGlyph name="bracketright.case" xMin="31" yMin="-97" xMax="275" yMax="752">
      <contour>
        <pt x="275" y="-97" on="1"/>
        <pt x="31" y="-97" on="1"/>
        <pt x="31" y="-12" on="1"/>
        <pt x="178" y="-12" on="1"/>
        <pt x="178" y="667" on="1"/>
        <pt x="31" y="667" on="1"/>
        <pt x="31" y="752" on="1"/>
        <pt x="275" y="752" on="1"/>
      </contour>
    </TTGlyph>
    <TTGlyph name="bracketrightinferior" xMin="5" yMin="-269" xMax="156" yMax="288">
      <component glyphName="bracketrightsuperior" x="0" y="-522" flags="0x4"/>
    </TTGlyph>
    <TTGlyph name="bracketrightsuperior" xMin="5" yMin="253" xMax="156" yMax="810">
      <contour>
        <pt x="156" y="253" on="1"/>
        <pt x="5" y="253" on="1"/>
        <pt x="5" y="315" on="1"/>
        <pt x="83" y="315" on="1"/>
        <pt x="83" y="748" on="1"/>
        <pt x="5" y="748" on="1"/>
        <pt x="5" y="810" on="1"/>
        <pt x="156" y="810" on="1"/>
      </contour>
    </TTGlyph>
    <TTGlyph name="breve" xMin="96" yMin="570" xMax="404" yMax="723">
      <contour>
        <pt x="404" y="654" on="0"/>
        <pt x="320" y="570" on="0"/>
        <pt x="250" y="570" on="1"/>
        <pt x="180" y="570" on="0"/>
        <pt x="96" y="654" on="0"/>
        <pt x="96" y="723" on="1"/>
        <pt x="175" y="723" on="1"/>
        <pt x="175" y="689" on="0"/>
        <pt x="217" y="641" on="0"/>
        <pt x="250" y="641" on="1"/>
        <pt x="283" y="641" on="0"/>
        <pt x="325" y="689" on="0"/>
        <pt x="325" y="723" on="1"/>
        <pt x="404" y="723" on="1"/>
      </contour>
    </TTGlyph>
    <TTGlyph name="brokenbar" xMin="83" yMin="-168" xMax="177" yMax="725">
      <contour>
        <pt x="177" y="357" on="1"/>
        <pt x="83" y="357" on="1"/>
        <pt x="83" y="725" on="1"/>
        <pt x="177" y="725" on="1"/>
      </contour>
      <contour>
        <pt x="177" y="-168" on="1"/>
        <pt x="83" y="-168" on="1"/>
        <pt x="83" y="200" on="1"/>
        <pt x="177" y="200" on="1"/>
      </contour>
    </TTGlyph>
    <TTGlyph name="bullet" xMin="81" yMin="206" xMax="349" yMax="465">
      <contour>
        <pt x="275" y="465" on="0"/>
        <pt x="349" y="393" on="0"/>
        <pt x="349" y="336" on="1"/>
        <pt x="349" y="278" on="0"/>
        <pt x="275" y="206" on="0"/>
        <pt x="215" y="206" on="1"/>
        <pt x="156" y="206" on="0"/>
        <pt x="81" y="278" on="0"/>
        <pt x="81" y="336" on="1"/>
        <pt x="81" y="393" on="0"/>
        <pt x="156" y="465" on="0"/>
        <pt x="215" y="465" on="1"/>
      </contour>
    </TTGlyph>
    <TTGlyph name="c" xMin="54" yMin="-10" xMax="524" yMax="510">
      <contour>
        <pt x="467" y="510" on="0"/>
        <pt x="520" y="370" on="1"/>
        <pt x="420" y="330" on="1"/>
        <pt x="394" y="425" on="0"/>
        <pt x="303" y="425" on="1"/>
        <pt x="236" y="425" on="0"/>
        <pt x="162" y="333" on="0"/>
        <pt x="162" y="249" on="1"/>
        <pt x="162" y="165" on="0"/>
        <pt x="236" y="75" on="0"/>
        <pt x="303" y="75" on="1"/>
        <pt x="354" y="75" on="0"/>
        <pt x="416" y="125" on="0"/>
        <pt x="426" y="172" on="1"/>
        <pt x="524" y="139" on="1"/>
        <pt x="502" y="69" on="0"/>
        <pt x="390" y="-10" on="0"/>
        <pt x="305" y="-10" on="1"/>
        <pt x="187" y="-10" on="0"/>
        <pt x="54" y="128" on="0"/>
        <pt x="54" y="250" on="1"/>
        <pt x="54" y="372" on="0"/>
        <pt x="186" y="510" on="0"/>
        <pt x="303" y="510" on="1"/>
      </contour>
    </TTGlyph>
    <TTGlyph name="c.sc" xMin="54" yMin="-8" xMax="582" yMax="568">
      <contour>
        <pt x="563" y="78" on="0"/>
        <pt x="429" y="-8" on="0"/>
        <pt x="330" y="-8" on="1"/>
        <pt x="247" y="-8" on="0"/>
        <pt x="122" y="62" on="0"/>
        <pt x="54" y="192" on="0"/>
        <pt x="54" y="280" on="1"/>
        <pt x="54" y="369" on="0"/>
        <pt x="122" y="499" on="0"/>
        <pt x="249" y="568" on="0"/>
        <pt x="334" y="568" on="1"/>
        <pt x="426" y="568" on="0"/>
        <pt x="552" y="486" on="0"/>
        <pt x="573" y="409" on="1"/>
        <pt x="474" y="372" on="1"/>
        <pt x="462" y="429" on="0"/>
        <pt x="393" y="481" on="0"/>
        <pt x="332" y="481" on="1"/>
        <pt x="254" y="481" on="0"/>
        <pt x="161" y="375" on="0"/>
        <pt x="161" y="280" on="1"/>
        <pt x="161" y="185" on="0"/>
        <pt x="254" y="79" on="0"/>
        <pt x="329" y="79" on="1"/>
        <pt x="398" y="79" on="0"/>
        <pt x="473" y="132" on="0"/>
        <pt x="482" y="187" on="1"/>
        <pt x="582" y="156" on="1"/>
      </contour>
    </TTGlyph>
    <TTGlyph name="c_t" xMin="54" yMin="-10" xMax="903" yMax="729">
      <contour>
        <pt x="903" y="33" on="1"/>
        <pt x="880" y="13" on="0"/>
        <pt x="811" y="-10" on="0"/>
        <pt x="771" y="-10" on="1"/>
        <pt x="702" y="-10" on="0"/>
        <pt x="618" y="59" on="0"/>
        <pt x="618" y="132" on="1"/>
        <pt x="618" y="533" on="1"/>
        <pt x="618" y="590" on="0"/>
        <pt x="577" y="645" on="0"/>
        <pt x="541" y="645" on="1"/>
        <pt x="505" y="645" on="0"/>
        <pt x="466" y="600" on="0"/>
        <pt x="466" y="546" on="1"/>
        <pt x="466" y="470" on="0"/>
        <pt x="518" y="370" on="1"/>
        <pt x="418" y="330" on="1"/>
        <pt x="405" y="376" on="0"/>
        <pt x="347" y="425" on="0"/>
        <pt x="303" y="425" on="1"/>
        <pt x="236" y="425" on="0"/>
        <pt x="162" y="333" on="0"/>
        <pt x="162" y="249" on="1"/>
        <pt x="162" y="165" on="0"/>
        <pt x="236" y="75" on="0"/>
        <pt x="303" y="75" on="1"/>
        <pt x="351" y="75" on="0"/>
        <pt x="413" y="125" on="0"/>
        <pt x="426" y="172" on="1"/>
        <pt x="522" y="140" on="1"/>
        <pt x="502" y="70" on="0"/>
        <pt x="390" y="-10" on="0"/>
        <pt x="305" y="-10" on="1"/>
        <pt x="187" y="-10" on="0"/>
        <pt x="54" y="128" on="0"/>
        <pt x="54" y="250" on="1"/>
        <pt x="54" y="372" on="0"/>
        <pt x="186" y="510" on="0"/>
        <pt x="303" y="510" on="1"/>
        <pt x="355" y="510" on="0"/>
        <pt x="391" y="492" on="1"/>
        <pt x="378" y="525" on="0"/>
        <pt x="378" y="563" on="1"/>
        <pt x="378" y="646" on="0"/>
        <pt x="473" y="729" on="0"/>
        <pt x="549" y="729" on="1"/>
        <pt x="624" y="729" on="0"/>
        <pt x="725" y="646" on="0"/>
        <pt x="725" y="563" on="1"/>
        <pt x="725" y="500" on="1"/>
        <pt x="899" y="500" on="1"/>
        <pt x="899" y="416" on="1"/>
        <pt x="725" y="416" on="1"/>
        <pt x="725" y="150" on="1"/>
        <pt x="725" y="114" on="0"/>
        <pt x="763" y="79" on="0"/>
        <pt x="797" y="79" on="1"/>
        <pt x="822" y="79" on="0"/>
        <pt x="861" y="95" on="0"/>
        <pt x="878" y="111" on="1"/>
      </contour>
    </TTGlyph>
    <TTGlyph name="cacute" xMin="54" yMin="-10" xMax="524" yMax="746">
      <component glyphName="c" x="0" y="0" flags="0x0"/>
      <component glyphName="acute" x="38" y="0" flags="0x0"/>
    </TTGlyph>
    <TTGlyph name="cacute.sc" xMin="54" yMin="-8" xMax="582" yMax="797">
      <component glyphName="c.sc" x="0" y="0" flags="0x0"/>
      <component glyphName="acutecomb.cap" x="334" y="-100" flags="0x4"/>
    </TTGlyph>
    <TTGlyph name="caron" xMin="81" yMin="578" xMax="419" yMax="746">
      <contour>
        <pt x="306" y="578" on="1"/>
        <pt x="194" y="578" on="1"/>
        <pt x="81" y="746" on="1"/>
        <pt x="169" y="746" on="1"/>
        <pt x="250" y="639" on="1"/>
        <pt x="331" y="746" on="1"/>
        <pt x="419" y="746" on="1"/>
      </contour>
    </TTGlyph>
    <TTGlyph name="ccaron" xMin="54" yMin="-10" xMax="524" yMax="746">
      <component glyphName="c" x="0" y="0" flags="0x0"/>
      <component glyphName="caron" x="45" y="0" flags="0x0"/>
    </TTGlyph>
    <TTGlyph name="ccaron.sc" xMin="54" yMin="-8" xMax="582" yMax="797">
      <component glyphName="c.sc" x="0" y="0" flags="0x0"/>
      <component glyphName="uni030C.cap" x="334" y="-100" flags="0x4"/>
    </TTGlyph>
    <TTGlyph name="ccedilla" xMin="54" yMin="-215" xMax="524" yMax="510">
      <contour>
        <pt x="506" y="82" on="0"/>
        <pt x="425" y="8" on="0"/>
        <pt x="364" y="-4" on="1"/>
        <pt x="392" y="-25" on="0"/>
        <pt x="421" y="-77" on="0"/>
        <pt x="421" y="-105" on="1"/>
        <pt x="421" y="-153" on="0"/>
        <pt x="353" y="-215" on="0"/>
        <pt x="297" y="-215" on="1"/>
        <pt x="258" y="-215" on="0"/>
        <pt x="203" y="-197" on="0"/>
        <pt x="182" y="-178" on="1"/>
        <pt x="215" y="-116" on="1"/>
        <pt x="228" y="-129" on="0"/>
        <pt x="264" y="-146" on="0"/>
        <pt x="285" y="-146" on="1"/>
        <pt x="309" y="-146" on="0"/>
        <pt x="341" y="-115" on="0"/>
        <pt x="341" y="-90" on="1"/>
        <pt x="341" y="-64" on="0"/>
        <pt x="309" y="-27" on="0"/>
        <pt x="267" y="-8" on="1"/>
        <pt x="166" y="3" on="0"/>
        <pt x="54" y="138" on="0"/>
        <pt x="54" y="250" on="1"/>
        <pt x="54" y="372" on="0"/>
        <pt x="186" y="510" on="0"/>
        <pt x="303" y="510" on="1"/>
        <pt x="467" y="510" on="0"/>
        <pt x="520" y="370" on="1"/>
        <pt x="420" y="330" on="1"/>
        <pt x="394" y="425" on="0"/>
        <pt x="303" y="425" on="1"/>
        <pt x="236" y="425" on="0"/>
        <pt x="162" y="333" on="0"/>
        <pt x="162" y="249" on="1"/>
        <pt x="162" y="165" on="0"/>
        <pt x="236" y="75" on="0"/>
        <pt x="303" y="75" on="1"/>
        <pt x="354" y="75" on="0"/>
        <pt x="416" y="125" on="0"/>
        <pt x="426" y="172" on="1"/>
        <pt x="524" y="139" on="1"/>
      </contour>
    </TTGlyph>
    <TTGlyph name="ccedilla.sc" xMin="54" yMin="-215" xMax="582" yMax="568">
      <contour>
        <pt x="566" y="91" on="0"/>
        <pt x="467" y="9" on="0"/>
        <pt x="392" y="-3" on="1"/>
        <pt x="421" y="-24" on="0"/>
        <pt x="451" y="-77" on="0"/>
        <pt x="451" y="-105" on="1"/>
        <pt x="451" y="-153" on="0"/>
        <pt x="383" y="-215" on="0"/>
        <pt x="327" y="-215" on="1"/>
        <pt x="288" y="-215" on="0"/>
        <pt x="233" y="-197" on="0"/>
        <pt x="212" y="-178" on="1"/>
        <pt x="245" y="-116" on="1"/>
        <pt x="258" y="-129" on="0"/>
        <pt x="294" y="-146" on="0"/>
        <pt x="315" y="-146" on="1"/>
        <pt x="339" y="-146" on="0"/>
        <pt x="371" y="-115" on="0"/>
        <pt x="371" y="-90" on="1"/>
        <pt x="371" y="-63" on="0"/>
        <pt x="337" y="-26" on="0"/>
        <pt x="292" y="-6" on="1"/>
        <pt x="182" y="5" on="0"/>
        <pt x="54" y="157" on="0"/>
        <pt x="54" y="280" on="1"/>
        <pt x="54" y="369" on="0"/>
        <pt x="122" y="499" on="0"/>
        <pt x="249" y="568" on="0"/>
        <pt x="334" y="568" on="1"/>
        <pt x="426" y="568" on="0"/>
        <pt x="552" y="486" on="0"/>
        <pt x="573" y="409" on="1"/>
        <pt x="474" y="372" on="1"/>
        <pt x="462" y="429" on="0"/>
        <pt x="393" y="481" on="0"/>
        <pt x="332" y="481" on="1"/>
        <pt x="254" y="481" on="0"/>
        <pt x="161" y="375" on="0"/>
        <pt x="161" y="280" on="1"/>
        <pt x="161" y="185" on="0"/>
        <pt x="254" y="79" on="0"/>
        <pt x="329" y="79" on="1"/>
        <pt x="398" y="79" on="0"/>
        <pt x="473" y="132" on="0"/>
        <pt x="482" y="187" on="1"/>
        <pt x="582" y="156" on="1"/>
      </contour>
    </TTGlyph>
    <TTGlyph name="cedilla" xMin="139" yMin="-215" xMax="378" yMax="31">
      <contour>
        <pt x="240" y="31" on="1"/>
        <pt x="306" y="15" on="0"/>
        <pt x="378" y="-60" on="0"/>
        <pt x="378" y="-105" on="1"/>
        <pt x="378" y="-153" on="0"/>
        <pt x="310" y="-215" on="0"/>
        <pt x="254" y="-215" on="1"/>
        <pt x="215" y="-215" on="0"/>
        <pt x="160" y="-197" on="0"/>
        <pt x="139" y="-178" on="1"/>
        <pt x="172" y="-116" on="1"/>
        <pt x="185" y="-129" on="0"/>
        <pt x="221" y="-146" on="0"/>
        <pt x="242" y="-146" on="1"/>
        <pt x="266" y="-146" on="0"/>
        <pt x="298" y="-115" on="0"/>
        <pt x="298" y="-90" on="1"/>
        <pt x="298" y="-60" on="0"/>
        <pt x="256" y="-20" on="0"/>
        <pt x="197" y="3" on="1"/>
      </contour>
    </TTGlyph>
    <TTGlyph name="cent" xMin="61" yMin="-100" xMax="528" yMax="600">
      <contour>
        <pt x="511" y="76" on="0"/>
        <pt x="415" y="-2" on="0"/>
        <pt x="342" y="-9" on="1"/>
        <pt x="342" y="-100" on="1"/>
        <pt x="268" y="-100" on="1"/>
        <pt x="268" y="-7" on="1"/>
        <pt x="169" y="5" on="0"/>
        <pt x="61" y="139" on="0"/>
        <pt x="61" y="250" on="1"/>
        <pt x="61" y="361" on="0"/>
        <pt x="170" y="496" on="0"/>
        <pt x="268" y="508" on="1"/>
        <pt x="268" y="600" on="1"/>
        <pt x="342" y="600" on="1"/>
        <pt x="342" y="508" on="1"/>
        <pt x="414" y="502" on="0"/>
        <pt x="504" y="429" on="0"/>
        <pt x="524" y="370" on="1"/>
        <pt x="433" y="331" on="1"/>
        <pt x="410" y="414" on="0"/>
        <pt x="342" y="429" on="1"/>
        <pt x="342" y="70" on="1"/>
        <pt x="419" y="85" on="0"/>
        <pt x="440" y="170" on="1"/>
        <pt x="528" y="140" on="1"/>
      </contour>
      <contour>
        <pt x="158" y="173" on="0"/>
        <pt x="215" y="83" on="0"/>
        <pt x="268" y="71" on="1"/>
        <pt x="268" y="429" on="1"/>
        <pt x="214" y="416" on="0"/>
        <pt x="158" y="325" on="0"/>
        <pt x="158" y="249" on="1"/>
      </contour>
    </TTGlyph>
    <TTGlyph name="cent.tf" xMin="63" yMin="-100" xMax="530" yMax="600">
      <component glyphName="cent" x="2" y="0" flags="0x0"/>
    </TTGlyph>
    <TTGlyph name="circle" xMin="37" yMin="-10" xMax="563" yMax="510">
      <contour>
        <pt x="227" y="-10" on="0"/>
        <pt x="106" y="58" on="0"/>
        <pt x="37" y="177" on="0"/>
        <pt x="37" y="250" on="1"/>
        <pt x="37" y="323" on="0"/>
        <pt x="106" y="442" on="0"/>
        <pt x="227" y="510" on="0"/>
        <pt x="300" y="510" on="1"/>
        <pt x="373" y="510" on="0"/>
        <pt x="494" y="442" on="0"/>
        <pt x="563" y="323" on="0"/>
        <pt x="563" y="250" on="1"/>
        <pt x="563" y="177" on="0"/>
        <pt x="494" y="58" on="0"/>
        <pt x="373" y="-10" on="0"/>
        <pt x="300" y="-10" on="1"/>
      </contour>
      <contour>
        <pt x="348" y="77" on="0"/>
        <pt x="425" y="122" on="0"/>
        <pt x="469" y="202" on="0"/>
        <pt x="469" y="250" on="1"/>
        <pt x="469" y="298" on="0"/>
        <pt x="425" y="378" on="0"/>
        <pt x="348" y="423" on="0"/>
        <pt x="300" y="423" on="1"/>
        <pt x="252" y="423" on="0"/>
        <pt x="175" y="378" on="0"/>
        <pt x="131" y="298" on="0"/>
        <pt x="131" y="250" on="1"/>
        <pt x="131" y="202" on="0"/>
        <pt x="175" y="122" on="0"/>
        <pt x="252" y="77" on="0"/>
        <pt x="300" y="77" on="1"/>
      </contour>
    </TTGlyph>
    <TTGlyph name="circle.case" xMin="52" yMin="-10" xMax="735" yMax="670">
      <contour>
        <pt x="298" y="-10" on="0"/>
        <pt x="141" y="79" on="0"/>
        <pt x="52" y="234" on="0"/>
        <pt x="52" y="330" on="1"/>
        <pt x="52" y="426" on="0"/>
        <pt x="141" y="581" on="0"/>
        <pt x="298" y="670" on="0"/>
        <pt x="394" y="670" on="1"/>
        <pt x="490" y="670" on="0"/>
        <pt x="646" y="581" on="0"/>
        <pt x="735" y="426" on="0"/>
        <pt x="735" y="330" on="1"/>
        <pt x="735" y="234" on="0"/>
        <pt x="646" y="79" on="0"/>
        <pt x="490" y="-10" on="0"/>
        <pt x="394" y="-10" on="1"/>
      </contour>
      <contour>
        <pt x="465" y="77" on="0"/>
        <pt x="578" y="142" on="0"/>
        <pt x="642" y="258" on="0"/>
        <pt x="642" y="330" on="1"/>
        <pt x="642" y="402" on="0"/>
        <pt x="578" y="518" on="0"/>
        <pt x="465" y="583" on="0"/>
        <pt x="394" y="583" on="1"/>
        <pt x="323" y="583" on="0"/>
        <pt x="210" y="518" on="0"/>
        <pt x="146" y="403" on="0"/>
        <pt x="146" y="330" on="1"/>
        <pt x="146" y="257" on="0"/>
        <pt x="210" y="142" on="0"/>
        <pt x="323" y="77" on="0"/>
        <pt x="394" y="77" on="1"/>
      </contour>
    </TTGlyph>
    <TTGlyph name="circumflex" xMin="81" yMin="571" xMax="419" yMax="739">
      <contour>
        <pt x="331" y="571" on="1"/>
        <pt x="250" y="678" on="1"/>
        <pt x="169" y="571" on="1"/>
        <pt x="81" y="571" on="1"/>
        <pt x="194" y="739" on="1"/>
        <pt x="306" y="739" on="1"/>
        <pt x="419" y="571" on="1"/>
      </contour>
    </TTGlyph>
    <TTGlyph name="colon" xMin="73" yMin="-10" xMax="224" yMax="510">
      <component glyphName="period" x="12" y="375" flags="0x4"/>
      <component glyphName="period" x="12" y="0" flags="0x0"/>
    </TTGlyph>
    <TTGlyph name="colon.tf" xMin="75" yMin="-10" xMax="226" yMax="510">
      <component glyphName="period" x="14" y="375" flags="0x4"/>
      <component glyphName="period" x="14" y="0" flags="0x0"/>
    </TTGlyph>
    <TTGlyph name="coloninferior" xMin="45" yMin="-195" xMax="153" yMax="148">
      <component glyphName="periodsuperior" x="0" y="-522" flags="0x4"/>
      <component glyphName="periodsuperior" x="0" y="-282" flags="0x4"/>
    </TTGlyph>
    <TTGlyph name="colonsuperior" xMin="45" yMin="327" xMax="153" yMax="670">
      <component glyphName="periodsuperior" x="0" y="0" flags="0x0"/>
      <component glyphName="periodsuperior" x="0" y="240" flags="0x4"/>
    </TTGlyph>
    <TTGlyph name="comma" xMin="51" yMin="-150" xMax="221" yMax="135">
      <contour>
        <pt x="176" y="135" on="0"/>
        <pt x="221" y="76" on="0"/>
        <pt x="221" y="29" on="1"/>
        <pt x="221" y="-28" on="0"/>
        <pt x="161" y="-123" on="0"/>
        <pt x="103" y="-150" on="1"/>
        <pt x="51" y="-106" on="1"/>
        <pt x="92" y="-92" on="0"/>
        <pt x="148" y="-37" on="0"/>
        <pt x="157" y="-3" on="1"/>
        <pt x="152" y="-1" on="1"/>
        <pt x="144" y="-9" on="0"/>
        <pt x="124" y="-9" on="1"/>
        <pt x="99" y="-9" on="0"/>
        <pt x="60" y="28" on="0"/>
        <pt x="60" y="61" on="1"/>
        <pt x="60" y="93" on="0"/>
        <pt x="104" y="135" on="0"/>
        <pt x="136" y="135" on="1"/>
      </contour>
    </TTGlyph>
    <TTGlyph name="comma.tf" xMin="67" yMin="-150" xMax="237" yMax="135">
      <component glyphName="comma" x="16" y="0" flags="0x0"/>
    </TTGlyph>
    <TTGlyph name="commainferior" xMin="40" yMin="-295" xMax="161" yMax="-92">
      <component glyphName="commasuperior" x="0" y="-522" flags="0x4"/>
    </TTGlyph>
    <TTGlyph name="commasuperior" xMin="40" yMin="227" xMax="161" yMax="430">
      <contour>
        <pt x="129" y="430" on="0"/>
        <pt x="161" y="388" on="0"/>
        <pt x="161" y="354" on="1"/>
        <pt x="161" y="313" on="0"/>
        <pt x="119" y="246" on="0"/>
        <pt x="77" y="227" on="1"/>
        <pt x="40" y="257" on="1"/>
        <pt x="69" y="268" on="0"/>
        <pt x="110" y="310" on="0"/>
        <pt x="111" y="330" on="1"/>
        <pt x="108" y="331" on="1"/>
        <pt x="102" y="327" on="0"/>
        <pt x="94" y="327" on="1"/>
        <pt x="75" y="327" on="0"/>
        <pt x="45" y="355" on="0"/>
        <pt x="45" y="379" on="1"/>
        <pt x="45" y="403" on="0"/>
        <pt x="74" y="430" on="0"/>
        <pt x="100" y="430" on="1"/>
      </contour>
    </TTGlyph>
    <TTGlyph name="copyright" xMin="60" yMin="-10" xMax="746" yMax="670">
      <contour>
        <pt x="506" y="670" on="0"/>
        <pt x="661" y="586" on="0"/>
        <pt x="746" y="432" on="0"/>
        <pt x="746" y="330" on="1"/>
        <pt x="746" y="228" on="0"/>
        <pt x="661" y="74" on="0"/>
        <pt x="506" y="-10" on="0"/>
        <pt x="403" y="-10" on="1"/>
        <pt x="300" y="-10" on="0"/>
        <pt x="145" y="74" on="0"/>
        <pt x="60" y="228" on="0"/>
        <pt x="60" y="330" on="1"/>
        <pt x="60" y="432" on="0"/>
        <pt x="145" y="586" on="0"/>
        <pt x="300" y="670" on="0"/>
        <pt x="403" y="670" on="1"/>
      </contour>
      <contour>
        <pt x="323" y="599" on="0"/>
        <pt x="202" y="533" on="0"/>
        <pt x="136" y="411" on="0"/>
        <pt x="136" y="330" on="1"/>
        <pt x="136" y="249" on="0"/>
        <pt x="202" y="127" on="0"/>
        <pt x="323" y="61" on="0"/>
        <pt x="403" y="61" on="1"/>
        <pt x="483" y="61" on="0"/>
        <pt x="604" y="127" on="0"/>
        <pt x="669" y="249" on="0"/>
        <pt x="669" y="330" on="1"/>
        <pt x="669" y="411" on="0"/>
        <pt x="604" y="533" on="0"/>
        <pt x="483" y="599" on="0"/>
        <pt x="403" y="599" on="1"/>
      </contour>
      <contour>
        <pt x="528" y="515" on="0"/>
        <pt x="570" y="415" on="1"/>
        <pt x="500" y="381" on="1"/>
        <pt x="488" y="410" on="0"/>
        <pt x="444" y="438" on="0"/>
        <pt x="409" y="438" on="1"/>
        <pt x="362" y="438" on="0"/>
        <pt x="308" y="380" on="0"/>
        <pt x="308" y="328" on="1"/>
        <pt x="308" y="276" on="0"/>
        <pt x="362" y="218" on="0"/>
        <pt x="409" y="218" on="1"/>
        <pt x="483" y="218" on="0"/>
        <pt x="506" y="279" on="1"/>
        <pt x="572" y="250" on="1"/>
        <pt x="551" y="196" on="0"/>
        <pt x="471" y="142" on="0"/>
        <pt x="407" y="142" on="1"/>
        <pt x="323" y="142" on="0"/>
        <pt x="226" y="242" on="0"/>
        <pt x="226" y="328" on="1"/>
        <pt x="226" y="415" on="0"/>
        <pt x="323" y="515" on="0"/>
        <pt x="407" y="515" on="1"/>
      </contour>
    </TTGlyph>
    <TTGlyph name="currency" xMin="60" yMin="59" xMax="600" yMax="598">
      <contour>
        <pt x="541" y="263" on="0"/>
        <pt x="508" y="210" on="1"/>
        <pt x="600" y="124" on="1"/>
        <pt x="534" y="59" on="1"/>
        <pt x="445" y="150" on="1"/>
        <pt x="395" y="119" on="0"/>
        <pt x="330" y="119" on="1"/>
        <pt x="265" y="119" on="0"/>
        <pt x="212" y="151" on="1"/>
        <pt x="125" y="59" on="1"/>
        <pt x="60" y="124" on="1"/>
        <pt x="150" y="212" on="1"/>
        <pt x="118" y="265" on="0"/>
        <pt x="118" y="329" on="1"/>
        <pt x="118" y="395" on="0"/>
        <pt x="151" y="447" on="1"/>
        <pt x="60" y="533" on="1"/>
        <pt x="125" y="598" on="1"/>
        <pt x="214" y="507" on="1"/>
        <pt x="265" y="538" on="0"/>
        <pt x="330" y="538" on="1"/>
        <pt x="397" y="538" on="0"/>
        <pt x="447" y="506" on="1"/>
        <pt x="534" y="598" on="1"/>
        <pt x="600" y="533" on="1"/>
        <pt x="510" y="444" on="1"/>
        <pt x="541" y="394" on="0"/>
        <pt x="541" y="329" on="1"/>
      </contour>
      <contour>
        <pt x="381" y="205" on="0"/>
        <pt x="446" y="275" on="0"/>
        <pt x="446" y="329" on="1"/>
        <pt x="446" y="383" on="0"/>
        <pt x="381" y="452" on="0"/>
        <pt x="330" y="452" on="1"/>
        <pt x="279" y="452" on="0"/>
        <pt x="213" y="383" on="0"/>
        <pt x="213" y="329" on="1"/>
        <pt x="213" y="275" on="0"/>
        <pt x="279" y="205" on="0"/>
        <pt x="330" y="205" on="1"/>
      </contour>
    </TTGlyph>
    <TTGlyph name="currency.tf" xMin="32" yMin="59" xMax="572" yMax="598">
      <component glyphName="currency" x="-28" y="0" flags="0x0"/>
    </TTGlyph>
    <TTGlyph name="d" xMin="56" yMin="-10" xMax="546" yMax="725">
      <contour>
        <pt x="546" y="725" on="1"/>
        <pt x="546" y="0" on="1"/>
        <pt x="452" y="0" on="1"/>
        <pt x="446" y="90" on="1"/>
        <pt x="424" y="44" on="0"/>
        <pt x="335" y="-10" on="0"/>
        <pt x="277" y="-10" on="1"/>
        <pt x="174" y="-10" on="0"/>
        <pt x="56" y="127" on="0"/>
        <pt x="56" y="249" on="1"/>
        <pt x="56" y="371" on="0"/>
        <pt x="175" y="510" on="0"/>
        <pt x="278" y="510" on="1"/>
        <pt x="332" y="510" on="0"/>
        <pt x="416" y="461" on="0"/>
        <pt x="439" y="419" on="1"/>
        <pt x="439" y="725" on="1"/>
      </contour>
      <contour>
        <pt x="364" y="76" on="0"/>
        <pt x="439" y="166" on="0"/>
        <pt x="439" y="244" on="1"/>
        <pt x="439" y="256" on="1"/>
        <pt x="439" y="334" on="0"/>
        <pt x="364" y="423" on="0"/>
        <pt x="301" y="423" on="1"/>
        <pt x="236" y="423" on="0"/>
        <pt x="163" y="332" on="0"/>
        <pt x="163" y="250" on="1"/>
        <pt x="163" y="168" on="0"/>
        <pt x="236" y="76" on="0"/>
        <pt x="301" y="76" on="1"/>
      </contour>
    </TTGlyph>
    <TTGlyph name="d.sc" xMin="87" yMin="0" xMax="596" yMax="560">
      <contour>
        <pt x="442" y="560" on="0"/>
        <pt x="596" y="414" on="0"/>
        <pt x="596" y="281" on="1"/>
        <pt x="596" y="146" on="0"/>
        <pt x="442" y="0" on="0"/>
        <pt x="302" y="0" on="1"/>
        <pt x="87" y="0" on="1"/>
        <pt x="87" y="560" on="1"/>
        <pt x="302" y="560" on="1"/>
      </contour>
      <contour>
        <pt x="395" y="86" on="0"/>
        <pt x="489" y="187" on="0"/>
        <pt x="489" y="281" on="1"/>
        <pt x="489" y="374" on="0"/>
        <pt x="395" y="474" on="0"/>
        <pt x="306" y="474" on="1"/>
        <pt x="193" y="474" on="1"/>
        <pt x="193" y="86" on="1"/>
        <pt x="306" y="86" on="1"/>
      </contour>
    </TTGlyph>
    <TTGlyph name="dagger" xMin="38" yMin="-100" xMax="500" yMax="660">
      <contour>
        <pt x="500" y="366" on="1"/>
        <pt x="321" y="366" on="1"/>
        <pt x="321" y="-100" on="1"/>
        <pt x="217" y="-100" on="1"/>
        <pt x="217" y="366" on="1"/>
        <pt x="38" y="366" on="1"/>
        <pt x="38" y="454" on="1"/>
        <pt x="217" y="454" on="1"/>
        <pt x="217" y="660" on="1"/>
        <pt x="321" y="660" on="1"/>
        <pt x="321" y="454" on="1"/>
        <pt x="500" y="454" on="1"/>
      </contour>
    </TTGlyph>
    <TTGlyph name="daggerdbl" xMin="38" yMin="-100" xMax="500" yMax="660">
      <contour>
        <pt x="321" y="366" on="1"/>
        <pt x="321" y="194" on="1"/>
        <pt x="500" y="194" on="1"/>
        <pt x="500" y="106" on="1"/>
        <pt x="321" y="106" on="1"/>
        <pt x="321" y="-100" on="1"/>
        <pt x="217" y="-100" on="1"/>
        <pt x="217" y="106" on="1"/>
        <pt x="38" y="106" on="1"/>
        <pt x="38" y="194" on="1"/>
        <pt x="217" y="194" on="1"/>
        <pt x="217" y="366" on="1"/>
        <pt x="38" y="366" on="1"/>
        <pt x="38" y="454" on="1"/>
        <pt x="217" y="454" on="1"/>
        <pt x="217" y="660" on="1"/>
        <pt x="321" y="660" on="1"/>
        <pt x="321" y="454" on="1"/>
        <pt x="500" y="454" on="1"/>
        <pt x="500" y="366" on="1"/>
      </contour>
    </TTGlyph>
    <TTGlyph name="daggerdblsuperior" xMin="30" yMin="233" xMax="405" yMax="730">
      <contour>
        <pt x="260" y="528" on="1"/>
        <pt x="260" y="435" on="1"/>
        <pt x="405" y="435" on="1"/>
        <pt x="405" y="366" on="1"/>
        <pt x="260" y="366" on="1"/>
        <pt x="260" y="233" on="1"/>
        <pt x="175" y="233" on="1"/>
        <pt x="175" y="366" on="1"/>
        <pt x="30" y="366" on="1"/>
        <pt x="30" y="435" on="1"/>
        <pt x="175" y="435" on="1"/>
        <pt x="175" y="528" on="1"/>
        <pt x="30" y="528" on="1"/>
        <pt x="30" y="597" on="1"/>
        <pt x="175" y="597" on="1"/>
        <pt x="175" y="730" on="1"/>
        <pt x="260" y="730" on="1"/>
        <pt x="260" y="597" on="1"/>
        <pt x="405" y="597" on="1"/>
        <pt x="405" y="528" on="1"/>
      </contour>
    </TTGlyph>
    <TTGlyph name="daggersuperior" xMin="30" yMin="233" xMax="405" yMax="730">
      <contour>
        <pt x="405" y="519" on="1"/>
        <pt x="260" y="519" on="1"/>
        <pt x="260" y="233" on="1"/>
        <pt x="175" y="233" on="1"/>
        <pt x="175" y="519" on="1"/>
        <pt x="30" y="519" on="1"/>
        <pt x="30" y="592" on="1"/>
        <pt x="175" y="592" on="1"/>
        <pt x="175" y="730" on="1"/>
        <pt x="260" y="730" on="1"/>
        <pt x="260" y="592" on="1"/>
        <pt x="405" y="592" on="1"/>
      </contour>
    </TTGlyph>
    <TTGlyph name="dcaron" xMin="56" yMin="-10" xMax="710" yMax="725">
      <contour>
        <pt x="439" y="725" on="1"/>
        <pt x="546" y="725" on="1"/>
        <pt x="546" y="0" on="1"/>
        <pt x="452" y="0" on="1"/>
        <pt x="446" y="90" on="1"/>
        <pt x="424" y="44" on="0"/>
        <pt x="335" y="-10" on="0"/>
        <pt x="277" y="-10" on="1"/>
        <pt x="174" y="-10" on="0"/>
        <pt x="56" y="127" on="0"/>
        <pt x="56" y="249" on="1"/>
        <pt x="56" y="371" on="0"/>
        <pt x="175" y="510" on="0"/>
        <pt x="278" y="510" on="1"/>
        <pt x="332" y="510" on="0"/>
        <pt x="416" y="461" on="0"/>
        <pt x="439" y="419" on="1"/>
      </contour>
      <contour>
        <pt x="710" y="725" on="1"/>
        <pt x="666" y="515" on="1"/>
        <pt x="598" y="515" on="1"/>
        <pt x="618" y="725" on="1"/>
      </contour>
      <contour>
        <pt x="364" y="76" on="0"/>
        <pt x="439" y="166" on="0"/>
        <pt x="439" y="244" on="1"/>
        <pt x="439" y="256" on="1"/>
        <pt x="439" y="334" on="0"/>
        <pt x="364" y="423" on="0"/>
        <pt x="301" y="423" on="1"/>
        <pt x="236" y="423" on="0"/>
        <pt x="163" y="332" on="0"/>
        <pt x="163" y="250" on="1"/>
        <pt x="163" y="168" on="0"/>
        <pt x="236" y="76" on="0"/>
        <pt x="301" y="76" on="1"/>
      </contour>
    </TTGlyph>
    <TTGlyph name="dcaron.sc" xMin="87" yMin="0" xMax="596" yMax="797">
      <component glyphName="d.sc" x="0" y="0" flags="0x0"/>
      <component glyphName="uni030C.cap" x="295" y="-100" flags="0x4"/>
    </TTGlyph>
    <TTGlyph name="dcroat" xMin="56" yMin="-10" xMax="623" yMax="725">
      <contour>
        <pt x="623" y="558" on="1"/>
        <pt x="546" y="558" on="1"/>
        <pt x="546" y="0" on="1"/>
        <pt x="452" y="0" on="1"/>
        <pt x="446" y="90" on="1"/>
        <pt x="424" y="44" on="0"/>
        <pt x="335" y="-10" on="0"/>
        <pt x="277" y="-10" on="1"/>
        <pt x="174" y="-10" on="0"/>
        <pt x="56" y="127" on="0"/>
        <pt x="56" y="249" on="1"/>
        <pt x="56" y="371" on="0"/>
        <pt x="175" y="510" on="0"/>
        <pt x="278" y="510" on="1"/>
        <pt x="332" y="510" on="0"/>
        <pt x="416" y="461" on="0"/>
        <pt x="439" y="419" on="1"/>
        <pt x="439" y="558" on="1"/>
        <pt x="290" y="558" on="1"/>
        <pt x="290" y="629" on="1"/>
        <pt x="439" y="629" on="1"/>
        <pt x="439" y="725" on="1"/>
        <pt x="546" y="725" on="1"/>
        <pt x="546" y="629" on="1"/>
        <pt x="623" y="629" on="1"/>
      </contour>
      <contour>
        <pt x="364" y="76" on="0"/>
        <pt x="439" y="166" on="0"/>
        <pt x="439" y="244" on="1"/>
        <pt x="439" y="256" on="1"/>
        <pt x="439" y="334" on="0"/>
        <pt x="364" y="423" on="0"/>
        <pt x="301" y="423" on="1"/>
        <pt x="236" y="423" on="0"/>
        <pt x="163" y="332" on="0"/>
        <pt x="163" y="250" on="1"/>
        <pt x="163" y="168" on="0"/>
        <pt x="236" y="76" on="0"/>
        <pt x="301" y="76" on="1"/>
      </contour>
    </TTGlyph>
    <TTGlyph name="dcroat.sc" xMin="20" yMin="0" xMax="615" yMax="560">
      <contour>
        <pt x="461" y="560" on="0"/>
        <pt x="615" y="414" on="0"/>
        <pt x="615" y="281" on="1"/>
        <pt x="615" y="146" on="0"/>
        <pt x="461" y="0" on="0"/>
        <pt x="321" y="0" on="1"/>
        <pt x="106" y="0" on="1"/>
        <pt x="106" y="250" on="1"/>
        <pt x="20" y="250" on="1"/>
        <pt x="20" y="313" on="1"/>
        <pt x="106" y="313" on="1"/>
        <pt x="106" y="560" on="1"/>
        <pt x="321" y="560" on="1"/>
      </contour>
      <contour>
        <pt x="414" y="86" on="0"/>
        <pt x="508" y="187" on="0"/>
        <pt x="508" y="281" on="1"/>
        <pt x="508" y="374" on="0"/>
        <pt x="414" y="474" on="0"/>
        <pt x="325" y="474" on="1"/>
        <pt x="212" y="474" on="1"/>
        <pt x="212" y="313" on="1"/>
        <pt x="360" y="313" on="1"/>
        <pt x="360" y="250" on="1"/>
        <pt x="212" y="250" on="1"/>
        <pt x="212" y="86" on="1"/>
        <pt x="325" y="86" on="1"/>
      </contour>
    </TTGlyph>
    <TTGlyph name="degree" xMin="56" yMin="327" xMax="415" yMax="670">
      <contour>
        <pt x="155" y="327" on="0"/>
        <pt x="56" y="423" on="0"/>
        <pt x="56" y="499" on="1"/>
        <pt x="56" y="575" on="0"/>
        <pt x="156" y="670" on="0"/>
        <pt x="235" y="670" on="1"/>
        <pt x="315" y="670" on="0"/>
        <pt x="415" y="575" on="0"/>
        <pt x="415" y="499" on="1"/>
        <pt x="415" y="422" on="0"/>
        <pt x="315" y="327" on="0"/>
        <pt x="235" y="327" on="1"/>
      </contour>
      <contour>
        <pt x="276" y="406" on="0"/>
        <pt x="329" y="458" on="0"/>
        <pt x="329" y="499" on="1"/>
        <pt x="329" y="540" on="0"/>
        <pt x="276" y="592" on="0"/>
        <pt x="235" y="592" on="1"/>
        <pt x="195" y="592" on="0"/>
        <pt x="142" y="540" on="0"/>
        <pt x="142" y="499" on="1"/>
        <pt x="142" y="458" on="0"/>
        <pt x="194" y="406" on="0"/>
        <pt x="235" y="406" on="1"/>
      </contour>
    </TTGlyph>
    <TTGlyph name="dieresis" xMin="86" yMin="574" xMax="419" yMax="700">
      <contour>
        <pt x="181" y="700" on="0"/>
        <pt x="217" y="666" on="0"/>
        <pt x="217" y="637" on="1"/>
        <pt x="217" y="608" on="0"/>
        <pt x="181" y="574" on="0"/>
        <pt x="151" y="574" on="1"/>
        <pt x="122" y="574" on="0"/>
        <pt x="86" y="609" on="0"/>
        <pt x="86" y="637" on="1"/>
        <pt x="86" y="666" on="0"/>
        <pt x="122" y="700" on="0"/>
        <pt x="151" y="700" on="1"/>
      </contour>
      <contour>
        <pt x="383" y="700" on="0"/>
        <pt x="419" y="666" on="0"/>
        <pt x="419" y="637" on="1"/>
        <pt x="419" y="608" on="0"/>
        <pt x="383" y="574" on="0"/>
        <pt x="353" y="574" on="1"/>
        <pt x="323" y="574" on="0"/>
        <pt x="288" y="608" on="0"/>
        <pt x="288" y="637" on="1"/>
        <pt x="288" y="666" on="0"/>
        <pt x="323" y="700" on="0"/>
        <pt x="353" y="700" on="1"/>
      </contour>
    </TTGlyph>
    <TTGlyph name="divide" xMin="56" yMin="46" xMax="548" yMax="591">
      <contour>
        <pt x="337" y="591" on="0"/>
        <pt x="375" y="552" on="0"/>
        <pt x="375" y="520" on="1"/>
        <pt x="375" y="488" on="0"/>
        <pt x="337" y="449" on="0"/>
        <pt x="304" y="449" on="1"/>
        <pt x="271" y="449" on="0"/>
        <pt x="231" y="488" on="0"/>
        <pt x="231" y="520" on="1"/>
        <pt x="231" y="552" on="0"/>
        <pt x="270" y="591" on="0"/>
        <pt x="304" y="591" on="1"/>
      </contour>
      <contour>
        <pt x="548" y="275" on="1"/>
        <pt x="56" y="275" on="1"/>
        <pt x="56" y="364" on="1"/>
        <pt x="548" y="364" on="1"/>
      </contour>
      <contour>
        <pt x="337" y="188" on="0"/>
        <pt x="375" y="149" on="0"/>
        <pt x="375" y="117" on="1"/>
        <pt x="375" y="85" on="0"/>
        <pt x="337" y="46" on="0"/>
        <pt x="304" y="46" on="1"/>
        <pt x="271" y="46" on="0"/>
        <pt x="231" y="85" on="0"/>
        <pt x="231" y="117" on="1"/>
        <pt x="231" y="149" on="0"/>
        <pt x="270" y="188" on="0"/>
        <pt x="304" y="188" on="1"/>
      </contour>
    </TTGlyph>
    <TTGlyph name="dollar" xMin="41" yMin="-96" xMax="571" yMax="756">
      <contour>
        <pt x="279" y="1" on="1"/>
        <pt x="102" y="16" on="0"/>
        <pt x="41" y="158" on="1"/>
        <pt x="118" y="214" on="1"/>
        <pt x="132" y="163" on="0"/>
        <pt x="220" y="94" on="0"/>
        <pt x="279" y="84" on="1"/>
        <pt x="279" y="292" on="1"/>
        <pt x="213" y="306" on="0"/>
        <pt x="124" y="340" on="0"/>
        <pt x="65" y="409" on="0"/>
        <pt x="65" y="466" on="1"/>
        <pt x="65" y="543" on="0"/>
        <pt x="180" y="650" on="0"/>
        <pt x="279" y="659" on="1"/>
        <pt x="279" y="756" on="1"/>
        <pt x="356" y="756" on="1"/>
        <pt x="356" y="658" on="1"/>
        <pt x="433" y="652" on="0"/>
        <pt x="533" y="588" on="0"/>
        <pt x="571" y="526" on="1"/>
        <pt x="500" y="461" on="1"/>
        <pt x="474" y="515" on="0"/>
        <pt x="407" y="569" on="0"/>
        <pt x="356" y="575" on="1"/>
        <pt x="356" y="364" on="1"/>
        <pt x="422" y="350" on="0"/>
        <pt x="511" y="315" on="0"/>
        <pt x="570" y="244" on="0"/>
        <pt x="570" y="186" on="1"/>
        <pt x="570" y="108" on="0"/>
        <pt x="453" y="9" on="0"/>
        <pt x="356" y="1" on="1"/>
        <pt x="356" y="-96" on="1"/>
        <pt x="279" y="-96" on="1"/>
      </contour>
      <contour>
        <pt x="279" y="575" on="1"/>
        <pt x="223" y="569" on="0"/>
        <pt x="165" y="516" on="0"/>
        <pt x="165" y="473" on="1"/>
        <pt x="165" y="434" on="0"/>
        <pt x="224" y="393" on="0"/>
        <pt x="279" y="380" on="1"/>
      </contour>
      <contour>
        <pt x="471" y="94" on="0"/>
        <pt x="471" y="179" on="1"/>
        <pt x="471" y="219" on="0"/>
        <pt x="412" y="261" on="0"/>
        <pt x="356" y="275" on="1"/>
        <pt x="356" y="83" on="1"/>
      </contour>
    </TTGlyph>
    <TTGlyph name="dollar.tf" xMin="42" yMin="-96" xMax="561" yMax="756">
      <contour>
        <pt x="416" y="348" on="0"/>
        <pt x="502" y="314" on="0"/>
        <pt x="560" y="244" on="0"/>
        <pt x="560" y="186" on="1"/>
        <pt x="560" y="108" on="0"/>
        <pt x="447" y="10" on="0"/>
        <pt x="352" y="2" on="1"/>
        <pt x="352" y="-96" on="1"/>
        <pt x="275" y="-96" on="1"/>
        <pt x="275" y="2" on="1"/>
        <pt x="102" y="15" on="0"/>
        <pt x="42" y="158" on="1"/>
        <pt x="121" y="214" on="1"/>
        <pt x="133" y="164" on="0"/>
        <pt x="219" y="95" on="0"/>
        <pt x="275" y="85" on="1"/>
        <pt x="275" y="292" on="1"/>
        <pt x="211" y="306" on="0"/>
        <pt x="125" y="340" on="0"/>
        <pt x="68" y="409" on="0"/>
        <pt x="68" y="466" on="1"/>
        <pt x="68" y="543" on="0"/>
        <pt x="179" y="649" on="0"/>
        <pt x="275" y="658" on="1"/>
        <pt x="275" y="756" on="1"/>
        <pt x="352" y="756" on="1"/>
        <pt x="352" y="658" on="1"/>
        <pt x="427" y="651" on="0"/>
        <pt x="523" y="588" on="0"/>
        <pt x="561" y="526" on="1"/>
        <pt x="490" y="461" on="1"/>
        <pt x="466" y="515" on="0"/>
        <pt x="401" y="569" on="0"/>
        <pt x="352" y="576" on="1"/>
        <pt x="352" y="362" on="1"/>
      </contour>
      <contour>
        <pt x="162" y="434" on="0"/>
        <pt x="220" y="393" on="0"/>
        <pt x="275" y="379" on="1"/>
        <pt x="275" y="576" on="1"/>
        <pt x="219" y="569" on="0"/>
        <pt x="162" y="516" on="0"/>
        <pt x="162" y="473" on="1"/>
      </contour>
      <contour>
        <pt x="466" y="94" on="0"/>
        <pt x="466" y="179" on="1"/>
        <pt x="466" y="218" on="0"/>
        <pt x="407" y="260" on="0"/>
        <pt x="352" y="274" on="1"/>
        <pt x="352" y="83" on="1"/>
      </contour>
    </TTGlyph>
    <TTGlyph name="dotaccent" xMin="181" yMin="586" xMax="320" yMax="718">
      <contour>
        <pt x="282" y="718" on="0"/>
        <pt x="320" y="683" on="0"/>
        <pt x="320" y="652" on="1"/>
        <pt x="320" y="621" on="0"/>
        <pt x="282" y="586" on="0"/>
        <pt x="250" y="586" on="1"/>
        <pt x="218" y="586" on="0"/>
        <pt x="181" y="621" on="0"/>
        <pt x="181" y="652" on="1"/>
        <pt x="181" y="683" on="0"/>
        <pt x="218" y="718" on="0"/>
        <pt x="250" y="718" on="1"/>
      </contour>
    </TTGlyph>
    <TTGlyph name="dotlessi" xMin="83" yMin="0" xMax="190" yMax="500">
      <contour>
        <pt x="190" y="0" on="1"/>
        <pt x="83" y="0" on="1"/>
        <pt x="83" y="500" on="1"/>
        <pt x="190" y="500" on="1"/>
      </contour>
    </TTGlyph>
    <TTGlyph name="e" xMin="54" yMin="-10" xMax="530" yMax="510">
      <contour>
        <pt x="530" y="236" on="0"/>
        <pt x="526" y="210" on="1"/>
        <pt x="160" y="210" on="1"/>
        <pt x="169" y="144" on="0"/>
        <pt x="244" y="75" on="0"/>
        <pt x="305" y="75" on="1"/>
        <pt x="354" y="75" on="0"/>
        <pt x="419" y="110" on="0"/>
        <pt x="431" y="143" on="1"/>
        <pt x="520" y="106" on="1"/>
        <pt x="464" y="-10" on="0"/>
        <pt x="305" y="-10" on="1"/>
        <pt x="187" y="-10" on="0"/>
        <pt x="54" y="128" on="0"/>
        <pt x="54" y="250" on="1"/>
        <pt x="54" y="373" on="0"/>
        <pt x="182" y="510" on="0"/>
        <pt x="298" y="510" on="1"/>
        <pt x="408" y="510" on="0"/>
        <pt x="530" y="376" on="0"/>
        <pt x="530" y="265" on="1"/>
      </contour>
      <contour>
        <pt x="239" y="425" on="0"/>
        <pt x="169" y="357" on="0"/>
        <pt x="161" y="292" on="1"/>
        <pt x="430" y="292" on="1"/>
        <pt x="422" y="355" on="0"/>
        <pt x="354" y="425" on="0"/>
        <pt x="298" y="425" on="1"/>
      </contour>
    </TTGlyph>
    <TTGlyph name="e.sc" xMin="87" yMin="0" xMax="533" yMax="560">
      <contour>
        <pt x="533" y="84" on="1"/>
        <pt x="533" y="0" on="1"/>
        <pt x="87" y="0" on="1"/>
        <pt x="87" y="560" on="1"/>
        <pt x="523" y="560" on="1"/>
        <pt x="523" y="476" on="1"/>
        <pt x="193" y="476" on="1"/>
        <pt x="193" y="324" on="1"/>
        <pt x="451" y="324" on="1"/>
        <pt x="451" y="242" on="1"/>
        <pt x="193" y="242" on="1"/>
        <pt x="193" y="84" on="1"/>
      </contour>
    </TTGlyph>
    <TTGlyph name="eacute" xMin="54" yMin="-10" xMax="530" yMax="746">
      <component glyphName="e" x="0" y="0" flags="0x0"/>
      <component glyphName="acute" x="37" y="0" flags="0x0"/>
    </TTGlyph>
    <TTGlyph name="eacute.sc" xMin="87" yMin="0" xMax="533" yMax="797">
      <component glyphName="e.sc" x="0" y="0" flags="0x0"/>
      <component glyphName="acutecomb.cap" x="304" y="-100" flags="0x4"/>
    </TTGlyph>
    <TTGlyph name="ecaron" xMin="54" yMin="-10" xMax="530" yMax="746">
      <component glyphName="e" x="0" y="0" flags="0x0"/>
      <component glyphName="caron" x="44" y="0" flags="0x0"/>
    </TTGlyph>
    <TTGlyph name="ecaron.sc" xMin="87" yMin="0" xMax="533" yMax="797">
      <component glyphName="e.sc" x="0" y="0" flags="0x0"/>
      <component glyphName="uni030C.cap" x="299" y="-100" flags="0x4"/>
    </TTGlyph>
    <TTGlyph name="ecircumflex" xMin="54" yMin="-10" xMax="530" yMax="739">
      <component glyphName="e" x="0" y="0" flags="0x0"/>
      <component glyphName="circumflex" x="45" y="0" flags="0x0"/>
    </TTGlyph>
    <TTGlyph name="ecircumflex.sc" xMin="87" yMin="0" xMax="533" yMax="794">
      <component glyphName="e.sc" x="0" y="0" flags="0x0"/>
      <component glyphName="uni0302.cap" x="299" y="-100" flags="0x4"/>
    </TTGlyph>
    <TTGlyph name="edieresis" xMin="54" yMin="-10" xMax="530" yMax="700">
      <component glyphName="e" x="0" y="0" flags="0x0"/>
      <component glyphName="dieresis" x="43" y="0" flags="0x0"/>
    </TTGlyph>
    <TTGlyph name="edieresis.sc" xMin="87" yMin="0" xMax="533" yMax="760">
      <component glyphName="e.sc" x="0" y="0" flags="0x0"/>
      <component glyphName="dieresis" x="47" y="60" flags="0x4"/>
    </TTGlyph>
    <TTGlyph name="edotaccent" xMin="54" yMin="-10" xMax="530" yMax="718">
      <component glyphName="e" x="0" y="0" flags="0x0"/>
      <component glyphName="dotaccent" x="45" y="0" flags="0x0"/>
    </TTGlyph>
    <TTGlyph name="edotaccent.sc" xMin="87" yMin="0" xMax="533" yMax="778">
      <component glyphName="e.sc" x="0" y="0" flags="0x0"/>
      <component glyphName="dotaccent" x="49" y="60" flags="0x4"/>
    </TTGlyph>
    <TTGlyph name="egrave" xMin="54" yMin="-10" xMax="530" yMax="746">
      <component glyphName="e" x="0" y="0" flags="0x0"/>
      <component glyphName="grave" x="45" y="0" flags="0x0"/>
    </TTGlyph>
    <TTGlyph name="egrave.sc" xMin="87" yMin="0" xMax="533" yMax="797">
      <component glyphName="e.sc" x="0" y="0" flags="0x0"/>
      <component glyphName="gravecomb.cap" x="299" y="-100" flags="0x4"/>
    </TTGlyph>
    <TTGlyph name="eight" xMin="61" yMin="-10" xMax="558" yMax="669">
      <contour>
        <pt x="411" y="669" on="0"/>
        <pt x="531" y="573" on="0"/>
        <pt x="531" y="492" on="1"/>
        <pt x="531" y="441" on="0"/>
        <pt x="480" y="365" on="0"/>
        <pt x="434" y="345" on="1"/>
        <pt x="434" y="344" on="1"/>
        <pt x="493" y="322" on="0"/>
        <pt x="558" y="238" on="0"/>
        <pt x="558" y="177" on="1"/>
        <pt x="558" y="91" on="0"/>
        <pt x="424" y="-10" on="0"/>
        <pt x="310" y="-10" on="1"/>
        <pt x="196" y="-10" on="0"/>
        <pt x="61" y="91" on="0"/>
        <pt x="61" y="177" on="1"/>
        <pt x="61" y="237" on="0"/>
        <pt x="127" y="323" on="0"/>
        <pt x="186" y="344" on="1"/>
        <pt x="186" y="345" on="1"/>
        <pt x="140" y="364" on="0"/>
        <pt x="88" y="441" on="0"/>
        <pt x="88" y="492" on="1"/>
        <pt x="88" y="574" on="0"/>
        <pt x="208" y="669" on="0"/>
        <pt x="310" y="669" on="1"/>
      </contour>
      <contour>
        <pt x="257" y="579" on="0"/>
        <pt x="195" y="528" on="0"/>
        <pt x="195" y="482" on="1"/>
        <pt x="195" y="437" on="0"/>
        <pt x="257" y="386" on="0"/>
        <pt x="310" y="386" on="1"/>
        <pt x="362" y="386" on="0"/>
        <pt x="425" y="437" on="0"/>
        <pt x="425" y="482" on="1"/>
        <pt x="425" y="527" on="0"/>
        <pt x="363" y="579" on="0"/>
        <pt x="310" y="579" on="1"/>
      </contour>
      <contour>
        <pt x="375" y="80" on="0"/>
        <pt x="450" y="138" on="0"/>
        <pt x="450" y="189" on="1"/>
        <pt x="450" y="240" on="0"/>
        <pt x="374" y="299" on="0"/>
        <pt x="310" y="299" on="1"/>
        <pt x="246" y="299" on="0"/>
        <pt x="169" y="240" on="0"/>
        <pt x="169" y="189" on="1"/>
        <pt x="169" y="138" on="0"/>
        <pt x="245" y="80" on="0"/>
        <pt x="310" y="80" on="1"/>
      </contour>
    </TTGlyph>
    <TTGlyph name="eight.dnom" xMin="33" yMin="-10" xMax="361" yMax="397">
      <component glyphName="uni2078" x="0" y="-337" flags="0x4"/>
    </TTGlyph>
    <TTGlyph name="eight.numr" xMin="33" yMin="262" xMax="361" yMax="669">
      <component glyphName="uni2078" x="0" y="-65" flags="0x4"/>
    </TTGlyph>
    <TTGlyph name="eight.osf" xMin="54" yMin="-10" xMax="546" yMax="669">
      <contour>
        <pt x="400" y="669" on="0"/>
        <pt x="517" y="574" on="0"/>
        <pt x="517" y="492" on="1"/>
        <pt x="517" y="442" on="0"/>
        <pt x="468" y="365" on="0"/>
        <pt x="423" y="345" on="1"/>
        <pt x="423" y="344" on="1"/>
        <pt x="481" y="323" on="0"/>
        <pt x="546" y="238" on="0"/>
        <pt x="546" y="178" on="1"/>
        <pt x="546" y="91" on="0"/>
        <pt x="412" y="-10" on="0"/>
        <pt x="300" y="-10" on="1"/>
        <pt x="187" y="-10" on="0"/>
        <pt x="54" y="91" on="0"/>
        <pt x="54" y="178" on="1"/>
        <pt x="54" y="237" on="0"/>
        <pt x="119" y="323" on="0"/>
        <pt x="177" y="344" on="1"/>
        <pt x="177" y="345" on="1"/>
        <pt x="132" y="365" on="0"/>
        <pt x="82" y="441" on="0"/>
        <pt x="82" y="492" on="1"/>
        <pt x="82" y="574" on="0"/>
        <pt x="200" y="669" on="0"/>
        <pt x="300" y="669" on="1"/>
      </contour>
      <contour>
        <pt x="246" y="586" on="0"/>
        <pt x="184" y="533" on="0"/>
        <pt x="184" y="486" on="1"/>
        <pt x="184" y="439" on="0"/>
        <pt x="247" y="385" on="0"/>
        <pt x="300" y="385" on="1"/>
        <pt x="353" y="385" on="0"/>
        <pt x="415" y="439" on="0"/>
        <pt x="415" y="486" on="1"/>
        <pt x="415" y="533" on="0"/>
        <pt x="353" y="586" on="0"/>
        <pt x="300" y="586" on="1"/>
      </contour>
      <contour>
        <pt x="365" y="73" on="0"/>
        <pt x="440" y="134" on="0"/>
        <pt x="440" y="187" on="1"/>
        <pt x="440" y="240" on="0"/>
        <pt x="365" y="302" on="0"/>
        <pt x="300" y="302" on="1"/>
        <pt x="235" y="302" on="0"/>
        <pt x="159" y="240" on="0"/>
        <pt x="159" y="187" on="1"/>
        <pt x="159" y="134" on="0"/>
        <pt x="235" y="73" on="0"/>
        <pt x="300" y="73" on="1"/>
      </contour>
    </TTGlyph>
    <TTGlyph name="eight.sc" xMin="54" yMin="-8" xMax="507" yMax="567">
      <contour>
        <pt x="177" y="-8" on="0"/>
        <pt x="54" y="78" on="0"/>
        <pt x="54" y="151" on="1"/>
        <pt x="54" y="200" on="0"/>
        <pt x="113" y="273" on="0"/>
        <pt x="167" y="290" on="1"/>
        <pt x="167" y="291" on="1"/>
        <pt x="122" y="307" on="0"/>
        <pt x="72" y="373" on="0"/>
        <pt x="72" y="415" on="1"/>
        <pt x="72" y="486" on="0"/>
        <pt x="185" y="567" on="0"/>
        <pt x="281" y="567" on="1"/>
        <pt x="376" y="567" on="0"/>
        <pt x="489" y="486" on="0"/>
        <pt x="489" y="415" on="1"/>
        <pt x="489" y="373" on="0"/>
        <pt x="439" y="307" on="0"/>
        <pt x="394" y="291" on="1"/>
        <pt x="394" y="290" on="1"/>
        <pt x="448" y="273" on="0"/>
        <pt x="507" y="200" on="0"/>
        <pt x="507" y="151" on="1"/>
        <pt x="507" y="78" on="0"/>
        <pt x="385" y="-8" on="0"/>
        <pt x="281" y="-8" on="1"/>
      </contour>
      <contour>
        <pt x="329" y="328" on="0"/>
        <pt x="386" y="371" on="0"/>
        <pt x="386" y="407" on="1"/>
        <pt x="386" y="444" on="0"/>
        <pt x="329" y="486" on="0"/>
        <pt x="281" y="486" on="1"/>
        <pt x="232" y="486" on="0"/>
        <pt x="175" y="444" on="0"/>
        <pt x="175" y="407" on="1"/>
        <pt x="175" y="370" on="0"/>
        <pt x="233" y="328" on="0"/>
        <pt x="281" y="328" on="1"/>
      </contour>
      <contour>
        <pt x="337" y="73" on="0"/>
        <pt x="403" y="121" on="0"/>
        <pt x="403" y="162" on="1"/>
        <pt x="403" y="203" on="0"/>
        <pt x="336" y="251" on="0"/>
        <pt x="281" y="251" on="1"/>
        <pt x="225" y="251" on="0"/>
        <pt x="159" y="203" on="0"/>
        <pt x="159" y="162" on="1"/>
        <pt x="159" y="121" on="0"/>
        <pt x="224" y="73" on="0"/>
        <pt x="281" y="73" on="1"/>
      </contour>
    </TTGlyph>
</ttFont>
